<?xml version="1.0" standalone="no"?>
<!DOCTYPE svg PUBLIC "-//W3C//DTD SVG 1.1//EN" "http://www.w3.org/Graphics/SVG/1.1/DTD/svg11.dtd" >
<svg xmlns="http://www.w3.org/2000/svg" xmlns:xlink="http://www.w3.org/1999/xlink" version="1.1">
<metadata>
Created by FontForge 20170812 at Sun Nov 22 11:20:21 2020
 By www-data
Copyright 2020 The Bodoni Moda Project Authors (https://github.com/indestructible-type)
</metadata>
<defs>
<font id="BodoniModa-Regular" horiz-adv-x="1160" >
  <font-face 
    font-family="Bodoni Moda"
    font-weight="400"
    font-stretch="normal"
    units-per-em="2000"
    panose-1="0 0 0 0 0 0 0 0 0 0"
    ascent="1600"
    descent="-400"
    x-height="920"
    cap-height="1500"
    bbox="-350 -627 2870 2095"
    underline-thickness="50"
    underline-position="-125"
    unicode-range="U+000D-FB02"
  />
<missing-glyph horiz-adv-x="1200" 
d="M213 0v1500h774v-1500h-774zM253 39h694v1422h-694v-1422zM601 443q-56 0 -56 69q0 13 1 21q5 38 12.5 61t13.5 49t8 71q-38 -24 -57 -42.5t-35.5 -36.5t-46.5 -41q-5 -4 -9.5 -6.5t-8.5 -5.5q-59 -33 -87 15q-29 49 31 83q11 7 18 10q36 14 59.5 19.5t49 12.5t65.5 28
q-40 21 -65.5 28.5t-49 13t-59.5 19.5q-7 3 -18 10q-60 34 -31 83q28 48 87 14q4 -2 8.5 -4.5t9.5 -6.5q30 -23 46.5 -41t35.5 -36.5t57 -42.5q-2 45 -8 70.5t-13.5 49t-12.5 61.5q-1 7 -1 20q0 69 56 69q57 0 57 -69q0 -13 -1 -20q-6 -38 -13 -61.5t-13 -49t-9 -70.5
q39 24 58 42.5t35.5 36.5t46.5 41q5 4 9 6.5t8 4.5q60 34 88 -14q29 -49 -31 -83q-11 -7 -19 -10q-35 -14 -58.5 -19.5t-49 -13t-65.5 -28.5q40 -21 65.5 -28t49 -12.5t58.5 -19.5q8 -3 19 -10q60 -34 31 -83q-28 -48 -88 -15q-4 3 -8 5.5t-9 6.5q-30 23 -46.5 41
t-35.5 36.5t-58 42.5q3 -45 9 -71t13 -49t13 -61q1 -8 1 -21q0 -69 -57 -69z" />
    <glyph glyph-name="f_f" unicode="ff" horiz-adv-x="1396" 
d="M1228 1520q81 0 135.5 -30t82.5 -75.5t28 -92.5q0 -61 -34.5 -92.5t-80.5 -31.5q-38 0 -74.5 24.5t-36.5 84.5q0 36 18 61t44.5 38t51.5 12q16 -2 31 -13t20 -30q-18 42 -64.5 74t-120.5 32q-80 0 -127 -47.5t-67 -137t-20 -216.5v-160h280v-39h-280v-842h240v-39h-1190
v39h770v842h-770v39h770v103q0 131 44.5 244.5t132 183t217.5 69.5zM673 1420q91 0 156 -32.5t100 -80.5t35 -95q0 -61 -34.5 -92.5t-80.5 -31.5q-38 0 -74.5 24.5t-36.5 84.5q0 36 18 61t44.5 38t51.5 12q15 -2 29 -12.5t19 -27.5q-14 29 -45 54.5t-77 42t-105 16.5
q-90 0 -147.5 -47.5t-84.5 -137t-27 -216.5v-960h-180v903q0 131 51.5 244.5t149.5 183t238 69.5z" />
    <glyph glyph-name="f_f_i" unicode="ffi" horiz-adv-x="1805" 
d="M1412 0v881h-1348v39h1528v-920h-180zM64 0v39h1658v-39h-1658zM234 0v923q0 98 29 187.5t85.5 159t138 110t186.5 40.5q91 0 156 -32.5t100 -80.5t35 -95q0 -61 -34.5 -92.5t-80.5 -31.5q-38 0 -74.5 24.5t-36.5 84.5q0 53 36.5 82t74.5 29q27 0 53 -11.5t43 -33
t17 -51.5h-38q0 38 -29.5 77t-85.5 65.5t-136 26.5q-90 0 -147.5 -47.5t-84.5 -137t-27 -216.5v-980h-180zM834 0v1023q0 131 55 244.5t157 183t242 69.5q91 0 162.5 -30t112.5 -75.5t41 -92.5q0 -61 -34.5 -92.5t-80.5 -31.5q-38 0 -74.5 24.5t-36.5 84.5q0 53 36.5 82
t74.5 29q40 0 76.5 -25.5t36.5 -70.5h-38q0 38 -38 74.5t-100.5 60.5t-137.5 24q-90 0 -151 -47.5t-92 -137t-31 -216.5v-1080h-180z" />
    <glyph glyph-name="f_f_l" unicode="ffl" horiz-adv-x="1836" 
d="M64 0v39h770v842h-770v39h770v103q0 131 47 244.5t137 183t220 69.5q78 0 135.5 -30t89 -75.5t31.5 -92.5q0 -61 -34.5 -92.5t-80.5 -31.5q-38 0 -74.5 24.5t-36.5 84.5q0 53 37 82t75 29q16 -2 30.5 -13t19.5 -28q-20 40 -71 72t-121 32q-80 0 -129.5 -47.5t-72 -137
t-22.5 -216.5v-160h280v-39h-280v-842h749v-39h-1699zM234 21v902q0 131 51.5 244.5t149.5 183t238 69.5q91 0 156 -32.5t100 -80.5t35 -95q0 -61 -34.5 -92.5t-80.5 -31.5q-38 0 -74.5 24.5t-36.5 84.5q0 54 38 83t76 28q15 -2 29 -12.5t19 -26.5q-21 42 -79.5 77
t-147.5 35q-90 0 -147.5 -47.5t-84.5 -137t-27 -216.5v-959h-180zM1414 21v1439l180 80v-1519h-180z" />
    <glyph glyph-name="fi" unicode="fi" horiz-adv-x="1215" 
d="M234 0v1023q0 98 31.5 187.5t90.5 159t143 110t189 40.5q91 0 162.5 -30t112.5 -75.5t41 -92.5q0 -61 -34.5 -92.5t-80.5 -31.5q-38 0 -74.5 24.5t-36.5 84.5q0 35 17.5 60t43 38t50.5 13q40 0 76.5 -25.5t36.5 -70.5h-38q0 38 -38 74.5t-100.5 60.5t-137.5 24
q-90 0 -151 -47.5t-92 -137t-31 -216.5v-1080h-180zM64 0v39h1068v-39h-1068zM812 0v881h-748v39h928v-920h-180z" />
    <glyph glyph-name="fl" unicode="fl" horiz-adv-x="1236" 
d="M234 0v1023q0 131 47 244.5t137 183t220 69.5q83 0 137.5 -30t81.5 -75.5t27 -92.5q0 -61 -34.5 -92.5t-80.5 -31.5q-37 0 -74 24.5t-37 84.5q0 53 37 82t74 29q41 0 77 -25.5t36 -70.5h-38q0 40 -24.5 76t-70.5 59.5t-111 23.5q-80 0 -129.5 -47.5t-72 -137
t-22.5 -216.5v-1080h-180zM64 0v39h1099v-39h-1099zM64 881v39h620v-39h-620zM814 0v1460l180 80v-1540h-180z" />
    <glyph glyph-name="f_j.liga" unicode="fj" horiz-adv-x="1129" 
d="M630 -520q-81 0 -136 31t-82.5 81t-27.5 106q0 62 34 93t80 31q25 0 50.5 -10.5t43 -34t17.5 -63.5q0 -38 -28.5 -73.5t-78.5 -35.5q-29 0 -55.5 11t-43.5 31.5t-17 50.5h38q0 -47 23 -88t66.5 -66t105.5 -25q67 0 99 45t41 120.5t7 168t-2 187.5v841h-700v39h879v-943
q0 -98 -13 -187.5t-46.5 -159t-95 -110t-158.5 -40.5zM64 0v39h590v-39h-590zM234 0v1023q0 131 50 244.5t147 183t237 69.5q91 0 155 -30t97.5 -75.5t33.5 -92.5q0 -61 -34.5 -92.5t-80.5 -31.5q-25 0 -50.5 10.5t-43 34.5t-17.5 64q0 53 36.5 82t74.5 29q27 0 53 -11.5
t43 -33t17 -51.5h-38q0 38 -31 74.5t-86 60.5t-129 24q-90 0 -146 -47.5t-82 -137t-26 -216.5v-1080h-180z" />
    <glyph glyph-name=".notdef" horiz-adv-x="1200" 
d="M213 0v1500h774v-1500h-774zM253 39h694v1422h-694v-1422zM601 443q-56 0 -56 69q0 13 1 21q5 38 12.5 61t13.5 49t8 71q-38 -24 -57 -42.5t-35.5 -36.5t-46.5 -41q-5 -4 -9.5 -6.5t-8.5 -5.5q-59 -33 -87 15q-29 49 31 83q11 7 18 10q36 14 59.5 19.5t49 12.5t65.5 28
q-40 21 -65.5 28.5t-49 13t-59.5 19.5q-7 3 -18 10q-60 34 -31 83q28 48 87 14q4 -2 8.5 -4.5t9.5 -6.5q30 -23 46.5 -41t35.5 -36.5t57 -42.5q-2 45 -8 70.5t-13.5 49t-12.5 61.5q-1 7 -1 20q0 69 56 69q57 0 57 -69q0 -13 -1 -20q-6 -38 -13 -61.5t-13 -49t-9 -70.5
q39 24 58 42.5t35.5 36.5t46.5 41q5 4 9 6.5t8 4.5q60 34 88 -14q29 -49 -31 -83q-11 -7 -19 -10q-35 -14 -58.5 -19.5t-49 -13t-65.5 -28.5q40 -21 65.5 -28t49 -12.5t58.5 -19.5q8 -3 19 -10q60 -34 31 -83q-28 -48 -88 -15q-4 3 -8 5.5t-9 6.5q-30 23 -46.5 41
t-35.5 36.5t-58 42.5q3 -45 9 -71t13 -49t13 -61q1 -8 1 -21q0 -69 -57 -69z" />
    <glyph glyph-name="A" unicode="A" horiz-adv-x="1544" 
d="M432 469v39h648v-39h-648zM810 1529l516 -1490h156v-39h-580v39h205l-393 1217l-424 -1217h212v-39h-440v39h183l524 1490h41z" />
    <glyph glyph-name="Aacute" unicode="&#xc1;" horiz-adv-x="1544" 
d="M432 469v39h648v-39h-648zM810 1529l516 -1490h156v-39h-580v39h205l-393 1217l-424 -1217h212v-39h-440v39h183l524 1490h41zM729 1681l-24 27l202 218q19 21 41.5 23.5t41.5 -7.5t29 -27q9 -16 8.5 -36t-10 -36.5t-25.5 -25.5z" />
    <glyph glyph-name="Abreve" unicode="&#x102;" horiz-adv-x="1544" 
d="M432 469v39h648v-39h-648zM810 1529l516 -1490h156v-39h-580v39h205l-393 1217l-424 -1217h212v-39h-440v39h183l524 1490h41zM789 1680q-90 0 -137 39t-64 98.5t-17 120.5h21q0 -49 27 -82t72 -49.5t98 -16.5q54 0 99 16.5t72.5 49.5t27.5 82h22q0 -61 -17.5 -120.5
t-65.5 -98.5t-138 -39z" />
    <glyph glyph-name="Acircumflex" unicode="&#xc2;" horiz-adv-x="1544" 
d="M432 469v39h648v-39h-648zM810 1529l516 -1490h156v-39h-580v39h205l-393 1217l-424 -1217h212v-39h-440v39h183l524 1490h41zM526 1698l-20 21l220 220h130l220 -220l-20 -21l-266 151z" />
    <glyph glyph-name="Adieresis" unicode="&#xc4;" horiz-adv-x="1544" 
d="M432 469v39h648v-39h-648zM810 1529l516 -1490h156v-39h-580v39h205l-393 1217l-424 -1217h212v-39h-440v39h183l524 1490h41zM949 1690q-40 0 -68 28t-28 68t28 68.5t68 28.5t68 -28.5t28 -68.5t-28 -68t-68 -28zM629 1690q-40 0 -68 28t-28 68t28 68.5t68 28.5
t68 -28.5t28 -68.5t-28 -68t-68 -28z" />
    <glyph glyph-name="Agrave" unicode="&#xc0;" horiz-adv-x="1544" 
d="M432 469v39h648v-39h-648zM810 1529l516 -1490h156v-39h-580v39h205l-393 1217l-424 -1217h212v-39h-440v39h183l524 1490h41zM850 1681l-263 136q-16 9 -25.5 25.5t-10 36.5t8.5 36q10 17 29 27t41.5 7.5t41.5 -23.5l202 -218z" />
    <glyph glyph-name="Amacron" unicode="&#x100;" horiz-adv-x="1544" 
d="M432 469v39h648v-39h-648zM810 1529l516 -1490h156v-39h-580v39h205l-393 1217l-424 -1217h212v-39h-440v39h183l524 1490h41zM550 1700v39h480v-39h-480z" />
    <glyph glyph-name="Aogonek" unicode="&#x104;" horiz-adv-x="1544" 
d="M432 469v39h648v-39h-648zM810 1529l516 -1490h156v-39h-580v39h205l-393 1217l-424 -1217h212v-39h-440v39h183l524 1490h41zM1210 -419q-51 0 -101 18t-82.5 56t-32.5 98t25.5 106.5t67.5 81t91 58.5t96 39l12 -21q-31 -17 -55 -49.5t-37.5 -77t-13.5 -97.5
q0 -63 26.5 -104t77.5 -41q48 0 78 28.5t52 67.5l25 -18q-15 -28 -41.5 -62t-71.5 -58.5t-116 -24.5z" />
    <glyph glyph-name="Aring" unicode="&#xc5;" horiz-adv-x="1544" 
d="M432 469v39h648v-39h-648zM810 1529l516 -1490h156v-39h-580v39h205l-393 1217l-424 -1217h212v-39h-440v39h183l524 1490h41zM790 1680q-76 0 -127.5 51.5t-51.5 127.5q0 77 51.5 129t127.5 52q77 0 128.5 -52t51.5 -129q0 -76 -51.5 -127.5t-128.5 -51.5zM790 1720
q37 0 60.5 19t34.5 50.5t11 69.5q0 39 -11 71t-34.5 51.5t-60.5 19.5t-60.5 -19.5t-34 -51.5t-10.5 -71q0 -38 10.5 -69.5t34 -50.5t60.5 -19z" />
    <glyph glyph-name="Atilde" unicode="&#xc3;" horiz-adv-x="1544" 
d="M432 469v39h648v-39h-648zM810 1529l516 -1490h156v-39h-580v39h205l-393 1217l-424 -1217h212v-39h-440v39h183l524 1490h41zM952 1680q-57 0 -101.5 24t-82.5 55t-75.5 55t-80.5 24q-50 0 -88 -30t-38 -108h-40q0 85 32 141.5t80.5 84.5t97.5 28q59 0 102.5 -24
t78.5 -55t68 -55t71 -24q57 0 92 30t35 108h39q0 -95 -23 -150.5t-65.5 -79.5t-101.5 -24z" />
    <glyph glyph-name="AE" unicode="&#xc6;" horiz-adv-x="2017" 
d="M194 0l856 1500h39l-851 -1500h-44zM29 0v39h442v-39h-442zM492 470v39h578v-39h-578zM870 0v39h691q136 0 214 50t110.5 142t32.5 219h39v-450h-1087zM1050 0v1500h190v-1500h-190zM1558 557q0 67 -26 111t-71 66t-102 22h-119v39h119q57 0 102 20t71 62t26 109h39v-429
h-39zM1898 1090q0 107 -31 191t-100.5 132t-186.5 48h-530v39h887v-410h-39z" />
    <glyph glyph-name="B" unicode="B" horiz-adv-x="1312" 
d="M62 0v39h600q86 0 159 45.5t117 131t44 204.5t-44 191.5t-117 106t-159 33.5h-240v25h261q141 0 259 -35t189 -113t71 -208q0 -225 -139 -322.5t-380 -97.5h-621zM242 15v1470h191v-1470h-191zM422 764v26h220q76 0 145 30.5t112.5 100t43.5 188.5t-43.5 197
t-112.5 116.5t-145 38.5h-580v39h580q227 0 363.5 -87.5t136.5 -282.5t-129 -280.5t-371 -85.5h-220z" />
    <glyph glyph-name="C" unicode="C" horiz-adv-x="1431" 
d="M790 -20q-203 0 -356 99.5t-238 273.5t-85 397t85 397t238 273.5t356 99.5q99 0 189.5 -34.5t159.5 -96.5l104 111h35v-410h-40q-5 117 -66.5 203t-157 133t-204.5 47q-130 0 -220 -61t-145 -164t-80 -232.5t-25 -265.5t25 -265.5t80 -232.5t145 -164t220 -61
q99 0 179.5 29.5t139.5 82t92 122t37 149.5h40v-410h-35l-95 118q-69 -64 -166.5 -101t-211.5 -37z" />
    <glyph glyph-name="Cacute" unicode="&#x106;" horiz-adv-x="1431" 
d="M790 -20q-203 0 -356 99.5t-238 273.5t-85 397t85 397t238 273.5t356 99.5q99 0 189.5 -34.5t159.5 -96.5l104 111h35v-410h-40q-5 117 -66.5 203t-157 133t-204.5 47q-130 0 -220 -61t-145 -164t-80 -232.5t-25 -265.5t25 -265.5t80 -232.5t145 -164t220 -61
q99 0 179.5 29.5t139.5 82t92 122t37 149.5h40v-410h-35l-95 118q-69 -64 -166.5 -101t-211.5 -37zM731 1681l-24 27l202 218q19 21 41.5 23.5t41.5 -7.5t29 -27q9 -16 8.5 -36t-10 -36.5t-25.5 -25.5z" />
    <glyph glyph-name="Ccaron" unicode="&#x10c;" horiz-adv-x="1431" 
d="M790 -20q-203 0 -356 99.5t-238 273.5t-85 397t85 397t238 273.5t356 99.5q99 0 189.5 -34.5t159.5 -96.5l104 111h35v-410h-40q-5 117 -66.5 203t-157 133t-204.5 47q-130 0 -220 -61t-145 -164t-80 -232.5t-25 -265.5t25 -265.5t80 -232.5t145 -164t220 -61
q99 0 179.5 29.5t139.5 82t92 122t37 149.5h40v-410h-35l-95 118q-69 -64 -166.5 -101t-211.5 -37zM728 1700l-220 221l21 19l263 -150l265 150l21 -19l-220 -221h-130z" />
    <glyph glyph-name="Ccedilla" unicode="&#xc7;" horiz-adv-x="1431" 
d="M790 -20q-203 0 -356 99.5t-238 273.5t-85 397t85 397t238 273.5t356 99.5q99 0 189.5 -34.5t159.5 -96.5l104 111h35v-410h-40q-5 117 -66.5 203t-157 133t-204.5 47q-130 0 -220 -61t-145 -164t-80 -232.5t-25 -265.5t25 -265.5t80 -232.5t145 -164t220 -61
q99 0 179.5 29.5t139.5 82t92 122t37 149.5h40v-410h-35l-95 118q-69 -64 -166.5 -101t-211.5 -37zM643 -499v39q89 0 142.5 31.5t53.5 78.5t-29 72t-79.5 34t-115.5 9l175 235h49l-116 -155q73 -3 131 -20t92.5 -51.5t34.5 -90.5q0 -50 -34 -91.5t-108.5 -66t-195.5 -24.5z
" />
    <glyph glyph-name="Ccircumflex" unicode="&#x108;" horiz-adv-x="1431" 
d="M790 -20q-203 0 -356 99.5t-238 273.5t-85 397t85 397t238 273.5t356 99.5q99 0 189.5 -34.5t159.5 -96.5l104 111h35v-410h-40q-5 117 -66.5 203t-157 133t-204.5 47q-130 0 -220 -61t-145 -164t-80 -232.5t-25 -265.5t25 -265.5t80 -232.5t145 -164t220 -61
q99 0 179.5 29.5t139.5 82t92 122t37 149.5h40v-410h-35l-95 118q-69 -64 -166.5 -101t-211.5 -37zM528 1698l-20 21l220 220h130l220 -220l-20 -21l-266 151z" />
    <glyph glyph-name="Cdotaccent" unicode="&#x10a;" horiz-adv-x="1431" 
d="M790 -20q-203 0 -356 99.5t-238 273.5t-85 397t85 397t238 273.5t356 99.5q99 0 189.5 -34.5t159.5 -96.5l104 111h35v-410h-40q-5 117 -66.5 203t-157 133t-204.5 47q-130 0 -220 -61t-145 -164t-80 -232.5t-25 -265.5t25 -265.5t80 -232.5t145 -164t220 -61
q99 0 179.5 29.5t139.5 82t92 122t37 149.5h40v-410h-35l-95 118q-69 -64 -166.5 -101t-211.5 -37zM793 1854q-50 0 -85 35.5t-35 85.5q0 49 35 84.5t85 35.5q49 0 84.5 -35.5t35.5 -84.5q0 -50 -35.5 -85.5t-84.5 -35.5z" />
    <glyph glyph-name="D" unicode="D" horiz-adv-x="1452" 
d="M622 1500q222 0 383.5 -98.5t249 -268.5t87.5 -383q0 -160 -52 -296.5t-148 -238.5t-228.5 -158.5t-291.5 -56.5h-560v39h180v1422h-180v39h560zM433 39h189q138 0 232 59t151 160t82 228.5t25 263.5t-28 263.5t-87 228.5t-152 160t-223 59h-189v-1422z" />
    <glyph glyph-name="Eth" unicode="&#xd0;" horiz-adv-x="1452" 
d="M86 731v38h620v-38h-620zM622 1500q222 0 383.5 -98.5t249 -268.5t87.5 -383q0 -160 -52 -296.5t-148 -238.5t-228.5 -158.5t-291.5 -56.5h-560v39h180v1422h-180v39h560zM433 39h189q138 0 232 59t151 160t82 228.5t25 263.5t-28 263.5t-87 228.5t-152 160t-223 59h-189
v-1422z" />
    <glyph glyph-name="Dcaron" unicode="&#x10e;" horiz-adv-x="1452" 
d="M622 1500q222 0 383.5 -98.5t249 -268.5t87.5 -383q0 -160 -52 -296.5t-148 -238.5t-228.5 -158.5t-291.5 -56.5h-560v39h180v1422h-180v39h560zM433 39h189q138 0 232 59t151 160t82 228.5t25 263.5t-28 263.5t-87 228.5t-152 160t-223 59h-189v-1422zM546 1700
l-220 221l21 19l263 -150l265 150l21 -19l-220 -221h-130z" />
    <glyph glyph-name="Dcroat" unicode="&#x110;" horiz-adv-x="1452" 
d="M86 731v38h620v-38h-620zM622 1500q222 0 383.5 -98.5t249 -268.5t87.5 -383q0 -160 -52 -296.5t-148 -238.5t-228.5 -158.5t-291.5 -56.5h-560v39h180v1422h-180v39h560zM433 39h189q138 0 232 59t151 160t82 228.5t25 263.5t-28 263.5t-87 228.5t-152 160t-223 59h-189
v-1422z" />
    <glyph glyph-name="E" unicode="E" horiz-adv-x="1237" 
d="M62 0v39h180v1422h-180v39h1067v-410h-39q0 107 -30.5 191t-100 132t-186.5 48h-340v-1422h319q137 0 215 50t110.5 142t32.5 219h39v-450h-1087zM750 557q0 67 -26 111t-70.5 66t-101.5 22h-167v39h167q57 0 101.5 20t70.5 62t26 109h39v-429h-39z" />
    <glyph glyph-name="Eacute" unicode="&#xc9;" horiz-adv-x="1237" 
d="M62 0v39h180v1422h-180v39h1067v-410h-39q0 107 -30.5 191t-100 132t-186.5 48h-340v-1422h319q137 0 215 50t110.5 142t32.5 219h39v-450h-1087zM750 557q0 67 -26 111t-70.5 66t-101.5 22h-167v39h167q57 0 101.5 20t70.5 62t26 109h39v-429h-39zM589 1681l-24 27
l202 218q19 21 41.5 23.5t41.5 -7.5t29 -27q9 -16 8.5 -36t-10 -36.5t-25.5 -25.5z" />
    <glyph glyph-name="Ebreve" unicode="&#x114;" horiz-adv-x="1237" 
d="M62 0v39h180v1422h-180v39h1067v-410h-39q0 107 -30.5 191t-100 132t-186.5 48h-340v-1422h319q137 0 215 50t110.5 142t32.5 219h39v-450h-1087zM750 557q0 67 -26 111t-70.5 66t-101.5 22h-167v39h167q57 0 101.5 20t70.5 62t26 109h39v-429h-39zM649 1680
q-90 0 -137 39t-64 98.5t-17 120.5h21q0 -49 27 -82t72 -49.5t98 -16.5q54 0 99 16.5t72.5 49.5t27.5 82h22q0 -61 -17.5 -120.5t-65.5 -98.5t-138 -39z" />
    <glyph glyph-name="Ecaron" unicode="&#x11a;" horiz-adv-x="1237" 
d="M62 0v39h180v1422h-180v39h1067v-410h-39q0 107 -30.5 191t-100 132t-186.5 48h-340v-1422h319q137 0 215 50t110.5 142t32.5 219h39v-450h-1087zM750 557q0 67 -26 111t-70.5 66t-101.5 22h-167v39h167q57 0 101.5 20t70.5 62t26 109h39v-429h-39zM586 1700l-220 221
l21 19l263 -150l265 150l21 -19l-220 -221h-130z" />
    <glyph glyph-name="Ecircumflex" unicode="&#xca;" horiz-adv-x="1237" 
d="M62 0v39h180v1422h-180v39h1067v-410h-39q0 107 -30.5 191t-100 132t-186.5 48h-340v-1422h319q137 0 215 50t110.5 142t32.5 219h39v-450h-1087zM750 557q0 67 -26 111t-70.5 66t-101.5 22h-167v39h167q57 0 101.5 20t70.5 62t26 109h39v-429h-39zM386 1698l-20 21
l220 220h130l220 -220l-20 -21l-266 151z" />
    <glyph glyph-name="Edieresis" unicode="&#xcb;" horiz-adv-x="1237" 
d="M62 0v39h180v1422h-180v39h1067v-410h-39q0 107 -30.5 191t-100 132t-186.5 48h-340v-1422h319q137 0 215 50t110.5 142t32.5 219h39v-450h-1087zM750 557q0 67 -26 111t-70.5 66t-101.5 22h-167v39h167q57 0 101.5 20t70.5 62t26 109h39v-429h-39zM809 1690
q-40 0 -68 28t-28 68t28 68.5t68 28.5t68 -28.5t28 -68.5t-28 -68t-68 -28zM489 1690q-40 0 -68 28t-28 68t28 68.5t68 28.5t68 -28.5t28 -68.5t-28 -68t-68 -28z" />
    <glyph glyph-name="Edotaccent" unicode="&#x116;" horiz-adv-x="1237" 
d="M62 0v39h180v1422h-180v39h1067v-410h-39q0 107 -30.5 191t-100 132t-186.5 48h-340v-1422h319q137 0 215 50t110.5 142t32.5 219h39v-450h-1087zM750 557q0 67 -26 111t-70.5 66t-101.5 22h-167v39h167q57 0 101.5 20t70.5 62t26 109h39v-429h-39zM651 1854
q-50 0 -85 35.5t-35 85.5q0 49 35 84.5t85 35.5q49 0 84.5 -35.5t35.5 -84.5q0 -50 -35.5 -85.5t-84.5 -35.5z" />
    <glyph glyph-name="Egrave" unicode="&#xc8;" horiz-adv-x="1237" 
d="M62 0v39h180v1422h-180v39h1067v-410h-39q0 107 -30.5 191t-100 132t-186.5 48h-340v-1422h319q137 0 215 50t110.5 142t32.5 219h39v-450h-1087zM750 557q0 67 -26 111t-70.5 66t-101.5 22h-167v39h167q57 0 101.5 20t70.5 62t26 109h39v-429h-39zM710 1681l-263 136
q-16 9 -25.5 25.5t-10 36.5t8.5 36q10 17 29 27t41.5 7.5t41.5 -23.5l202 -218z" />
    <glyph glyph-name="Emacron" unicode="&#x112;" horiz-adv-x="1237" 
d="M62 0v39h180v1422h-180v39h1067v-410h-39q0 107 -30.5 191t-100 132t-186.5 48h-340v-1422h319q137 0 215 50t110.5 142t32.5 219h39v-450h-1087zM750 557q0 67 -26 111t-70.5 66t-101.5 22h-167v39h167q57 0 101.5 20t70.5 62t26 109h39v-429h-39zM410 1700v39h480v-39
h-480z" />
    <glyph glyph-name="Eogonek" unicode="&#x118;" horiz-adv-x="1237" 
d="M62 0v39h180v1422h-180v39h1067v-410h-39q0 107 -30.5 191t-100 132t-186.5 48h-340v-1422h319q137 0 215 50t110.5 142t32.5 219h39v-450h-1087zM750 557q0 67 -26 111t-70.5 66t-101.5 22h-167v39h167q57 0 101.5 20t70.5 62t26 109h39v-429h-39zM915 -419
q-51 0 -101 18t-82.5 56t-32.5 98t25.5 106.5t67.5 81t91 58.5t96 39l12 -21q-31 -17 -55 -49.5t-37.5 -77t-13.5 -97.5q0 -63 26.5 -104t77.5 -41q48 0 78 28.5t52 67.5l25 -18q-15 -28 -41.5 -62t-71.5 -58.5t-116 -24.5z" />
    <glyph glyph-name="F" unicode="F" horiz-adv-x="1197" 
d="M769 536q0 67 -25.5 109t-79.5 62t-141 20h-131v38h131q87 0 141 17.5t79.5 56.5t25.5 106h40v-409h-40zM1109 1500v-410h-39q0 107 -31 191t-100.5 132t-186.5 48h-319v-1422h199v-39h-570v39h180v1422h-180v39h1047z" />
    <glyph glyph-name="G" unicode="G" horiz-adv-x="1478" 
d="M890 592h541v-44h-121v-218q-23 -47 -66 -107t-109.5 -115.5t-159 -91.5t-214.5 -36q-208 0 -353.5 99.5t-221 273.5t-75.5 397q0 167 48.5 307.5t138.5 244.5t215 161t277 57q99 0 189.5 -34.5t158.5 -95.5l105 110h35v-410h-40q-4 89 -40 159.5t-95.5 120.5t-135 76.5
t-157.5 26.5q-130 0 -220 -61t-145 -164.5t-80 -232.5t-25 -265t18.5 -266.5t65 -235t128.5 -166.5t209 -62q93 0 155 29t100 69.5t57.5 78t27.5 53.5v298h-211v44z" />
    <glyph glyph-name="Gbreve" unicode="&#x11e;" horiz-adv-x="1478" 
d="M890 592h541v-44h-121v-218q-23 -47 -66 -107t-109.5 -115.5t-159 -91.5t-214.5 -36q-208 0 -353.5 99.5t-221 273.5t-75.5 397q0 167 48.5 307.5t138.5 244.5t215 161t277 57q99 0 189.5 -34.5t158.5 -95.5l105 110h35v-410h-40q-4 89 -40 159.5t-95.5 120.5t-135 76.5
t-157.5 26.5q-130 0 -220 -61t-145 -164.5t-80 -232.5t-25 -265t18.5 -266.5t65 -235t128.5 -166.5t209 -62q93 0 155 29t100 69.5t57.5 78t27.5 53.5v298h-211v44zM791 1680q-90 0 -137 39t-64 98.5t-17 120.5h21q0 -49 27 -82t72 -49.5t98 -16.5q54 0 99 16.5t72.5 49.5
t27.5 82h22q0 -61 -17.5 -120.5t-65.5 -98.5t-138 -39z" />
    <glyph glyph-name="Gcircumflex" unicode="&#x11c;" horiz-adv-x="1478" 
d="M890 592h541v-44h-121v-218q-23 -47 -66 -107t-109.5 -115.5t-159 -91.5t-214.5 -36q-208 0 -353.5 99.5t-221 273.5t-75.5 397q0 167 48.5 307.5t138.5 244.5t215 161t277 57q99 0 189.5 -34.5t158.5 -95.5l105 110h35v-410h-40q-4 89 -40 159.5t-95.5 120.5t-135 76.5
t-157.5 26.5q-130 0 -220 -61t-145 -164.5t-80 -232.5t-25 -265t18.5 -266.5t65 -235t128.5 -166.5t209 -62q93 0 155 29t100 69.5t57.5 78t27.5 53.5v298h-211v44zM528 1698l-20 21l220 220h130l220 -220l-20 -21l-266 151z" />
    <glyph glyph-name="uni0122" unicode="&#x122;" horiz-adv-x="1478" 
d="M890 592h541v-44h-121v-218q-23 -47 -66 -107t-109.5 -115.5t-159 -91.5t-214.5 -36q-208 0 -353.5 99.5t-221 273.5t-75.5 397q0 167 48.5 307.5t138.5 244.5t215 161t277 57q99 0 189.5 -34.5t158.5 -95.5l105 110h35v-410h-40q-4 89 -40 159.5t-95.5 120.5t-135 76.5
t-157.5 26.5q-130 0 -220 -61t-145 -164.5t-80 -232.5t-25 -265t18.5 -266.5t65 -235t128.5 -166.5t209 -62q93 0 155 29t100 69.5t57.5 78t27.5 53.5v298h-211v44zM656 -616v33q62 0 107 37t66 97.5t11 131.5h11q2 -14 -9.5 -31t-32.5 -29t-49 -12q-52 0 -76.5 27.5
t-24.5 66.5q0 27 14 48.5t38.5 34t54.5 12.5q47 0 79.5 -39.5t32.5 -115.5q0 -64 -25.5 -124t-75 -98.5t-121.5 -38.5z" />
    <glyph glyph-name="Gdotaccent" unicode="&#x120;" horiz-adv-x="1478" 
d="M890 592h541v-44h-121v-218q-23 -47 -66 -107t-109.5 -115.5t-159 -91.5t-214.5 -36q-208 0 -353.5 99.5t-221 273.5t-75.5 397q0 167 48.5 307.5t138.5 244.5t215 161t277 57q99 0 189.5 -34.5t158.5 -95.5l105 110h35v-410h-40q-4 89 -40 159.5t-95.5 120.5t-135 76.5
t-157.5 26.5q-130 0 -220 -61t-145 -164.5t-80 -232.5t-25 -265t18.5 -266.5t65 -235t128.5 -166.5t209 -62q93 0 155 29t100 69.5t57.5 78t27.5 53.5v298h-211v44zM793 1854q-50 0 -85 35.5t-35 85.5q0 49 35 84.5t85 35.5q49 0 84.5 -35.5t35.5 -84.5q0 -50 -35.5 -85.5
t-84.5 -35.5z" />
    <glyph glyph-name="H" unicode="H" horiz-adv-x="1524" 
d="M1462 1500v-39h-180v-1422h180v-39h-570v39h200v681h-659v-681h199v-39h-570v39h180v1422h-180v39h570v-39h-199v-701h659v701h-200v39h570z" />
    <glyph glyph-name="Hbar" unicode="&#x126;" horiz-adv-x="1524" 
d="M62 1094v39h1400v-39h-1400zM1462 1500v-39h-180v-1422h180v-39h-570v39h200v681h-659v-681h199v-39h-570v39h180v1422h-180v39h570v-39h-199v-701h659v701h-200v39h570z" />
    <glyph glyph-name="Hcircumflex" unicode="&#x124;" horiz-adv-x="1524" 
d="M1462 1500v-39h-180v-1422h180v-39h-570v39h200v681h-659v-681h199v-39h-570v39h180v1422h-180v39h570v-39h-199v-701h659v701h-200v39h570zM500 1698l-20 21l220 220h130l220 -220l-20 -21l-266 151z" />
    <glyph glyph-name="I" unicode="I" horiz-adv-x="774" 
d="M62 0v39h220v1422h-220v39h650v-39h-240v-1422h240v-39h-650z" />
    <glyph glyph-name="IJ" unicode="&#x132;" horiz-adv-x="1713" 
d="M62 0v39h220v1422h-220v39h650v-39h-240v-1422h240v-39h-650zM1599 1500v-39h-200v-1121q-15 -53 -40 -121t-65 -132t-100 -106t-145 -42q-77 0 -131 33t-82.5 83t-28.5 100q0 42 15.5 71t41.5 44t57 15q25 0 51 -12t44 -38t18 -67q0 -40 -18 -65t-46 -36t-58 -8
q-15 2 -29.5 13.5t-18.5 29.5q11 -31 35.5 -58.5t60 -45t80.5 -17.5q71 0 107.5 41.5t49.5 130t13 227.5v1081h-260v39h649z" />
    <glyph glyph-name="Iacute" unicode="&#xcd;" horiz-adv-x="774" 
d="M62 0v39h220v1422h-220v39h650v-39h-240v-1422h240v-39h-650zM320 1681l-24 27l202 218q19 21 41.5 23.5t41.5 -7.5t29 -27q9 -16 8.5 -36t-10 -36.5t-25.5 -25.5z" />
    <glyph glyph-name="Ibreve" unicode="&#x12c;" horiz-adv-x="774" 
d="M62 0v39h220v1422h-220v39h650v-39h-240v-1422h240v-39h-650zM380 1680q-90 0 -137 39t-64 98.5t-17 120.5h21q0 -49 27 -82t72 -49.5t98 -16.5q54 0 99 16.5t72.5 49.5t27.5 82h22q0 -61 -17.5 -120.5t-65.5 -98.5t-138 -39z" />
    <glyph glyph-name="Icircumflex" unicode="&#xce;" horiz-adv-x="774" 
d="M62 0v39h220v1422h-220v39h650v-39h-240v-1422h240v-39h-650zM116 1698l-20 21l220 220h130l220 -220l-20 -21l-266 151z" />
    <glyph glyph-name="Idieresis" unicode="&#xcf;" horiz-adv-x="774" 
d="M62 0v39h220v1422h-220v39h650v-39h-240v-1422h240v-39h-650zM539 1690q-40 0 -68 28t-28 68t28 68.5t68 28.5t68 -28.5t28 -68.5t-28 -68t-68 -28zM219 1690q-40 0 -68 28t-28 68t28 68.5t68 28.5t68 -28.5t28 -68.5t-28 -68t-68 -28z" />
    <glyph glyph-name="Idotaccent" unicode="&#x130;" horiz-adv-x="774" 
d="M62 0v39h220v1422h-220v39h650v-39h-240v-1422h240v-39h-650zM381 1854q-50 0 -85 35.5t-35 85.5q0 49 35 84.5t85 35.5q49 0 84.5 -35.5t35.5 -84.5q0 -50 -35.5 -85.5t-84.5 -35.5z" />
    <glyph glyph-name="Igrave" unicode="&#xcc;" horiz-adv-x="774" 
d="M62 0v39h220v1422h-220v39h650v-39h-240v-1422h240v-39h-650zM441 1681l-263 136q-16 9 -25.5 25.5t-10 36.5t8.5 36q10 17 29 27t41.5 7.5t41.5 -23.5l202 -218z" />
    <glyph glyph-name="Imacron" unicode="&#x12a;" horiz-adv-x="774" 
d="M62 0v39h220v1422h-220v39h650v-39h-240v-1422h240v-39h-650zM140 1700v39h480v-39h-480z" />
    <glyph glyph-name="Iogonek" unicode="&#x12e;" horiz-adv-x="774" 
d="M62 0v39h220v1422h-220v39h650v-39h-240v-1422h240v-39h-650zM375 -419q-51 0 -101 18t-82.5 56t-32.5 98t25.5 106.5t67.5 81t91 58.5t96 39l12 -21q-31 -17 -55 -49.5t-37.5 -77t-13.5 -97.5q0 -63 26.5 -104t77.5 -41q48 0 78 28.5t52 67.5l25 -18q-15 -28 -41.5 -62
t-71.5 -58.5t-116 -24.5z" />
    <glyph glyph-name="Itilde" unicode="&#x128;" horiz-adv-x="774" 
d="M62 0v39h220v1422h-220v39h650v-39h-240v-1422h240v-39h-650zM542 1680q-57 0 -101.5 24t-82.5 55t-75.5 55t-80.5 24q-50 0 -88 -30t-38 -108h-40q0 85 32 141.5t80.5 84.5t97.5 28q59 0 102.5 -24t78.5 -55t68 -55t71 -24q57 0 92 30t35 108h39q0 -95 -23 -150.5
t-65.5 -79.5t-101.5 -24z" />
    <glyph glyph-name="J" unicode="J" horiz-adv-x="900" 
d="M839 1500v-39h-200v-1121q-15 -53 -40 -121t-65 -132t-100 -106t-145 -42q-77 0 -131 33t-82.5 83t-28.5 100q0 42 15.5 71t41.5 44t57 15q25 0 51 -12t44 -38t18 -67q0 -40 -18 -65t-46 -36t-58 -8q-15 2 -29.5 13.5t-18.5 29.5q11 -31 35.5 -58.5t60 -45t80.5 -17.5
q71 0 107.5 41.5t49.5 130t13 227.5v1081h-260v39h649z" />
    <glyph glyph-name="Jcircumflex" unicode="&#x134;" horiz-adv-x="900" 
d="M839 1500v-39h-200v-1121q-15 -53 -40 -121t-65 -132t-100 -106t-145 -42q-77 0 -131 33t-82.5 83t-28.5 100q0 42 15.5 71t41.5 44t57 15q25 0 51 -12t44 -38t18 -67q0 -40 -18 -65t-46 -36t-58 -8q-15 2 -29.5 13.5t-18.5 29.5q11 -31 35.5 -58.5t60 -45t80.5 -17.5
q71 0 107.5 41.5t49.5 130t13 227.5v1081h-260v39h649zM253 1698l-20 21l220 220h130l220 -220l-20 -21l-266 151z" />
    <glyph glyph-name="K" unicode="K" horiz-adv-x="1410" 
d="M256 434l762 1027h-216v39h480v-39h-207l-762 -1027h-57zM62 0v39h180v1422h-180v39h570v-39h-199v-1422h199v-39h-570zM752 0v39h202l-421 747l124 155l536 -902h179v-39h-620z" />
    <glyph glyph-name="uni0136" unicode="&#x136;" horiz-adv-x="1410" 
d="M256 434l762 1027h-216v39h480v-39h-207l-762 -1027h-57zM62 0v39h180v1422h-180v39h570v-39h-199v-1422h199v-39h-570zM752 0v39h202l-421 747l124 155l536 -902h179v-39h-620zM584 -616v33q62 0 107 37t66 97.5t11 131.5h11q2 -14 -9.5 -31t-32.5 -29t-49 -12
q-52 0 -76.5 27.5t-24.5 66.5q0 27 14 48.5t38.5 34t54.5 12.5q47 0 79.5 -39.5t32.5 -115.5q0 -64 -25.5 -124t-75 -98.5t-121.5 -38.5z" />
    <glyph glyph-name="L" unicode="L" horiz-adv-x="1207" 
d="M62 0v39h180v1422h-180v39h550v-39h-179v-1422h309q118 0 189 28.5t107.5 82t48.5 129.5t12 171h40v-450h-1077z" />
    <glyph glyph-name="Lacute" unicode="&#x139;" horiz-adv-x="1207" 
d="M62 0v39h180v1422h-180v39h550v-39h-179v-1422h309q118 0 189 28.5t107.5 82t48.5 129.5t12 171h40v-450h-1077zM279 1681l-24 27l202 218q19 21 41.5 23.5t41.5 -7.5t29 -27q9 -16 8.5 -36t-10 -36.5t-25.5 -25.5z" />
    <glyph glyph-name="Lcaron" unicode="&#x13d;" horiz-adv-x="1207" 
d="M62 0v39h180v1422h-180v39h550v-39h-179v-1422h309q118 0 189 28.5t107.5 82t48.5 129.5t12 171h40v-450h-1077zM780 1003v40q58 0 104.5 27t78 73.5t44.5 106.5t3 126h13q3 -17 -11 -38t-40.5 -36.5t-61.5 -15.5q-64 0 -95 34.5t-31 83.5q0 50 38.5 84t95.5 34
q59 0 99.5 -49t40.5 -144q0 -80 -32 -155t-94 -123t-152 -48z" />
    <glyph glyph-name="uni013B" unicode="&#x13b;" horiz-adv-x="1207" 
d="M62 0v39h180v1422h-180v39h550v-39h-179v-1422h309q118 0 189 28.5t107.5 82t48.5 129.5t12 171h40v-450h-1077zM485 -616v33q62 0 107 37t66 97.5t11 131.5h11q2 -14 -9.5 -31t-32.5 -29t-49 -12q-52 0 -76.5 27.5t-24.5 66.5q0 27 14 48.5t38.5 34t54.5 12.5
q47 0 79.5 -39.5t32.5 -115.5q0 -64 -25.5 -124t-75 -98.5t-121.5 -38.5z" />
    <glyph glyph-name="Ldot" unicode="&#x13f;" horiz-adv-x="1207" 
d="M62 0v39h180v1422h-180v39h550v-39h-179v-1422h309q118 0 189 28.5t107.5 82t48.5 129.5t12 171h40v-450h-1077zM958 680q-33 0 -60 16t-43.5 43.5t-16.5 60.5t16.5 60.5t43.5 44t60 16.5t60.5 -16.5t43.5 -44t16 -60.5t-16 -60.5t-43.5 -43.5t-60.5 -16z" />
    <glyph glyph-name="Lslash" unicode="&#x141;" horiz-adv-x="1207" 
d="M75 674v47l690 439v-46zM62 0v39h180v1422h-180v39h550v-39h-179v-1422h309q118 0 189 28.5t107.5 82t48.5 129.5t12 171h40v-450h-1077z" />
    <glyph glyph-name="M" unicode="M" horiz-adv-x="1745" 
d="M791 -20l-556 1520h192l463 -1251l433 1251h42l-525 -1520h-49zM255 1500v-1461h148v-39h-331v39h142v1422h-152v39h193zM1684 1500v-39h-140v-1422h140v-39h-491v39h161v1461h330z" />
    <glyph glyph-name="N" unicode="N" horiz-adv-x="1547" 
d="M308 1500v-1461h236v-39h-482v39h205v1422h-205v39h246zM1486 1500v-39h-211v-1481h-54l-942 1520h230l726 -1191v1152h-231v39h482z" />
    <glyph glyph-name="Nacute" unicode="&#x143;" horiz-adv-x="1547" 
d="M308 1500v-1461h236v-39h-482v39h205v1422h-205v39h246zM1486 1500v-39h-211v-1481h-54l-942 1520h230l726 -1191v1152h-231v39h482zM747 1681l-24 27l202 218q19 21 41.5 23.5t41.5 -7.5t29 -27q9 -16 8.5 -36t-10 -36.5t-25.5 -25.5z" />
    <glyph glyph-name="Ncaron" unicode="&#x147;" horiz-adv-x="1547" 
d="M308 1500v-1461h236v-39h-482v39h205v1422h-205v39h246zM1486 1500v-39h-211v-1481h-54l-942 1520h230l726 -1191v1152h-231v39h482zM743 1700l-220 221l21 19l263 -150l265 150l21 -19l-220 -221h-130z" />
    <glyph glyph-name="uni0145" unicode="&#x145;" horiz-adv-x="1547" 
d="M308 1500v-1461h236v-39h-482v39h205v1422h-205v39h246zM1486 1500v-39h-211v-1481h-54l-942 1520h230l726 -1191v1152h-231v39h482zM620 -616v33q62 0 107 37t66 97.5t11 131.5h11q2 -14 -9.5 -31t-32.5 -29t-49 -12q-52 0 -76.5 27.5t-24.5 66.5q0 27 14 48.5t38.5 34
t54.5 12.5q47 0 79.5 -39.5t32.5 -115.5q0 -64 -25.5 -124t-75 -98.5t-121.5 -38.5z" />
    <glyph glyph-name="Eng" unicode="&#x14a;" horiz-adv-x="1553" 
d="M978 -520q-96 0 -162 33.5t-100 86t-34 108.5q0 62 34 93t80 31q25 0 50.5 -10.5t43 -34t17.5 -63.5q0 -38 -28.5 -73.5t-78.5 -35.5q-29 0 -55.5 11t-43.5 31.5t-17 50.5h38q0 -46 29 -89.5t83.5 -71t132.5 -27.5q68 0 107 44.5t58 120t24.5 168t5.5 187.5v952
q0 93 -23 176.5t-68.5 148.5t-111 102t-150.5 37q-105 0 -183 -42t-129.5 -108t-77.5 -139t-26 -136h-25q0 50 16 113.5t50.5 129t90 121.5t134.5 90t183 34q170 0 280.5 -69.5t165 -181.5t54.5 -239l-1 -1052q0 -97 -16.5 -186.5t-56.5 -159.5t-110.5 -110.5t-179.5 -40.5z
M82 0v39h449v-39h-449zM222 0v1461h-140v39h311v-1500h-171z" />
    <glyph glyph-name="Ntilde" unicode="&#xd1;" horiz-adv-x="1547" 
d="M308 1500v-1461h236v-39h-482v39h205v1422h-205v39h246zM1486 1500v-39h-211v-1481h-54l-942 1520h230l726 -1191v1152h-231v39h482zM969 1680q-57 0 -101.5 24t-82.5 55t-75.5 55t-80.5 24q-50 0 -88 -30t-38 -108h-40q0 85 32 141.5t80.5 84.5t97.5 28q59 0 102.5 -24
t78.5 -55t68 -55t71 -24q57 0 92 30t35 108h39q0 -95 -23 -150.5t-65.5 -79.5t-101.5 -24z" />
    <glyph glyph-name="O" unicode="O" horiz-adv-x="1500" 
d="M751 -20q-153 0 -271.5 59.5t-201 165.5t-125 245.5t-42.5 299.5t45 299.5t129.5 245.5t202.5 165.5t263 59.5t262.5 -59.5t202 -165.5t129.5 -245.5t45 -299.5t-42.5 -299.5t-125 -245.5t-201 -165.5t-270.5 -59.5zM751 16q130 0 211 62.5t124 168t59 236.5t16 267
t-18.5 267t-64 236.5t-125 168t-202.5 62.5t-203 -62.5t-125.5 -168t-64 -236.5t-18.5 -267t16 -267t59 -236.5t124 -168t212 -62.5z" />
    <glyph glyph-name="Oacute" unicode="&#xd3;" horiz-adv-x="1500" 
d="M751 -20q-153 0 -271.5 59.5t-201 165.5t-125 245.5t-42.5 299.5t45 299.5t129.5 245.5t202.5 165.5t263 59.5t262.5 -59.5t202 -165.5t129.5 -245.5t45 -299.5t-42.5 -299.5t-125 -245.5t-201 -165.5t-270.5 -59.5zM751 16q130 0 211 62.5t124 168t59 236.5t16 267
t-18.5 267t-64 236.5t-125 168t-202.5 62.5t-203 -62.5t-125.5 -168t-64 -236.5t-18.5 -267t16 -267t59 -236.5t124 -168t212 -62.5zM690 1681l-24 27l202 218q19 21 41.5 23.5t41.5 -7.5t29 -27q9 -16 8.5 -36t-10 -36.5t-25.5 -25.5z" />
    <glyph glyph-name="Obreve" unicode="&#x14e;" horiz-adv-x="1500" 
d="M751 -20q-153 0 -271.5 59.5t-201 165.5t-125 245.5t-42.5 299.5t45 299.5t129.5 245.5t202.5 165.5t263 59.5t262.5 -59.5t202 -165.5t129.5 -245.5t45 -299.5t-42.5 -299.5t-125 -245.5t-201 -165.5t-270.5 -59.5zM751 16q130 0 211 62.5t124 168t59 236.5t16 267
t-18.5 267t-64 236.5t-125 168t-202.5 62.5t-203 -62.5t-125.5 -168t-64 -236.5t-18.5 -267t16 -267t59 -236.5t124 -168t212 -62.5zM750 1680q-90 0 -137 39t-64 98.5t-17 120.5h21q0 -49 27 -82t72 -49.5t98 -16.5q54 0 99 16.5t72.5 49.5t27.5 82h22q0 -61 -17.5 -120.5
t-65.5 -98.5t-138 -39z" />
    <glyph glyph-name="Ocircumflex" unicode="&#xd4;" horiz-adv-x="1500" 
d="M751 -20q-153 0 -271.5 59.5t-201 165.5t-125 245.5t-42.5 299.5t45 299.5t129.5 245.5t202.5 165.5t263 59.5t262.5 -59.5t202 -165.5t129.5 -245.5t45 -299.5t-42.5 -299.5t-125 -245.5t-201 -165.5t-270.5 -59.5zM751 16q130 0 211 62.5t124 168t59 236.5t16 267
t-18.5 267t-64 236.5t-125 168t-202.5 62.5t-203 -62.5t-125.5 -168t-64 -236.5t-18.5 -267t16 -267t59 -236.5t124 -168t212 -62.5zM487 1698l-20 21l220 220h130l220 -220l-20 -21l-266 151z" />
    <glyph glyph-name="Odieresis" unicode="&#xd6;" horiz-adv-x="1500" 
d="M751 -20q-153 0 -271.5 59.5t-201 165.5t-125 245.5t-42.5 299.5t45 299.5t129.5 245.5t202.5 165.5t263 59.5t262.5 -59.5t202 -165.5t129.5 -245.5t45 -299.5t-42.5 -299.5t-125 -245.5t-201 -165.5t-270.5 -59.5zM751 16q130 0 211 62.5t124 168t59 236.5t16 267
t-18.5 267t-64 236.5t-125 168t-202.5 62.5t-203 -62.5t-125.5 -168t-64 -236.5t-18.5 -267t16 -267t59 -236.5t124 -168t212 -62.5zM910 1690q-40 0 -68 28t-28 68t28 68.5t68 28.5t68 -28.5t28 -68.5t-28 -68t-68 -28zM590 1690q-40 0 -68 28t-28 68t28 68.5t68 28.5
t68 -28.5t28 -68.5t-28 -68t-68 -28z" />
    <glyph glyph-name="Ograve" unicode="&#xd2;" horiz-adv-x="1500" 
d="M751 -20q-153 0 -271.5 59.5t-201 165.5t-125 245.5t-42.5 299.5t45 299.5t129.5 245.5t202.5 165.5t263 59.5t262.5 -59.5t202 -165.5t129.5 -245.5t45 -299.5t-42.5 -299.5t-125 -245.5t-201 -165.5t-270.5 -59.5zM751 16q130 0 211 62.5t124 168t59 236.5t16 267
t-18.5 267t-64 236.5t-125 168t-202.5 62.5t-203 -62.5t-125.5 -168t-64 -236.5t-18.5 -267t16 -267t59 -236.5t124 -168t212 -62.5zM811 1681l-263 136q-16 9 -25.5 25.5t-10 36.5t8.5 36q10 17 29 27t41.5 7.5t41.5 -23.5l202 -218z" />
    <glyph glyph-name="Ohungarumlaut" unicode="&#x150;" horiz-adv-x="1500" 
d="M751 -20q-153 0 -271.5 59.5t-201 165.5t-125 245.5t-42.5 299.5t45 299.5t129.5 245.5t202.5 165.5t263 59.5t262.5 -59.5t202 -165.5t129.5 -245.5t45 -299.5t-42.5 -299.5t-125 -245.5t-201 -165.5t-270.5 -59.5zM751 16q130 0 211 62.5t124 168t59 236.5t16 267
t-18.5 267t-64 236.5t-125 168t-202.5 62.5t-203 -62.5t-125.5 -168t-64 -236.5t-18.5 -267t16 -267t59 -236.5t124 -168t212 -62.5zM490 1681l-24 27l202 218q19 21 41.5 23.5t41.5 -7.5t29 -27q9 -16 8.5 -36t-10 -36.5t-25.5 -25.5zM900 1681l-24 27l202 218
q19 21 41.5 23.5t41.5 -7.5t29 -27q9 -16 8.5 -36t-10 -36.5t-25.5 -25.5z" />
    <glyph glyph-name="Omacron" unicode="&#x14c;" horiz-adv-x="1500" 
d="M751 -20q-153 0 -271.5 59.5t-201 165.5t-125 245.5t-42.5 299.5t45 299.5t129.5 245.5t202.5 165.5t263 59.5t262.5 -59.5t202 -165.5t129.5 -245.5t45 -299.5t-42.5 -299.5t-125 -245.5t-201 -165.5t-270.5 -59.5zM751 16q130 0 211 62.5t124 168t59 236.5t16 267
t-18.5 267t-64 236.5t-125 168t-202.5 62.5t-203 -62.5t-125.5 -168t-64 -236.5t-18.5 -267t16 -267t59 -236.5t124 -168t212 -62.5zM511 1700v39h480v-39h-480z" />
    <glyph glyph-name="Oslash" unicode="&#xd8;" horiz-adv-x="1500" 
d="M322 -200l858 1861h39l-858 -1861h-39zM751 -20q-153 0 -271.5 59.5t-201 165.5t-125 245.5t-42.5 299.5t45 299.5t129.5 245.5t202.5 165.5t263 59.5t262.5 -59.5t202 -165.5t129.5 -245.5t45 -299.5t-42.5 -299.5t-125 -245.5t-201 -165.5t-270.5 -59.5zM751 16
q130 0 211 62.5t124 168t59 236.5t16 267t-18.5 267t-64 236.5t-125 168t-202.5 62.5t-203 -62.5t-125.5 -168t-64 -236.5t-18.5 -267t16 -267t59 -236.5t124 -168t212 -62.5z" />
    <glyph glyph-name="Otilde" unicode="&#xd5;" horiz-adv-x="1500" 
d="M751 -20q-153 0 -271.5 59.5t-201 165.5t-125 245.5t-42.5 299.5t45 299.5t129.5 245.5t202.5 165.5t263 59.5t262.5 -59.5t202 -165.5t129.5 -245.5t45 -299.5t-42.5 -299.5t-125 -245.5t-201 -165.5t-270.5 -59.5zM751 16q130 0 211 62.5t124 168t59 236.5t16 267
t-18.5 267t-64 236.5t-125 168t-202.5 62.5t-203 -62.5t-125.5 -168t-64 -236.5t-18.5 -267t16 -267t59 -236.5t124 -168t212 -62.5zM913 1680q-57 0 -101.5 24t-82.5 55t-75.5 55t-80.5 24q-50 0 -88 -30t-38 -108h-40q0 85 32 141.5t80.5 84.5t97.5 28q59 0 102.5 -24
t78.5 -55t68 -55t71 -24q57 0 92 30t35 108h39q0 -95 -23 -150.5t-65.5 -79.5t-101.5 -24z" />
    <glyph glyph-name="OE" unicode="&#x152;" horiz-adv-x="1940" 
d="M311 750q0 136 22.5 263.5t76 228.5t145 160t229.5 59l-19 39q-203 0 -357.5 -94.5t-241 -263.5t-86.5 -392t86.5 -392t241 -263.5t357.5 -94.5l19 39q-138 0 -229.5 59t-145 160t-76 228.5t-22.5 263.5zM763 0v39h180v1422h-180v39h1067v-410h-39q0 107 -30.5 191
t-100 132t-186.5 48h-340v-1422h319q137 0 215 50t110.5 142t32.5 219h39v-450h-1087zM1451 557q0 67 -26 111t-70.5 66t-101.5 22h-166v39h166q57 0 101.5 20t70.5 62t26 109h40v-429h-40z" />
    <glyph glyph-name="P" unicode="P" horiz-adv-x="1277" 
d="M652 1500q180 0 295 -53.5t170 -150.5t55 -227t-55 -224.5t-170 -145.5t-295 -51h-219v-609h179v-39h-550v39h180v1422h-180v39h590zM433 687h219q71 0 127 34t94.5 90t58.5 123.5t20 134.5t-20 136t-58.5 127t-94.5 93.5t-127 35.5h-219v-774z" />
    <glyph glyph-name="Thorn" unicode="&#xde;" horiz-adv-x="1209" 
d="M359 359v41h261q72 0 127.5 33.5t94 89.5t58.5 123t20 133q0 67 -20 134.5t-58.5 123.5t-94 90t-127.5 34h-261v39h261q271 0 396 -113t125 -308t-125 -307.5t-396 -112.5h-261zM29 0v39h551v-39h-551zM210 0v1500h190v-1500h-190zM29 1461v39h551v-39h-551z" />
    <glyph glyph-name="Q" unicode="Q" horiz-adv-x="1500" 
d="M1090 -500q-160 0 -252.5 29.5t-137 90t-57 154.5t-12.5 224q58 -7 114.5 -7t115.5 7q0 -136 8 -225.5t32 -140.5t69.5 -72t119.5 -21v-39zM751 -20q-153 0 -271.5 59.5t-201 165.5t-125 245.5t-42.5 299.5t45 299.5t129.5 245.5t202.5 165.5t263 59.5t262.5 -59.5
t202 -165.5t129.5 -245.5t45 -299.5t-42.5 -299.5t-125 -245.5t-201 -165.5t-270.5 -59.5zM751 16q130 0 211 62.5t124 168t59 236.5t16 267t-18.5 267t-64 236.5t-125 168t-202.5 62.5t-203 -62.5t-125.5 -168t-64 -236.5t-18.5 -267t16 -267t59 -236.5t124 -168t212 -62.5
z" />
    <glyph glyph-name="R" unicode="R" horiz-adv-x="1443" 
d="M422 754v23h300q96 0 163 39.5t102.5 115.5t35.5 185t-35.5 186t-102.5 117.5t-163 40.5h-660v39h660q151 0 263.5 -41.5t174.5 -126.5t62 -215t-58 -210t-169.5 -116.5t-272.5 -36.5h-300zM62 0v39h631v-39h-631zM282 21v1452h190v-1452h-190zM1212 -10
q-87 0 -135.5 31.5t-70.5 85t-27.5 120t-6.5 137.5t-8 137.5t-31 120t-76.5 85t-144.5 31.5h-290v21h330q143 0 227.5 -39.5t127.5 -104t58 -141.5t16.5 -154.5t5 -142t22 -103.5t68.5 -39q31 0 56 6.5t45 16.5l14 -37q-24 -13 -72 -22t-108 -9z" />
    <glyph glyph-name="Racute" unicode="&#x154;" horiz-adv-x="1443" 
d="M422 754v23h300q96 0 163 39.5t102.5 115.5t35.5 185t-35.5 186t-102.5 117.5t-163 40.5h-660v39h660q151 0 263.5 -41.5t174.5 -126.5t62 -215t-58 -210t-169.5 -116.5t-272.5 -36.5h-300zM62 0v39h631v-39h-631zM282 21v1452h190v-1452h-190zM1212 -10
q-87 0 -135.5 31.5t-70.5 85t-27.5 120t-6.5 137.5t-8 137.5t-31 120t-76.5 85t-144.5 31.5h-290v21h330q143 0 227.5 -39.5t127.5 -104t58 -141.5t16.5 -154.5t5 -142t22 -103.5t68.5 -39q31 0 56 6.5t45 16.5l14 -37q-24 -13 -72 -22t-108 -9zM601 1681l-24 27l202 218
q19 21 41.5 23.5t41.5 -7.5t29 -27q9 -16 8.5 -36t-10 -36.5t-25.5 -25.5z" />
    <glyph glyph-name="Rcaron" unicode="&#x158;" horiz-adv-x="1443" 
d="M422 754v23h300q96 0 163 39.5t102.5 115.5t35.5 185t-35.5 186t-102.5 117.5t-163 40.5h-660v39h660q151 0 263.5 -41.5t174.5 -126.5t62 -215t-58 -210t-169.5 -116.5t-272.5 -36.5h-300zM62 0v39h631v-39h-631zM282 21v1452h190v-1452h-190zM1212 -10
q-87 0 -135.5 31.5t-70.5 85t-27.5 120t-6.5 137.5t-8 137.5t-31 120t-76.5 85t-144.5 31.5h-290v21h330q143 0 227.5 -39.5t127.5 -104t58 -141.5t16.5 -154.5t5 -142t22 -103.5t68.5 -39q31 0 56 6.5t45 16.5l14 -37q-24 -13 -72 -22t-108 -9zM598 1700l-220 221l21 19
l263 -150l265 150l21 -19l-220 -221h-130z" />
    <glyph glyph-name="uni0156" unicode="&#x156;" horiz-adv-x="1443" 
d="M422 754v23h300q96 0 163 39.5t102.5 115.5t35.5 185t-35.5 186t-102.5 117.5t-163 40.5h-660v39h660q151 0 263.5 -41.5t174.5 -126.5t62 -215t-58 -210t-169.5 -116.5t-272.5 -36.5h-300zM62 0v39h631v-39h-631zM282 21v1452h190v-1452h-190zM1212 -10
q-87 0 -135.5 31.5t-70.5 85t-27.5 120t-6.5 137.5t-8 137.5t-31 120t-76.5 85t-144.5 31.5h-290v21h330q143 0 227.5 -39.5t127.5 -104t58 -141.5t16.5 -154.5t5 -142t22 -103.5t68.5 -39q31 0 56 6.5t45 16.5l14 -37q-24 -13 -72 -22t-108 -9zM640 -616v33q62 0 107 37
t66 97.5t11 131.5h11q2 -14 -9.5 -31t-32.5 -29t-49 -12q-52 0 -76.5 27.5t-24.5 66.5q0 27 14 48.5t38.5 34t54.5 12.5q47 0 79.5 -39.5t32.5 -115.5q0 -64 -25.5 -124t-75 -98.5t-121.5 -38.5z" />
    <glyph glyph-name="uni0212" unicode="&#x212;" horiz-adv-x="1443" 
d="M422 754v23h300q96 0 163 39.5t102.5 115.5t35.5 185t-35.5 186t-102.5 117.5t-163 40.5h-660v39h660q151 0 263.5 -41.5t174.5 -126.5t62 -215t-58 -210t-169.5 -116.5t-272.5 -36.5h-300zM62 0v39h631v-39h-631zM282 21v1452h190v-1452h-190zM1212 -10
q-87 0 -135.5 31.5t-70.5 85t-27.5 120t-6.5 137.5t-8 137.5t-31 120t-76.5 85t-144.5 31.5h-290v21h330q143 0 227.5 -39.5t127.5 -104t58 -141.5t16.5 -154.5t5 -142t22 -103.5t68.5 -39q31 0 56 6.5t45 16.5l14 -37q-24 -13 -72 -22t-108 -9zM445 1680q0 61 17.5 120.5
t65 98.5t137.5 39t137.5 -39t64.5 -98.5t17 -120.5h-22q0 49 -27 82t-71.5 49.5t-98.5 16.5t-99 -16.5t-72 -49.5t-27 -82h-22z" />
    <glyph glyph-name="S" unicode="S" horiz-adv-x="1152" 
d="M620 -29q-129 0 -223 40.5t-157 109.5l-93 -141h-34v411h39q16 -82 51 -151t90.5 -120t132 -79.5t176.5 -28.5q106 0 183.5 36t119.5 104.5t42 167.5q0 88 -43 148.5t-114.5 105t-156.5 82t-170 78.5t-156 95.5t-114.5 132t-43.5 188.5q0 110 56 193.5t150 130t209 46.5
q99 0 181.5 -31.5t144.5 -95.5l93 127h33v-411h-38q-20 125 -75.5 206.5t-137 121t-182.5 39.5q-143 0 -216.5 -67.5t-73.5 -178.5q0 -80 42.5 -135t112.5 -96t154 -78t168 -80t154 -100.5t112.5 -140t42.5 -200.5q0 -130 -56 -226.5t-159 -149.5t-244 -53z" />
    <glyph glyph-name="Sacute" unicode="&#x15a;" horiz-adv-x="1152" 
d="M620 -29q-129 0 -223 40.5t-157 109.5l-93 -141h-34v411h39q16 -82 51 -151t90.5 -120t132 -79.5t176.5 -28.5q106 0 183.5 36t119.5 104.5t42 167.5q0 88 -43 148.5t-114.5 105t-156.5 82t-170 78.5t-156 95.5t-114.5 132t-43.5 188.5q0 110 56 193.5t150 130t209 46.5
q99 0 181.5 -31.5t144.5 -95.5l93 127h33v-411h-38q-20 125 -75.5 206.5t-137 121t-182.5 39.5q-143 0 -216.5 -67.5t-73.5 -178.5q0 -80 42.5 -135t112.5 -96t154 -78t168 -80t154 -100.5t112.5 -140t42.5 -200.5q0 -130 -56 -226.5t-159 -149.5t-244 -53zM511 1681l-24 27
l202 218q19 21 41.5 23.5t41.5 -7.5t29 -27q9 -16 8.5 -36t-10 -36.5t-25.5 -25.5z" />
    <glyph glyph-name="Scaron" unicode="&#x160;" horiz-adv-x="1152" 
d="M620 -29q-129 0 -223 40.5t-157 109.5l-93 -141h-34v411h39q16 -82 51 -151t90.5 -120t132 -79.5t176.5 -28.5q106 0 183.5 36t119.5 104.5t42 167.5q0 88 -43 148.5t-114.5 105t-156.5 82t-170 78.5t-156 95.5t-114.5 132t-43.5 188.5q0 110 56 193.5t150 130t209 46.5
q99 0 181.5 -31.5t144.5 -95.5l93 127h33v-411h-38q-20 125 -75.5 206.5t-137 121t-182.5 39.5q-143 0 -216.5 -67.5t-73.5 -178.5q0 -80 42.5 -135t112.5 -96t154 -78t168 -80t154 -100.5t112.5 -140t42.5 -200.5q0 -130 -56 -226.5t-159 -149.5t-244 -53zM508 1700
l-220 221l21 19l263 -150l265 150l21 -19l-220 -221h-130z" />
    <glyph glyph-name="Scedilla" unicode="&#x15e;" horiz-adv-x="1152" 
d="M620 -29q-129 0 -223 40.5t-157 109.5l-93 -141h-34v411h39q16 -82 51 -151t90.5 -120t132 -79.5t176.5 -28.5q106 0 183.5 36t119.5 104.5t42 167.5q0 88 -43 148.5t-114.5 105t-156.5 82t-170 78.5t-156 95.5t-114.5 132t-43.5 188.5q0 110 56 193.5t150 130t209 46.5
q99 0 181.5 -31.5t144.5 -95.5l93 127h33v-411h-38q-20 125 -75.5 206.5t-137 121t-182.5 39.5q-143 0 -216.5 -67.5t-73.5 -178.5q0 -80 42.5 -135t112.5 -96t154 -78t168 -80t154 -100.5t112.5 -140t42.5 -200.5q0 -130 -56 -226.5t-159 -149.5t-244 -53zM463 -505v39
q89 0 142.5 31.5t53.5 78.5t-29 72t-79.5 34t-115.5 9l175 235h49l-116 -155q73 -3 131 -20t92.5 -51.5t34.5 -90.5q0 -50 -34 -91.5t-108.5 -66t-195.5 -24.5z" />
    <glyph glyph-name="Scircumflex" unicode="&#x15c;" horiz-adv-x="1152" 
d="M620 -29q-129 0 -223 40.5t-157 109.5l-93 -141h-34v411h39q16 -82 51 -151t90.5 -120t132 -79.5t176.5 -28.5q106 0 183.5 36t119.5 104.5t42 167.5q0 88 -43 148.5t-114.5 105t-156.5 82t-170 78.5t-156 95.5t-114.5 132t-43.5 188.5q0 110 56 193.5t150 130t209 46.5
q99 0 181.5 -31.5t144.5 -95.5l93 127h33v-411h-38q-20 125 -75.5 206.5t-137 121t-182.5 39.5q-143 0 -216.5 -67.5t-73.5 -178.5q0 -80 42.5 -135t112.5 -96t154 -78t168 -80t154 -100.5t112.5 -140t42.5 -200.5q0 -130 -56 -226.5t-159 -149.5t-244 -53zM308 1698l-20 21
l220 220h130l220 -220l-20 -21l-266 151z" />
    <glyph glyph-name="uni0218" unicode="&#x218;" horiz-adv-x="1152" 
d="M620 -29q-129 0 -223 40.5t-157 109.5l-93 -141h-34v411h39q16 -82 51 -151t90.5 -120t132 -79.5t176.5 -28.5q106 0 183.5 36t119.5 104.5t42 167.5q0 88 -43 148.5t-114.5 105t-156.5 82t-170 78.5t-156 95.5t-114.5 132t-43.5 188.5q0 110 56 193.5t150 130t209 46.5
q99 0 181.5 -31.5t144.5 -95.5l93 127h33v-411h-38q-20 125 -75.5 206.5t-137 121t-182.5 39.5q-143 0 -216.5 -67.5t-73.5 -178.5q0 -80 42.5 -135t112.5 -96t154 -78t168 -80t154 -100.5t112.5 -140t42.5 -200.5q0 -130 -56 -226.5t-159 -149.5t-244 -53zM515 -627v33
q62 0 107 37t66 97.5t11 131.5h11q2 -14 -9.5 -31t-32.5 -29t-49 -12q-52 0 -76.5 27.5t-24.5 66.5q0 27 14 48.5t38.5 34t54.5 12.5q47 0 79.5 -39.5t32.5 -115.5q0 -64 -25.5 -124t-75 -98.5t-121.5 -38.5z" />
    <glyph glyph-name="uni1E9E" unicode="&#x1e9e;" horiz-adv-x="1601" 
d="M210 0v882q0 152 54 270.5t151.5 200.5t228 124.5t282.5 42.5q154 0 262 -35.5t176 -82.5t98 -80l-416 -517q-31 9 -90.5 14t-109.5 10l462 561q-66 39 -159.5 65t-222.5 26q-130 0 -227 -48t-161.5 -133t-96 -197.5t-31.5 -241.5v-861h-200zM29 0v39h561v-39h-561z
M1021 -20q-142 0 -233 42.5t-135 109.5t-44 139q0 62 34.5 96.5t86.5 34.5q46 0 77 -29t31 -83q0 -32 -16 -57t-41.5 -39t-55.5 -14t-56 12.5t-42 33t-16 45.5h38q0 -53 25 -98t70 -78.5t106 -52.5t132 -19q119 0 191.5 50t105 131.5t32.5 175.5q0 44 -7 98.5t-31 109.5
t-74 100.5t-136 73.5t-217 28v39q218 0 352 -38.5t204 -103t94.5 -144.5t24.5 -163q0 -97 -38 -172t-106 -125.5t-159 -76.5t-197 -26z" />
    <glyph glyph-name="T" unicode="T" horiz-adv-x="1347" 
d="M359 0v39h220v1422h-200q-88 0 -142.5 -28.5t-84 -82t-40 -129.5t-10.5 -171h-40v450h1224v-450h-39q0 95 -11 171t-40.5 129.5t-84 82t-142.5 28.5h-200v-1422h220v-39h-630z" />
    <glyph glyph-name="Tbar" unicode="&#x166;" horiz-adv-x="1347" 
d="M385 731v38h584v-38h-584zM359 0v39h220v1422h-200q-88 0 -142.5 -28.5t-84 -82t-40 -129.5t-10.5 -171h-40v450h1224v-450h-39q0 95 -11 171t-40.5 129.5t-84 82t-142.5 28.5h-200v-1422h220v-39h-630z" />
    <glyph glyph-name="Tcaron" unicode="&#x164;" horiz-adv-x="1347" 
d="M359 0v39h220v1422h-200q-88 0 -142.5 -28.5t-84 -82t-40 -129.5t-10.5 -171h-40v450h1224v-450h-39q0 95 -11 171t-40.5 129.5t-84 82t-142.5 28.5h-200v-1422h220v-39h-630zM611 1700l-220 221l21 19l263 -150l265 150l21 -19l-220 -221h-130z" />
    <glyph glyph-name="uni0162" unicode="&#x162;" horiz-adv-x="1347" 
d="M359 0v39h220v1422h-200q-88 0 -142.5 -28.5t-84 -82t-40 -129.5t-10.5 -171h-40v450h1224v-450h-39q0 95 -11 171t-40.5 129.5t-84 82t-142.5 28.5h-200v-1422h220v-39h-630zM519 -494v39q89 0 142.5 31.5t53.5 78.5t-29 72t-79.5 34t-115.5 9l175 235h49l-116 -155
q73 -3 131 -20t92.5 -51.5t34.5 -90.5q0 -50 -34 -91.5t-108.5 -66t-195.5 -24.5z" />
    <glyph glyph-name="uni021A" unicode="&#x21a;" horiz-adv-x="1347" 
d="M359 0v39h220v1422h-200q-88 0 -142.5 -28.5t-84 -82t-40 -129.5t-10.5 -171h-40v450h1224v-450h-39q0 95 -11 171t-40.5 129.5t-84 82t-142.5 28.5h-200v-1422h220v-39h-630zM571 -616v33q62 0 107 37t66 97.5t11 131.5h11q2 -14 -9.5 -31t-32.5 -29t-49 -12
q-52 0 -76.5 27.5t-24.5 66.5q0 27 14 48.5t38.5 34t54.5 12.5q47 0 79.5 -39.5t32.5 -115.5q0 -64 -25.5 -124t-75 -98.5t-121.5 -38.5z" />
    <glyph glyph-name="U" unicode="U" horiz-adv-x="1452" 
d="M1384 1500v-39h-189v-1001q0 -247 -111.5 -368t-348.5 -121q-259 0 -379.5 115t-120.5 374v1001h-179v39h570v-39h-200v-981q0 -99 14.5 -183.5t52 -147t106 -97.5t176.5 -35q124 0 209 45.5t129 143t44 254.5v1001h-184v39h411z" />
    <glyph glyph-name="Uacute" unicode="&#xda;" horiz-adv-x="1452" 
d="M1384 1500v-39h-189v-1001q0 -247 -111.5 -368t-348.5 -121q-259 0 -379.5 115t-120.5 374v1001h-179v39h570v-39h-200v-981q0 -99 14.5 -183.5t52 -147t106 -97.5t176.5 -35q124 0 209 45.5t129 143t44 254.5v1001h-184v39h411zM706 1681l-24 27l202 218
q19 21 41.5 23.5t41.5 -7.5t29 -27q9 -16 8.5 -36t-10 -36.5t-25.5 -25.5z" />
    <glyph glyph-name="Ubreve" unicode="&#x16c;" horiz-adv-x="1452" 
d="M1384 1500v-39h-189v-1001q0 -247 -111.5 -368t-348.5 -121q-259 0 -379.5 115t-120.5 374v1001h-179v39h570v-39h-200v-981q0 -99 14.5 -183.5t52 -147t106 -97.5t176.5 -35q124 0 209 45.5t129 143t44 254.5v1001h-184v39h411zM766 1680q-90 0 -137 39t-64 98.5
t-17 120.5h21q0 -49 27 -82t72 -49.5t98 -16.5q54 0 99 16.5t72.5 49.5t27.5 82h22q0 -61 -17.5 -120.5t-65.5 -98.5t-138 -39z" />
    <glyph glyph-name="Ucircumflex" unicode="&#xdb;" horiz-adv-x="1452" 
d="M1384 1500v-39h-189v-1001q0 -247 -111.5 -368t-348.5 -121q-259 0 -379.5 115t-120.5 374v1001h-179v39h570v-39h-200v-981q0 -99 14.5 -183.5t52 -147t106 -97.5t176.5 -35q124 0 209 45.5t129 143t44 254.5v1001h-184v39h411zM502 1698l-20 21l220 220h130l220 -220
l-20 -21l-266 151z" />
    <glyph glyph-name="Udieresis" unicode="&#xdc;" horiz-adv-x="1452" 
d="M1384 1500v-39h-189v-1001q0 -247 -111.5 -368t-348.5 -121q-259 0 -379.5 115t-120.5 374v1001h-179v39h570v-39h-200v-981q0 -99 14.5 -183.5t52 -147t106 -97.5t176.5 -35q124 0 209 45.5t129 143t44 254.5v1001h-184v39h411zM925 1690q-40 0 -68 28t-28 68t28 68.5
t68 28.5t68 -28.5t28 -68.5t-28 -68t-68 -28zM605 1690q-40 0 -68 28t-28 68t28 68.5t68 28.5t68 -28.5t28 -68.5t-28 -68t-68 -28z" />
    <glyph glyph-name="Ugrave" unicode="&#xd9;" horiz-adv-x="1452" 
d="M1384 1500v-39h-189v-1001q0 -247 -111.5 -368t-348.5 -121q-259 0 -379.5 115t-120.5 374v1001h-179v39h570v-39h-200v-981q0 -99 14.5 -183.5t52 -147t106 -97.5t176.5 -35q124 0 209 45.5t129 143t44 254.5v1001h-184v39h411zM827 1681l-263 136q-16 9 -25.5 25.5
t-10 36.5t8.5 36q10 17 29 27t41.5 7.5t41.5 -23.5l202 -218z" />
    <glyph glyph-name="Uhungarumlaut" unicode="&#x170;" horiz-adv-x="1452" 
d="M1384 1500v-39h-189v-1001q0 -247 -111.5 -368t-348.5 -121q-259 0 -379.5 115t-120.5 374v1001h-179v39h570v-39h-200v-981q0 -99 14.5 -183.5t52 -147t106 -97.5t176.5 -35q124 0 209 45.5t129 143t44 254.5v1001h-184v39h411zM506 1681l-24 27l202 218
q19 21 41.5 23.5t41.5 -7.5t29 -27q9 -16 8.5 -36t-10 -36.5t-25.5 -25.5zM916 1681l-24 27l202 218q19 21 41.5 23.5t41.5 -7.5t29 -27q9 -16 8.5 -36t-10 -36.5t-25.5 -25.5z" />
    <glyph glyph-name="Umacron" unicode="&#x16a;" horiz-adv-x="1452" 
d="M1384 1500v-39h-189v-1001q0 -247 -111.5 -368t-348.5 -121q-259 0 -379.5 115t-120.5 374v1001h-179v39h570v-39h-200v-981q0 -99 14.5 -183.5t52 -147t106 -97.5t176.5 -35q124 0 209 45.5t129 143t44 254.5v1001h-184v39h411zM526 1700v39h480v-39h-480z" />
    <glyph glyph-name="Uogonek" unicode="&#x172;" horiz-adv-x="1452" 
d="M1384 1500v-39h-189v-1001q0 -247 -111.5 -368t-348.5 -121q-259 0 -379.5 115t-120.5 374v1001h-179v39h570v-39h-200v-981q0 -99 14.5 -183.5t52 -147t106 -97.5t176.5 -35q124 0 209 45.5t129 143t44 254.5v1001h-184v39h411zM899 -419q-51 0 -101 18t-82.5 56
t-32.5 98t25.5 106.5t67.5 81t91 58.5t96 39l12 -21q-31 -17 -55 -49.5t-37.5 -77t-13.5 -97.5q0 -63 26.5 -104t77.5 -41q48 0 78 28.5t52 67.5l25 -18q-15 -28 -41.5 -62t-71.5 -58.5t-116 -24.5z" />
    <glyph glyph-name="Uring" unicode="&#x16e;" horiz-adv-x="1452" 
d="M1384 1500v-39h-189v-1001q0 -247 -111.5 -368t-348.5 -121q-259 0 -379.5 115t-120.5 374v1001h-179v39h570v-39h-200v-981q0 -99 14.5 -183.5t52 -147t106 -97.5t176.5 -35q124 0 209 45.5t129 143t44 254.5v1001h-184v39h411zM766 1680q-76 0 -127.5 51.5t-51.5 127.5
q0 77 51.5 129t127.5 52q77 0 128.5 -52t51.5 -129q0 -76 -51.5 -127.5t-128.5 -51.5zM766 1720q37 0 60.5 19t34.5 50.5t11 69.5q0 39 -11 71t-34.5 51.5t-60.5 19.5t-60.5 -19.5t-34 -51.5t-10.5 -71q0 -38 10.5 -69.5t34 -50.5t60.5 -19z" />
    <glyph glyph-name="Utilde" unicode="&#x168;" horiz-adv-x="1452" 
d="M1384 1500v-39h-189v-1001q0 -247 -111.5 -368t-348.5 -121q-259 0 -379.5 115t-120.5 374v1001h-179v39h570v-39h-200v-981q0 -99 14.5 -183.5t52 -147t106 -97.5t176.5 -35q124 0 209 45.5t129 143t44 254.5v1001h-184v39h411zM928 1680q-57 0 -101.5 24t-82.5 55
t-75.5 55t-80.5 24q-50 0 -88 -30t-38 -108h-40q0 85 32 141.5t80.5 84.5t97.5 28q59 0 102.5 -24t78.5 -55t68 -55t71 -24q57 0 92 30t35 108h39q0 -95 -23 -150.5t-65.5 -79.5t-101.5 -24z" />
    <glyph glyph-name="V" unicode="V" horiz-adv-x="1548" 
d="M1486 1500v-39h-173l-534 -1490h-46l-518 1490h-153v39h580v-39h-207l397 -1228l436 1228h-245v39h463z" />
    <glyph glyph-name="W" unicode="W" horiz-adv-x="2009" 
d="M697 -20l-460 1481h-190v39h1424v-39h-488l364 -1179l412 1179h-187v39h391v-39h-160l-517 -1481h-43l-460 1481h-346l366 -1179l206 578l21 -68l-290 -812h-43zM1125 945l-34 31l169 508l42 -11z" />
    <glyph glyph-name="Wacute" unicode="&#x1e82;" horiz-adv-x="2009" 
d="M697 -20l-460 1481h-190v39h1424v-39h-488l364 -1179l412 1179h-187v39h391v-39h-160l-517 -1481h-43l-460 1481h-346l366 -1179l206 578l21 -68l-290 -812h-43zM1125 945l-34 31l169 508l42 -11zM1001 1681l-24 27l202 218q19 21 41.5 23.5t41.5 -7.5t29 -27
q9 -16 8.5 -36t-10 -36.5t-25.5 -25.5z" />
    <glyph glyph-name="Wcircumflex" unicode="&#x174;" horiz-adv-x="2009" 
d="M697 -20l-460 1481h-190v39h1424v-39h-488l364 -1179l412 1179h-187v39h391v-39h-160l-517 -1481h-43l-460 1481h-346l366 -1179l206 578l21 -68l-290 -812h-43zM1125 945l-34 31l169 508l42 -11zM798 1698l-20 21l220 220h130l220 -220l-20 -21l-266 151z" />
    <glyph glyph-name="Wdieresis" unicode="&#x1e84;" horiz-adv-x="2009" 
d="M697 -20l-460 1481h-190v39h1424v-39h-488l364 -1179l412 1179h-187v39h391v-39h-160l-517 -1481h-43l-460 1481h-346l366 -1179l206 578l21 -68l-290 -812h-43zM1125 945l-34 31l169 508l42 -11zM1221 1690q-40 0 -68 28t-28 68t28 68.5t68 28.5t68 -28.5t28 -68.5
t-28 -68t-68 -28zM901 1690q-40 0 -68 28t-28 68t28 68.5t68 28.5t68 -28.5t28 -68.5t-28 -68t-68 -28z" />
    <glyph glyph-name="uni1E86" unicode="&#x1e86;" horiz-adv-x="2009" 
d="M697 -20l-460 1481h-190v39h1424v-39h-488l364 -1179l412 1179h-187v39h391v-39h-160l-517 -1481h-43l-460 1481h-346l366 -1179l206 578l21 -68l-290 -812h-43zM1125 945l-34 31l169 508l42 -11zM1063 1854q-50 0 -85 35.5t-35 85.5q0 49 35 84.5t85 35.5
q49 0 84.5 -35.5t35.5 -84.5q0 -50 -35.5 -85.5t-84.5 -35.5z" />
    <glyph glyph-name="uni1E88" unicode="&#x1e88;" horiz-adv-x="2009" 
d="M697 -20l-460 1481h-190v39h1424v-39h-488l364 -1179l412 1179h-187v39h391v-39h-160l-517 -1481h-43l-460 1481h-346l366 -1179l206 578l21 -68l-290 -812h-43zM1125 945l-34 31l169 508l42 -11zM1008 -410q-49 0 -84.5 36t-35.5 85q0 50 35.5 85t84.5 35q50 0 85 -35
t35 -85q0 -49 -35 -85t-85 -36z" />
    <glyph glyph-name="Wgrave" unicode="&#x1e80;" horiz-adv-x="2009" 
d="M697 -20l-460 1481h-190v39h1424v-39h-488l364 -1179l412 1179h-187v39h391v-39h-160l-517 -1481h-43l-460 1481h-346l366 -1179l206 578l21 -68l-290 -812h-43zM1125 945l-34 31l169 508l42 -11zM1122 1681l-263 136q-16 9 -25.5 25.5t-10 36.5t8.5 36q10 17 29 27
t41.5 7.5t41.5 -23.5l202 -218z" />
    <glyph glyph-name="X" unicode="X" horiz-adv-x="1533" 
d="M907 0v39h180l-831 1422h-143v39h559v-39h-184l840 -1422h151v-39h-572zM43 0v39h197l511 795l28 -29l-491 -766h226v-39h-471zM770 820l388 641h-221v39h432v-39h-166l-405 -673z" />
    <glyph glyph-name="Y" unicode="Y" horiz-adv-x="1467" 
d="M472 0v39h180v682l-456 740h-153v39h580v-39h-207l403 -661l396 661h-210v39h408v-39h-152l-419 -695v-727h201v-39h-571z" />
    <glyph glyph-name="Yacute" unicode="&#xdd;" horiz-adv-x="1467" 
d="M472 0v39h180v682l-456 740h-153v39h580v-39h-207l403 -661l396 661h-210v39h408v-39h-152l-419 -695v-727h201v-39h-571zM710 1681l-24 27l202 218q19 21 41.5 23.5t41.5 -7.5t29 -27q9 -16 8.5 -36t-10 -36.5t-25.5 -25.5z" />
    <glyph glyph-name="Ycircumflex" unicode="&#x176;" horiz-adv-x="1467" 
d="M472 0v39h180v682l-456 740h-153v39h580v-39h-207l403 -661l396 661h-210v39h408v-39h-152l-419 -695v-727h201v-39h-571zM507 1698l-20 21l220 220h130l220 -220l-20 -21l-266 151z" />
    <glyph glyph-name="Ydieresis" unicode="&#x178;" horiz-adv-x="1467" 
d="M472 0v39h180v682l-456 740h-153v39h580v-39h-207l403 -661l396 661h-210v39h408v-39h-152l-419 -695v-727h201v-39h-571zM930 1690q-40 0 -68 28t-28 68t28 68.5t68 28.5t68 -28.5t28 -68.5t-28 -68t-68 -28zM610 1690q-40 0 -68 28t-28 68t28 68.5t68 28.5t68 -28.5
t28 -68.5t-28 -68t-68 -28z" />
    <glyph glyph-name="Ygrave" unicode="&#x1ef2;" horiz-adv-x="1467" 
d="M472 0v39h180v682l-456 740h-153v39h580v-39h-207l403 -661l396 661h-210v39h408v-39h-152l-419 -695v-727h201v-39h-571zM832 1681l-263 136q-16 9 -25.5 25.5t-10 36.5t8.5 36q10 17 29 27t41.5 7.5t41.5 -23.5l202 -218z" />
    <glyph glyph-name="Z" unicode="Z" horiz-adv-x="1154" 
d="M47 0v39l790 1422h-366q-136 0 -209 -30.5t-101 -97t-28 -173.5h-39v340h953v-39l-790 -1422h426q137 0 209.5 32.5t100 107t27.5 201.5h40v-380h-1013z" />
    <glyph glyph-name="Zacute" unicode="&#x179;" horiz-adv-x="1154" 
d="M47 0v39l790 1422h-366q-136 0 -209 -30.5t-101 -97t-28 -173.5h-39v340h953v-39l-790 -1422h426q137 0 209.5 32.5t100 107t27.5 201.5h40v-380h-1013zM471 1681l-24 27l202 218q19 21 41.5 23.5t41.5 -7.5t29 -27q9 -16 8.5 -36t-10 -36.5t-25.5 -25.5z" />
    <glyph glyph-name="Zcaron" unicode="&#x17d;" horiz-adv-x="1154" 
d="M47 0v39l790 1422h-366q-136 0 -209 -30.5t-101 -97t-28 -173.5h-39v340h953v-39l-790 -1422h426q137 0 209.5 32.5t100 107t27.5 201.5h40v-380h-1013zM468 1700l-220 221l21 19l263 -150l265 150l21 -19l-220 -221h-130z" />
    <glyph glyph-name="Zdotaccent" unicode="&#x17b;" horiz-adv-x="1154" 
d="M47 0v39l790 1422h-366q-136 0 -209 -30.5t-101 -97t-28 -173.5h-39v340h953v-39l-790 -1422h426q137 0 209.5 32.5t100 107t27.5 201.5h40v-380h-1013zM533 1854q-50 0 -85 35.5t-35 85.5q0 49 35 84.5t85 35.5q49 0 84.5 -35.5t35.5 -84.5q0 -50 -35.5 -85.5
t-84.5 -35.5z" />
    <glyph glyph-name="a" unicode="a" horiz-adv-x="1046" 
d="M843 -20q-47 0 -86.5 16.5t-63.5 55t-24 103.5v454q0 72 -12 138t-50.5 108t-118.5 42q-45 0 -93.5 -10t-90 -30.5t-67.5 -51.5t-26 -73h-47q0 51 33.5 80.5t73.5 29.5q43 0 78.5 -27.5t35.5 -78.5q0 -60 -36.5 -87t-77.5 -27q-46 0 -77.5 28t-31.5 82q0 47 30.5 84.5
t82 64t116 41t132.5 14.5q138 0 206.5 -48t91.5 -123t23 -156v-492q0 -33 11.5 -56t48.5 -23q26 0 57.5 21.5t48.5 54.5l19 -36q-26 -42 -73 -70t-113 -28zM377 -20q-130 0 -207.5 66.5t-77.5 180.5q0 134 115 210.5t328 76.5h227v-34h-227q-88 0 -142 -37t-79 -92t-25 -110
q0 -50 15.5 -96t48.5 -76t86 -30q55 0 108 36.5t87.5 109t34.5 181.5h23q0 -114 -36.5 -201t-106.5 -136t-172 -49z" />
    <glyph glyph-name="aacute" unicode="&#xe1;" horiz-adv-x="1046" 
d="M843 -20q-47 0 -86.5 16.5t-63.5 55t-24 103.5v454q0 72 -12 138t-50.5 108t-118.5 42q-45 0 -93.5 -10t-90 -30.5t-67.5 -51.5t-26 -73h-47q0 51 33.5 80.5t73.5 29.5q43 0 78.5 -27.5t35.5 -78.5q0 -60 -36.5 -87t-77.5 -27q-46 0 -77.5 28t-31.5 82q0 47 30.5 84.5
t82 64t116 41t132.5 14.5q138 0 206.5 -48t91.5 -123t23 -156v-492q0 -33 11.5 -56t48.5 -23q26 0 57.5 21.5t48.5 54.5l19 -36q-26 -42 -73 -70t-113 -28zM377 -20q-130 0 -207.5 66.5t-77.5 180.5q0 134 115 210.5t328 76.5h227v-34h-227q-88 0 -142 -37t-79 -92t-25 -110
q0 -50 15.5 -96t48.5 -76t86 -30q55 0 108 36.5t87.5 109t34.5 181.5h23q0 -114 -36.5 -201t-106.5 -136t-172 -49zM450 1101l-24 27l202 218q19 21 41.5 23.5t41.5 -7.5t29 -27q9 -16 8.5 -36t-10 -36.5t-25.5 -25.5z" />
    <glyph glyph-name="abreve" unicode="&#x103;" horiz-adv-x="1046" 
d="M843 -20q-47 0 -86.5 16.5t-63.5 55t-24 103.5v454q0 72 -12 138t-50.5 108t-118.5 42q-45 0 -93.5 -10t-90 -30.5t-67.5 -51.5t-26 -73h-47q0 51 33.5 80.5t73.5 29.5q43 0 78.5 -27.5t35.5 -78.5q0 -60 -36.5 -87t-77.5 -27q-46 0 -77.5 28t-31.5 82q0 47 30.5 84.5
t82 64t116 41t132.5 14.5q138 0 206.5 -48t91.5 -123t23 -156v-492q0 -33 11.5 -56t48.5 -23q26 0 57.5 21.5t48.5 54.5l19 -36q-26 -42 -73 -70t-113 -28zM377 -20q-130 0 -207.5 66.5t-77.5 180.5q0 134 115 210.5t328 76.5h227v-34h-227q-88 0 -142 -37t-79 -92t-25 -110
q0 -50 15.5 -96t48.5 -76t86 -30q55 0 108 36.5t87.5 109t34.5 181.5h23q0 -114 -36.5 -201t-106.5 -136t-172 -49zM510 1100q-90 0 -137 39t-64 98.5t-17 120.5h21q0 -49 27 -82t72 -49.5t98 -16.5q54 0 99 16.5t72.5 49.5t27.5 82h22q0 -61 -17.5 -120.5t-65.5 -98.5
t-138 -39z" />
    <glyph glyph-name="acircumflex" unicode="&#xe2;" horiz-adv-x="1046" 
d="M843 -20q-47 0 -86.5 16.5t-63.5 55t-24 103.5v454q0 72 -12 138t-50.5 108t-118.5 42q-45 0 -93.5 -10t-90 -30.5t-67.5 -51.5t-26 -73h-47q0 51 33.5 80.5t73.5 29.5q43 0 78.5 -27.5t35.5 -78.5q0 -60 -36.5 -87t-77.5 -27q-46 0 -77.5 28t-31.5 82q0 47 30.5 84.5
t82 64t116 41t132.5 14.5q138 0 206.5 -48t91.5 -123t23 -156v-492q0 -33 11.5 -56t48.5 -23q26 0 57.5 21.5t48.5 54.5l19 -36q-26 -42 -73 -70t-113 -28zM377 -20q-130 0 -207.5 66.5t-77.5 180.5q0 134 115 210.5t328 76.5h227v-34h-227q-88 0 -142 -37t-79 -92t-25 -110
q0 -50 15.5 -96t48.5 -76t86 -30q55 0 108 36.5t87.5 109t34.5 181.5h23q0 -114 -36.5 -201t-106.5 -136t-172 -49zM247 1118l-20 21l220 220h130l220 -220l-20 -21l-266 151z" />
    <glyph glyph-name="adieresis" unicode="&#xe4;" horiz-adv-x="1046" 
d="M843 -20q-47 0 -86.5 16.5t-63.5 55t-24 103.5v454q0 72 -12 138t-50.5 108t-118.5 42q-45 0 -93.5 -10t-90 -30.5t-67.5 -51.5t-26 -73h-47q0 51 33.5 80.5t73.5 29.5q43 0 78.5 -27.5t35.5 -78.5q0 -60 -36.5 -87t-77.5 -27q-46 0 -77.5 28t-31.5 82q0 47 30.5 84.5
t82 64t116 41t132.5 14.5q138 0 206.5 -48t91.5 -123t23 -156v-492q0 -33 11.5 -56t48.5 -23q26 0 57.5 21.5t48.5 54.5l19 -36q-26 -42 -73 -70t-113 -28zM377 -20q-130 0 -207.5 66.5t-77.5 180.5q0 134 115 210.5t328 76.5h227v-34h-227q-88 0 -142 -37t-79 -92t-25 -110
q0 -50 15.5 -96t48.5 -76t86 -30q55 0 108 36.5t87.5 109t34.5 181.5h23q0 -114 -36.5 -201t-106.5 -136t-172 -49zM670 1110q-40 0 -68 28t-28 68t28 68.5t68 28.5t68 -28.5t28 -68.5t-28 -68t-68 -28zM350 1110q-40 0 -68 28t-28 68t28 68.5t68 28.5t68 -28.5t28 -68.5
t-28 -68t-68 -28z" />
    <glyph glyph-name="agrave" unicode="&#xe0;" horiz-adv-x="1046" 
d="M843 -20q-47 0 -86.5 16.5t-63.5 55t-24 103.5v454q0 72 -12 138t-50.5 108t-118.5 42q-45 0 -93.5 -10t-90 -30.5t-67.5 -51.5t-26 -73h-47q0 51 33.5 80.5t73.5 29.5q43 0 78.5 -27.5t35.5 -78.5q0 -60 -36.5 -87t-77.5 -27q-46 0 -77.5 28t-31.5 82q0 47 30.5 84.5
t82 64t116 41t132.5 14.5q138 0 206.5 -48t91.5 -123t23 -156v-492q0 -33 11.5 -56t48.5 -23q26 0 57.5 21.5t48.5 54.5l19 -36q-26 -42 -73 -70t-113 -28zM377 -20q-130 0 -207.5 66.5t-77.5 180.5q0 134 115 210.5t328 76.5h227v-34h-227q-88 0 -142 -37t-79 -92t-25 -110
q0 -50 15.5 -96t48.5 -76t86 -30q55 0 108 36.5t87.5 109t34.5 181.5h23q0 -114 -36.5 -201t-106.5 -136t-172 -49zM572 1101l-263 136q-16 9 -25.5 25.5t-10 36.5t8.5 36q10 17 29 27t41.5 7.5t41.5 -23.5l202 -218z" />
    <glyph glyph-name="amacron" unicode="&#x101;" horiz-adv-x="1046" 
d="M843 -20q-47 0 -86.5 16.5t-63.5 55t-24 103.5v454q0 72 -12 138t-50.5 108t-118.5 42q-45 0 -93.5 -10t-90 -30.5t-67.5 -51.5t-26 -73h-47q0 51 33.5 80.5t73.5 29.5q43 0 78.5 -27.5t35.5 -78.5q0 -60 -36.5 -87t-77.5 -27q-46 0 -77.5 28t-31.5 82q0 47 30.5 84.5
t82 64t116 41t132.5 14.5q138 0 206.5 -48t91.5 -123t23 -156v-492q0 -33 11.5 -56t48.5 -23q26 0 57.5 21.5t48.5 54.5l19 -36q-26 -42 -73 -70t-113 -28zM377 -20q-130 0 -207.5 66.5t-77.5 180.5q0 134 115 210.5t328 76.5h227v-34h-227q-88 0 -142 -37t-79 -92t-25 -110
q0 -50 15.5 -96t48.5 -76t86 -30q55 0 108 36.5t87.5 109t34.5 181.5h23q0 -114 -36.5 -201t-106.5 -136t-172 -49zM271 1120v39h480v-39h-480z" />
    <glyph glyph-name="aogonek" unicode="&#x105;" horiz-adv-x="1046" 
d="M843 -20q-47 0 -86.5 16.5t-63.5 55t-24 103.5v454q0 72 -12 138t-50.5 108t-118.5 42q-45 0 -93.5 -10t-90 -30.5t-67.5 -51.5t-26 -73h-47q0 51 33.5 80.5t73.5 29.5q43 0 78.5 -27.5t35.5 -78.5q0 -60 -36.5 -87t-77.5 -27q-46 0 -77.5 28t-31.5 82q0 47 30.5 84.5
t82 64t116 41t132.5 14.5q138 0 206.5 -48t91.5 -123t23 -156v-492q0 -33 11.5 -56t48.5 -23q26 0 57.5 21.5t48.5 54.5l19 -36q-26 -42 -73 -70t-113 -28zM377 -20q-130 0 -207.5 66.5t-77.5 180.5q0 134 115 210.5t328 76.5h227v-34h-227q-88 0 -142 -37t-79 -92t-25 -110
q0 -50 15.5 -96t48.5 -76t86 -30q55 0 108 36.5t87.5 109t34.5 181.5h23q0 -114 -36.5 -201t-106.5 -136t-172 -49zM893 -419q-51 0 -101 18t-82.5 56t-32.5 98t25.5 106.5t67.5 81t91 58.5t96 39l12 -21q-31 -17 -55 -49.5t-37.5 -77t-13.5 -97.5q0 -63 26.5 -104t77.5 -41
q48 0 78 28.5t52 67.5l25 -18q-15 -28 -41.5 -62t-71.5 -58.5t-116 -24.5z" />
    <glyph glyph-name="aring" unicode="&#xe5;" horiz-adv-x="1046" 
d="M843 -20q-47 0 -86.5 16.5t-63.5 55t-24 103.5v454q0 72 -12 138t-50.5 108t-118.5 42q-45 0 -93.5 -10t-90 -30.5t-67.5 -51.5t-26 -73h-47q0 51 33.5 80.5t73.5 29.5q43 0 78.5 -27.5t35.5 -78.5q0 -60 -36.5 -87t-77.5 -27q-46 0 -77.5 28t-31.5 82q0 47 30.5 84.5
t82 64t116 41t132.5 14.5q138 0 206.5 -48t91.5 -123t23 -156v-492q0 -33 11.5 -56t48.5 -23q26 0 57.5 21.5t48.5 54.5l19 -36q-26 -42 -73 -70t-113 -28zM377 -20q-130 0 -207.5 66.5t-77.5 180.5q0 134 115 210.5t328 76.5h227v-34h-227q-88 0 -142 -37t-79 -92t-25 -110
q0 -50 15.5 -96t48.5 -76t86 -30q55 0 108 36.5t87.5 109t34.5 181.5h23q0 -114 -36.5 -201t-106.5 -136t-172 -49zM511 1100q-76 0 -127.5 51.5t-51.5 127.5q0 77 51.5 129t127.5 52q77 0 128.5 -52t51.5 -129q0 -76 -51.5 -127.5t-128.5 -51.5zM511 1140q37 0 60.5 19
t34.5 50.5t11 69.5q0 39 -11 71t-34.5 51.5t-60.5 19.5t-60.5 -19.5t-34 -51.5t-10.5 -71q0 -38 10.5 -69.5t34 -50.5t60.5 -19z" />
    <glyph glyph-name="atilde" unicode="&#xe3;" horiz-adv-x="1046" 
d="M843 -20q-47 0 -86.5 16.5t-63.5 55t-24 103.5v454q0 72 -12 138t-50.5 108t-118.5 42q-45 0 -93.5 -10t-90 -30.5t-67.5 -51.5t-26 -73h-47q0 51 33.5 80.5t73.5 29.5q43 0 78.5 -27.5t35.5 -78.5q0 -60 -36.5 -87t-77.5 -27q-46 0 -77.5 28t-31.5 82q0 47 30.5 84.5
t82 64t116 41t132.5 14.5q138 0 206.5 -48t91.5 -123t23 -156v-492q0 -33 11.5 -56t48.5 -23q26 0 57.5 21.5t48.5 54.5l19 -36q-26 -42 -73 -70t-113 -28zM377 -20q-130 0 -207.5 66.5t-77.5 180.5q0 134 115 210.5t328 76.5h227v-34h-227q-88 0 -142 -37t-79 -92t-25 -110
q0 -50 15.5 -96t48.5 -76t86 -30q55 0 108 36.5t87.5 109t34.5 181.5h23q0 -114 -36.5 -201t-106.5 -136t-172 -49zM673 1100q-57 0 -101.5 24t-82.5 55t-75.5 55t-80.5 24q-50 0 -88 -30t-38 -108h-40q0 85 32 141.5t80.5 84.5t97.5 28q59 0 102.5 -24t78.5 -55t68 -55
t71 -24q57 0 92 30t35 108h39q0 -95 -23 -150.5t-65.5 -79.5t-101.5 -24z" />
    <glyph glyph-name="ae" unicode="&#xe6;" horiz-adv-x="1596" 
d="M422 -20q-59 0 -117.5 12.5t-106.5 40.5t-77 76t-29 118q0 84 50 150.5t147.5 105.5t239.5 39h124v87q0 50 -5.5 101t-22.5 93t-52.5 68t-95.5 26q-39 0 -78 -9t-75 -25t-64 -39.5t-46 -51.5q13 22 31 39t35 27q40 0 71.5 -29.5t31.5 -72.5q0 -60 -40 -87t-78 -27
q-46 0 -74.5 28t-28.5 82q0 62 51 108t132 71t172 25q94 0 149 -26t82 -70.5t36 -98.5l-20 -1q48 96 133.5 147.5t207.5 51.5q145 0 233 -57.5t127.5 -151.5t39.5 -203h-635q-1 -16 -1 -33v-34q0 -86 11.5 -164.5t40 -139.5t79 -97t128.5 -36q134 0 222 67.5t125 170.5h45
q-39 -121 -139.5 -201t-263.5 -80q-143 0 -240 72t-139 203l17 3q-15 -91 -57.5 -153t-111.5 -93.5t-164 -31.5zM461 38q55 0 98.5 38.5t68.5 111t25 173.5v122h-124q-76 0 -128 -33.5t-79 -87.5t-27 -116q0 -111 47 -159.5t119 -48.5zM873 566h420q0 50 -6 108t-25 109.5
t-56.5 84.5t-100.5 33q-80 0 -128.5 -46t-72.5 -122t-31 -167z" />
    <glyph glyph-name="b" unicode="b" horiz-adv-x="1217" 
d="M704 -20q-122 0 -205 84.5t-116 226.5v-291h-310v39h131v1422h-131v39h310v-872q33 143 116 226.5t205 83.5q105 0 199 -57t153 -164t59 -257t-59 -257.5t-153 -165t-199 -57.5zM668 34q77 0 131.5 51t82.5 146t28 229t-28 228.5t-82.5 145t-131.5 50.5q-75 0 -140 -50
t-105 -144.5t-40 -229.5t40 -230t105 -145.5t140 -50.5z" />
    <glyph glyph-name="c" unicode="c" horiz-adv-x="1019" 
d="M559 -20q-131 0 -234 57.5t-162.5 165t-59.5 257.5q0 130 53.5 239t157 175t254.5 66q102 0 176 -35t114 -90.5t40 -117.5q0 -54 -31 -84t-77 -30q-25 0 -51.5 11t-44.5 36t-18 65q0 52 34 80t80 28q43 0 74.5 -27t31.5 -79h-38q0 46 -23.5 83.5t-63 64t-87.5 40.5
t-96 14q-86 0 -140 -41.5t-83.5 -107.5t-40.5 -142.5t-11 -147.5q0 -86 12 -164t41 -138.5t79.5 -95.5t127.5 -35q82 0 140 30t97.5 83t66.5 121h42q-39 -121 -123.5 -201t-236.5 -80z" />
    <glyph glyph-name="cacute" unicode="&#x107;" horiz-adv-x="1019" 
d="M559 -20q-131 0 -234 57.5t-162.5 165t-59.5 257.5q0 130 53.5 239t157 175t254.5 66q102 0 176 -35t114 -90.5t40 -117.5q0 -54 -31 -84t-77 -30q-25 0 -51.5 11t-44.5 36t-18 65q0 52 34 80t80 28q43 0 74.5 -27t31.5 -79h-38q0 46 -23.5 83.5t-63 64t-87.5 40.5
t-96 14q-86 0 -140 -41.5t-83.5 -107.5t-40.5 -142.5t-11 -147.5q0 -86 12 -164t41 -138.5t79.5 -95.5t127.5 -35q82 0 140 30t97.5 83t66.5 121h42q-39 -121 -123.5 -201t-236.5 -80zM508 1101l-24 27l202 218q19 21 41.5 23.5t41.5 -7.5t29 -27q9 -16 8.5 -36t-10 -36.5
t-25.5 -25.5z" />
    <glyph glyph-name="ccaron" unicode="&#x10d;" horiz-adv-x="1019" 
d="M559 -20q-131 0 -234 57.5t-162.5 165t-59.5 257.5q0 130 53.5 239t157 175t254.5 66q102 0 176 -35t114 -90.5t40 -117.5q0 -54 -31 -84t-77 -30q-25 0 -51.5 11t-44.5 36t-18 65q0 52 34 80t80 28q43 0 74.5 -27t31.5 -79h-38q0 46 -23.5 83.5t-63 64t-87.5 40.5
t-96 14q-86 0 -140 -41.5t-83.5 -107.5t-40.5 -142.5t-11 -147.5q0 -86 12 -164t41 -138.5t79.5 -95.5t127.5 -35q82 0 140 30t97.5 83t66.5 121h42q-39 -121 -123.5 -201t-236.5 -80zM504 1120l-220 221l21 19l263 -150l265 150l21 -19l-220 -221h-130z" />
    <glyph glyph-name="ccedilla" unicode="&#xe7;" horiz-adv-x="1019" 
d="M559 -20q-131 0 -234 57.5t-162.5 165t-59.5 257.5q0 130 53.5 239t157 175t254.5 66q102 0 176 -35t114 -90.5t40 -117.5q0 -54 -31 -84t-77 -30q-25 0 -51.5 11t-44.5 36t-18 65q0 52 34 80t80 28q43 0 74.5 -27t31.5 -79h-38q0 46 -23.5 83.5t-63 64t-87.5 40.5
t-96 14q-86 0 -140 -41.5t-83.5 -107.5t-40.5 -142.5t-11 -147.5q0 -86 12 -164t41 -138.5t79.5 -95.5t127.5 -35q82 0 140 30t97.5 83t66.5 121h42q-39 -121 -123.5 -201t-236.5 -80zM389 -499v39q89 0 142.5 31.5t53.5 78.5t-29 72t-79.5 34t-115.5 9l175 235h49
l-116 -155q73 -3 131 -20t92.5 -51.5t34.5 -90.5q0 -50 -34 -91.5t-108.5 -66t-195.5 -24.5z" />
    <glyph glyph-name="ccircumflex" unicode="&#x109;" horiz-adv-x="1019" 
d="M559 -20q-131 0 -234 57.5t-162.5 165t-59.5 257.5q0 130 53.5 239t157 175t254.5 66q102 0 176 -35t114 -90.5t40 -117.5q0 -54 -31 -84t-77 -30q-25 0 -51.5 11t-44.5 36t-18 65q0 52 34 80t80 28q43 0 74.5 -27t31.5 -79h-38q0 46 -23.5 83.5t-63 64t-87.5 40.5
t-96 14q-86 0 -140 -41.5t-83.5 -107.5t-40.5 -142.5t-11 -147.5q0 -86 12 -164t41 -138.5t79.5 -95.5t127.5 -35q82 0 140 30t97.5 83t66.5 121h42q-39 -121 -123.5 -201t-236.5 -80zM304 1118l-20 21l220 220h130l220 -220l-20 -21l-266 151z" />
    <glyph glyph-name="cdotaccent" unicode="&#x10b;" horiz-adv-x="1019" 
d="M559 -20q-131 0 -234 57.5t-162.5 165t-59.5 257.5q0 130 53.5 239t157 175t254.5 66q102 0 176 -35t114 -90.5t40 -117.5q0 -54 -31 -84t-77 -30q-25 0 -51.5 11t-44.5 36t-18 65q0 52 34 80t80 28q43 0 74.5 -27t31.5 -79h-38q0 46 -23.5 83.5t-63 64t-87.5 40.5
t-96 14q-86 0 -140 -41.5t-83.5 -107.5t-40.5 -142.5t-11 -147.5q0 -86 12 -164t41 -138.5t79.5 -95.5t127.5 -35q82 0 140 30t97.5 83t66.5 121h42q-39 -121 -123.5 -201t-236.5 -80zM569 1274q-50 0 -85 35.5t-35 85.5q0 49 35 84.5t85 35.5q49 0 84.5 -35.5t35.5 -84.5
q0 -50 -35.5 -85.5t-84.5 -35.5z" />
    <glyph glyph-name="d" unicode="d" horiz-adv-x="1217" 
d="M515 -19q-105 0 -199 57t-153.5 164t-59.5 257t59.5 257.5t153.5 165t199 57.5q122 0 204 -84.5t115 -226.5v833h-131v39h312v-1461h130v-39h-311v290q-33 -142 -115 -225.5t-204 -83.5zM550 35q75 0 139.5 50t104.5 144.5t40 229.5t-40 230t-104.5 145.5t-139.5 50.5
q-78 0 -132 -51t-81.5 -146t-27.5 -229t27.5 -228.5t81.5 -145t132 -50.5z" />
    <glyph glyph-name="eth" unicode="&#xf0;" horiz-adv-x="1119" 
d="M532 -20q-151 0 -256 67.5t-160 185t-55 267.5q0 128 39 219t103.5 148.5t141.5 85t153 27.5q131 0 209 -56t112 -151t34 -212h-33q0 111 -30 192t-91.5 125.5t-156.5 44.5q-67 0 -119 -28t-88.5 -82.5t-55.5 -133t-19 -179.5q0 -86 11 -171t39.5 -155t80.5 -112t134 -42
t138.5 46t91 124t50 174.5t15.5 196.5l-9 179q0 103 -29 208.5t-82.5 201.5t-128 171t-166 119t-195.5 44v36q164 0 310.5 -69.5t259 -193t176.5 -286.5t64 -351q0 -210 -59 -352.5t-168.5 -215t-260.5 -72.5zM222 1222v39h840v-40z" />
    <glyph glyph-name="dcaron" unicode="&#x10f;" horiz-adv-x="1217" 
d="M515 -19q-105 0 -199 57t-153.5 164t-59.5 257t59.5 257.5t153.5 165t199 57.5q122 0 204 -84.5t115 -226.5v833h-131v39h312v-1461h130v-39h-311v290q-33 -142 -115 -225.5t-204 -83.5zM550 35q75 0 139.5 50t104.5 144.5t40 229.5t-40 230t-104.5 145.5t-139.5 50.5
q-78 0 -132 -51t-81.5 -146t-27.5 -229t27.5 -228.5t81.5 -145t132 -50.5zM1157 981v40q58 0 104.5 27t78 73.5t44.5 106.5t3 126h13q3 -17 -11 -38t-40.5 -36.5t-61.5 -15.5q-64 0 -95 34.5t-31 83.5q0 50 38.5 84t95.5 34q59 0 99.5 -49t40.5 -144q0 -80 -32 -155
t-94 -123t-152 -48z" />
    <glyph glyph-name="dcroat" unicode="&#x111;" horiz-adv-x="1217" 
d="M564 1121v38h607v-38h-607zM515 -19q-105 0 -199 57t-153.5 164t-59.5 257t59.5 257.5t153.5 165t199 57.5q122 0 204 -84.5t115 -226.5v833h-131v39h312v-1461h130v-39h-311v290q-33 -142 -115 -225.5t-204 -83.5zM550 35q75 0 139.5 50t104.5 144.5t40 229.5t-40 230
t-104.5 145.5t-139.5 50.5q-78 0 -132 -51t-81.5 -146t-27.5 -229t27.5 -228.5t81.5 -145t132 -50.5z" />
    <glyph glyph-name="e" unicode="e" horiz-adv-x="1047" 
d="M557 -20q-128 0 -230.5 57.5t-163 165t-60.5 257.5t57 257.5t156.5 164.5t228.5 57q145 0 231.5 -57.5t125 -151.5t38.5 -203h-702v39h490q0 50 -5.5 108t-23.5 109.5t-54.5 84.5t-99.5 33q-72 0 -118 -36.5t-72 -98.5t-36 -141t-10 -165t11.5 -164.5t40 -139.5t79 -97
t128.5 -36q134 0 219 67.5t123 170.5h45q-39 -121 -137 -201t-261 -80z" />
    <glyph glyph-name="eacute" unicode="&#xe9;" horiz-adv-x="1047" 
d="M557 -20q-128 0 -230.5 57.5t-163 165t-60.5 257.5t57 257.5t156.5 164.5t228.5 57q145 0 231.5 -57.5t125 -151.5t38.5 -203h-702v39h490q0 50 -5.5 108t-23.5 109.5t-54.5 84.5t-99.5 33q-72 0 -118 -36.5t-72 -98.5t-36 -141t-10 -165t11.5 -164.5t40 -139.5t79 -97
t128.5 -36q134 0 219 67.5t123 170.5h45q-39 -121 -137 -201t-261 -80zM474 1101l-24 27l202 218q19 21 41.5 23.5t41.5 -7.5t29 -27q9 -16 8.5 -36t-10 -36.5t-25.5 -25.5z" />
    <glyph glyph-name="ebreve" unicode="&#x115;" horiz-adv-x="1047" 
d="M557 -20q-128 0 -230.5 57.5t-163 165t-60.5 257.5t57 257.5t156.5 164.5t228.5 57q145 0 231.5 -57.5t125 -151.5t38.5 -203h-702v39h490q0 50 -5.5 108t-23.5 109.5t-54.5 84.5t-99.5 33q-72 0 -118 -36.5t-72 -98.5t-36 -141t-10 -165t11.5 -164.5t40 -139.5t79 -97
t128.5 -36q134 0 219 67.5t123 170.5h45q-39 -121 -137 -201t-261 -80zM535 1100q-90 0 -137 39t-64 98.5t-17 120.5h21q0 -49 27 -82t72 -49.5t98 -16.5q54 0 99 16.5t72.5 49.5t27.5 82h22q0 -61 -17.5 -120.5t-65.5 -98.5t-138 -39z" />
    <glyph glyph-name="ecaron" unicode="&#x11b;" horiz-adv-x="1047" 
d="M557 -20q-128 0 -230.5 57.5t-163 165t-60.5 257.5t57 257.5t156.5 164.5t228.5 57q145 0 231.5 -57.5t125 -151.5t38.5 -203h-702v39h490q0 50 -5.5 108t-23.5 109.5t-54.5 84.5t-99.5 33q-72 0 -118 -36.5t-72 -98.5t-36 -141t-10 -165t11.5 -164.5t40 -139.5t79 -97
t128.5 -36q134 0 219 67.5t123 170.5h45q-39 -121 -137 -201t-261 -80zM471 1120l-220 221l21 19l263 -150l265 150l21 -19l-220 -221h-130z" />
    <glyph glyph-name="ecircumflex" unicode="&#xea;" horiz-adv-x="1047" 
d="M557 -20q-128 0 -230.5 57.5t-163 165t-60.5 257.5t57 257.5t156.5 164.5t228.5 57q145 0 231.5 -57.5t125 -151.5t38.5 -203h-702v39h490q0 50 -5.5 108t-23.5 109.5t-54.5 84.5t-99.5 33q-72 0 -118 -36.5t-72 -98.5t-36 -141t-10 -165t11.5 -164.5t40 -139.5t79 -97
t128.5 -36q134 0 219 67.5t123 170.5h45q-39 -121 -137 -201t-261 -80zM271 1118l-20 21l220 220h130l220 -220l-20 -21l-266 151z" />
    <glyph glyph-name="edieresis" unicode="&#xeb;" horiz-adv-x="1047" 
d="M557 -20q-128 0 -230.5 57.5t-163 165t-60.5 257.5t57 257.5t156.5 164.5t228.5 57q145 0 231.5 -57.5t125 -151.5t38.5 -203h-702v39h490q0 50 -5.5 108t-23.5 109.5t-54.5 84.5t-99.5 33q-72 0 -118 -36.5t-72 -98.5t-36 -141t-10 -165t11.5 -164.5t40 -139.5t79 -97
t128.5 -36q134 0 219 67.5t123 170.5h45q-39 -121 -137 -201t-261 -80zM694 1110q-40 0 -68 28t-28 68t28 68.5t68 28.5t68 -28.5t28 -68.5t-28 -68t-68 -28zM374 1110q-40 0 -68 28t-28 68t28 68.5t68 28.5t68 -28.5t28 -68.5t-28 -68t-68 -28z" />
    <glyph glyph-name="edotaccent" unicode="&#x117;" horiz-adv-x="1047" 
d="M557 -20q-128 0 -230.5 57.5t-163 165t-60.5 257.5t57 257.5t156.5 164.5t228.5 57q145 0 231.5 -57.5t125 -151.5t38.5 -203h-702v39h490q0 50 -5.5 108t-23.5 109.5t-54.5 84.5t-99.5 33q-72 0 -118 -36.5t-72 -98.5t-36 -141t-10 -165t11.5 -164.5t40 -139.5t79 -97
t128.5 -36q134 0 219 67.5t123 170.5h45q-39 -121 -137 -201t-261 -80zM536 1274q-50 0 -85 35.5t-35 85.5q0 49 35 84.5t85 35.5q49 0 84.5 -35.5t35.5 -84.5q0 -50 -35.5 -85.5t-84.5 -35.5z" />
    <glyph glyph-name="egrave" unicode="&#xe8;" horiz-adv-x="1047" 
d="M557 -20q-128 0 -230.5 57.5t-163 165t-60.5 257.5t57 257.5t156.5 164.5t228.5 57q145 0 231.5 -57.5t125 -151.5t38.5 -203h-702v39h490q0 50 -5.5 108t-23.5 109.5t-54.5 84.5t-99.5 33q-72 0 -118 -36.5t-72 -98.5t-36 -141t-10 -165t11.5 -164.5t40 -139.5t79 -97
t128.5 -36q134 0 219 67.5t123 170.5h45q-39 -121 -137 -201t-261 -80zM596 1101l-263 136q-16 9 -25.5 25.5t-10 36.5t8.5 36q10 17 29 27t41.5 7.5t41.5 -23.5l202 -218z" />
    <glyph glyph-name="emacron" unicode="&#x113;" horiz-adv-x="1047" 
d="M557 -20q-128 0 -230.5 57.5t-163 165t-60.5 257.5t57 257.5t156.5 164.5t228.5 57q145 0 231.5 -57.5t125 -151.5t38.5 -203h-702v39h490q0 50 -5.5 108t-23.5 109.5t-54.5 84.5t-99.5 33q-72 0 -118 -36.5t-72 -98.5t-36 -141t-10 -165t11.5 -164.5t40 -139.5t79 -97
t128.5 -36q134 0 219 67.5t123 170.5h45q-39 -121 -137 -201t-261 -80zM295 1120v39h480v-39h-480z" />
    <glyph glyph-name="eogonek" unicode="&#x119;" horiz-adv-x="1047" 
d="M557 -20q-128 0 -230.5 57.5t-163 165t-60.5 257.5t57 257.5t156.5 164.5t228.5 57q145 0 231.5 -57.5t125 -151.5t38.5 -203h-702v39h490q0 50 -5.5 108t-23.5 109.5t-54.5 84.5t-99.5 33q-72 0 -118 -36.5t-72 -98.5t-36 -141t-10 -165t11.5 -164.5t40 -139.5t79 -97
t128.5 -36q134 0 219 67.5t123 170.5h45q-39 -121 -137 -201t-261 -80zM661 -419q-51 0 -101 18t-82.5 56t-32.5 98t25.5 106.5t67.5 81t91 58.5t96 39l12 -21q-31 -17 -55 -49.5t-37.5 -77t-13.5 -97.5q0 -63 26.5 -104t77.5 -41q48 0 78 28.5t52 67.5l25 -18
q-15 -28 -41.5 -62t-71.5 -58.5t-116 -24.5z" />
    <glyph glyph-name="f" unicode="f" horiz-adv-x="796" 
d="M234 0v1023q0 131 44.5 244.5t132 183t217.5 69.5q81 0 135.5 -30t82.5 -75.5t28 -92.5q0 -61 -34.5 -92.5t-80.5 -31.5q-25 0 -50.5 10.5t-43 34.5t-17.5 64q0 53 36.5 82t74.5 29q27 0 53 -11.5t43 -33t17 -51.5h-38q0 41 -25.5 77t-72 59t-108.5 23q-80 0 -127 -47.5
t-67 -137t-20 -216.5v-1080h-180zM64 0v39h580v-39h-580zM64 881v39h620v-39h-620z" />
    <glyph glyph-name="g" unicode="g" horiz-adv-x="1191" 
d="M516 -520q-91 0 -171 15.5t-141.5 48.5t-96.5 84t-35 122q0 68 30.5 114.5t76 74.5t92.5 40t81 12h29q-68 -34 -97.5 -90t-29.5 -130q0 -63 33 -120t97.5 -92.5t159.5 -35.5q75 0 140 18.5t113.5 53.5t76 86t27.5 116q0 59 -31.5 100t-85 63t-118.5 22h-68.5h-95h-69.5
q-135 0 -216 37t-81 127q0 53 30.5 93.5t82.5 68t117.5 41.5t136.5 14l-2 -28q-32 0 -71 -8t-74.5 -24t-58 -39t-22.5 -52q0 -52 54.5 -62.5t136.5 -10.5q35 0 64 0.5t56 1t56 0.5q56 0 114 -10t107.5 -41t79.5 -91.5t30 -162.5q0 -95 -38.5 -162.5t-104 -110t-147.5 -63
t-167 -20.5zM480 327q-61 0 -123.5 17t-116 53.5t-86 95t-32.5 140.5q0 83 32.5 141.5t86 94.5t116 53t123.5 17t122.5 -17t112.5 -53t82 -94.5t31 -141.5q0 -82 -31 -140.5t-82 -95t-112.5 -53.5t-122.5 -17zM480 366q59 0 97.5 36t57 96.5t18.5 134.5t-18.5 134.5
t-57 96.5t-97.5 36t-97 -36t-57 -96.5t-19 -134.5t10.5 -134.5t47 -96.5t115.5 -36zM1024 669q-38 0 -69.5 26t-31.5 75q0 50 32.5 71.5t68.5 21.5q37 0 70.5 -21.5t33.5 -62.5h-38q0 41 -32 77t-92 36q-37 0 -82.5 -17.5t-85.5 -63t-60 -129.5l-28 20q20 88 65 137.5
t96.5 70t91.5 20.5q49 0 86.5 -22t59 -56.5t21.5 -72.5q0 -64 -34.5 -87t-71.5 -23z" />
    <glyph glyph-name="gbreve" unicode="&#x11f;" horiz-adv-x="1191" 
d="M516 -520q-91 0 -171 15.5t-141.5 48.5t-96.5 84t-35 122q0 68 30.5 114.5t76 74.5t92.5 40t81 12h29q-68 -34 -97.5 -90t-29.5 -130q0 -63 33 -120t97.5 -92.5t159.5 -35.5q75 0 140 18.5t113.5 53.5t76 86t27.5 116q0 59 -31.5 100t-85 63t-118.5 22h-68.5h-95h-69.5
q-135 0 -216 37t-81 127q0 53 30.5 93.5t82.5 68t117.5 41.5t136.5 14l-2 -28q-32 0 -71 -8t-74.5 -24t-58 -39t-22.5 -52q0 -52 54.5 -62.5t136.5 -10.5q35 0 64 0.5t56 1t56 0.5q56 0 114 -10t107.5 -41t79.5 -91.5t30 -162.5q0 -95 -38.5 -162.5t-104 -110t-147.5 -63
t-167 -20.5zM480 327q-61 0 -123.5 17t-116 53.5t-86 95t-32.5 140.5q0 83 32.5 141.5t86 94.5t116 53t123.5 17t122.5 -17t112.5 -53t82 -94.5t31 -141.5q0 -82 -31 -140.5t-82 -95t-112.5 -53.5t-122.5 -17zM480 366q59 0 97.5 36t57 96.5t18.5 134.5t-18.5 134.5
t-57 96.5t-97.5 36t-97 -36t-57 -96.5t-19 -134.5t10.5 -134.5t47 -96.5t115.5 -36zM1024 669q-38 0 -69.5 26t-31.5 75q0 50 32.5 71.5t68.5 21.5q37 0 70.5 -21.5t33.5 -62.5h-38q0 41 -32 77t-92 36q-37 0 -82.5 -17.5t-85.5 -63t-60 -129.5l-28 20q20 88 65 137.5
t96.5 70t91.5 20.5q49 0 86.5 -22t59 -56.5t21.5 -72.5q0 -64 -34.5 -87t-71.5 -23zM539 1100q-90 0 -137 39t-64 98.5t-17 120.5h21q0 -49 27 -82t72 -49.5t98 -16.5q54 0 99 16.5t72.5 49.5t27.5 82h22q0 -61 -17.5 -120.5t-65.5 -98.5t-138 -39z" />
    <glyph glyph-name="gcircumflex" unicode="&#x11d;" horiz-adv-x="1191" 
d="M516 -520q-91 0 -171 15.5t-141.5 48.5t-96.5 84t-35 122q0 68 30.5 114.5t76 74.5t92.5 40t81 12h29q-68 -34 -97.5 -90t-29.5 -130q0 -63 33 -120t97.5 -92.5t159.5 -35.5q75 0 140 18.5t113.5 53.5t76 86t27.5 116q0 59 -31.5 100t-85 63t-118.5 22h-68.5h-95h-69.5
q-135 0 -216 37t-81 127q0 53 30.5 93.5t82.5 68t117.5 41.5t136.5 14l-2 -28q-32 0 -71 -8t-74.5 -24t-58 -39t-22.5 -52q0 -52 54.5 -62.5t136.5 -10.5q35 0 64 0.5t56 1t56 0.5q56 0 114 -10t107.5 -41t79.5 -91.5t30 -162.5q0 -95 -38.5 -162.5t-104 -110t-147.5 -63
t-167 -20.5zM480 327q-61 0 -123.5 17t-116 53.5t-86 95t-32.5 140.5q0 83 32.5 141.5t86 94.5t116 53t123.5 17t122.5 -17t112.5 -53t82 -94.5t31 -141.5q0 -82 -31 -140.5t-82 -95t-112.5 -53.5t-122.5 -17zM480 366q59 0 97.5 36t57 96.5t18.5 134.5t-18.5 134.5
t-57 96.5t-97.5 36t-97 -36t-57 -96.5t-19 -134.5t10.5 -134.5t47 -96.5t115.5 -36zM1024 669q-38 0 -69.5 26t-31.5 75q0 50 32.5 71.5t68.5 21.5q37 0 70.5 -21.5t33.5 -62.5h-38q0 41 -32 77t-92 36q-37 0 -82.5 -17.5t-85.5 -63t-60 -129.5l-28 20q20 88 65 137.5
t96.5 70t91.5 20.5q49 0 86.5 -22t59 -56.5t21.5 -72.5q0 -64 -34.5 -87t-71.5 -23zM276 1118l-20 21l220 220h130l220 -220l-20 -21l-266 151z" />
    <glyph glyph-name="uni0123" unicode="&#x123;" horiz-adv-x="1191" 
d="M516 -520q-91 0 -171 15.5t-141.5 48.5t-96.5 84t-35 122q0 68 30.5 114.5t76 74.5t92.5 40t81 12h29q-68 -34 -97.5 -90t-29.5 -130q0 -63 33 -120t97.5 -92.5t159.5 -35.5q75 0 140 18.5t113.5 53.5t76 86t27.5 116q0 59 -31.5 100t-85 63t-118.5 22h-68.5h-95h-69.5
q-135 0 -216 37t-81 127q0 53 30.5 93.5t82.5 68t117.5 41.5t136.5 14l-2 -28q-32 0 -71 -8t-74.5 -24t-58 -39t-22.5 -52q0 -52 54.5 -62.5t136.5 -10.5q35 0 64 0.5t56 1t56 0.5q56 0 114 -10t107.5 -41t79.5 -91.5t30 -162.5q0 -95 -38.5 -162.5t-104 -110t-147.5 -63
t-167 -20.5zM480 327q-61 0 -123.5 17t-116 53.5t-86 95t-32.5 140.5q0 83 32.5 141.5t86 94.5t116 53t123.5 17t122.5 -17t112.5 -53t82 -94.5t31 -141.5q0 -82 -31 -140.5t-82 -95t-112.5 -53.5t-122.5 -17zM480 366q59 0 97.5 36t57 96.5t18.5 134.5t-18.5 134.5
t-57 96.5t-97.5 36t-97 -36t-57 -96.5t-19 -134.5t10.5 -134.5t47 -96.5t115.5 -36zM1024 669q-38 0 -69.5 26t-31.5 75q0 50 32.5 71.5t68.5 21.5q37 0 70.5 -21.5t33.5 -62.5h-38q0 41 -32 77t-92 36q-37 0 -82.5 -17.5t-85.5 -63t-60 -129.5l-28 20q20 88 65 137.5
t96.5 70t91.5 20.5q49 0 86.5 -22t59 -56.5t21.5 -72.5q0 -64 -34.5 -87t-71.5 -23zM544 1099q-47 0 -79.5 39.5t-32.5 115.5q0 64 25.5 124t75 98.5t121.5 38.5v-33q-62 0 -107 -37t-66 -97.5t-11 -131.5h-11q-2 14 9.5 31t32.5 29t49 12q52 0 76.5 -27.5t24.5 -66.5
q0 -27 -14 -48.5t-38 -34t-55 -12.5z" />
    <glyph glyph-name="gdotaccent" unicode="&#x121;" horiz-adv-x="1191" 
d="M516 -520q-91 0 -171 15.5t-141.5 48.5t-96.5 84t-35 122q0 68 30.5 114.5t76 74.5t92.5 40t81 12h29q-68 -34 -97.5 -90t-29.5 -130q0 -63 33 -120t97.5 -92.5t159.5 -35.5q75 0 140 18.5t113.5 53.5t76 86t27.5 116q0 59 -31.5 100t-85 63t-118.5 22h-68.5h-95h-69.5
q-135 0 -216 37t-81 127q0 53 30.5 93.5t82.5 68t117.5 41.5t136.5 14l-2 -28q-32 0 -71 -8t-74.5 -24t-58 -39t-22.5 -52q0 -52 54.5 -62.5t136.5 -10.5q35 0 64 0.5t56 1t56 0.5q56 0 114 -10t107.5 -41t79.5 -91.5t30 -162.5q0 -95 -38.5 -162.5t-104 -110t-147.5 -63
t-167 -20.5zM480 327q-61 0 -123.5 17t-116 53.5t-86 95t-32.5 140.5q0 83 32.5 141.5t86 94.5t116 53t123.5 17t122.5 -17t112.5 -53t82 -94.5t31 -141.5q0 -82 -31 -140.5t-82 -95t-112.5 -53.5t-122.5 -17zM480 366q59 0 97.5 36t57 96.5t18.5 134.5t-18.5 134.5
t-57 96.5t-97.5 36t-97 -36t-57 -96.5t-19 -134.5t10.5 -134.5t47 -96.5t115.5 -36zM1024 669q-38 0 -69.5 26t-31.5 75q0 50 32.5 71.5t68.5 21.5q37 0 70.5 -21.5t33.5 -62.5h-38q0 41 -32 77t-92 36q-37 0 -82.5 -17.5t-85.5 -63t-60 -129.5l-28 20q20 88 65 137.5
t96.5 70t91.5 20.5q49 0 86.5 -22t59 -56.5t21.5 -72.5q0 -64 -34.5 -87t-71.5 -23zM541 1274q-50 0 -85 35.5t-35 85.5q0 49 35 84.5t85 35.5q49 0 84.5 -35.5t35.5 -84.5q0 -50 -35.5 -85.5t-84.5 -35.5z" />
    <glyph glyph-name="h" unicode="h" horiz-adv-x="1191" 
d="M73 0v39h131v1422h-131v39h310v-1461h130v-39h-440zM683 0v39h130v570q0 84 -7.5 147.5t-33.5 99t-81 35.5q-81 0 -139.5 -44t-95.5 -112.5t-55 -145t-18 -140.5l-25 -5q0 66 17.5 150.5t58 163.5t109.5 130t171 51q115 0 174 -39t80 -106.5t21 -154.5v-600h131v-39h-437
z" />
    <glyph glyph-name="hbar" unicode="&#x127;" horiz-adv-x="1191" 
d="M66 1171v38h584v-38h-584zM73 0v39h131v1422h-131v39h310v-1461h130v-39h-440zM683 0v39h130v570q0 84 -7.5 147.5t-33.5 99t-81 35.5q-81 0 -139.5 -44t-95.5 -112.5t-55 -145t-18 -140.5l-25 -5q0 66 17.5 150.5t58 163.5t109.5 130t171 51q115 0 174 -39t80 -106.5
t21 -154.5v-600h131v-39h-437z" />
    <glyph glyph-name="hcircumflex" unicode="&#x125;" horiz-adv-x="1191" 
d="M73 0v39h131v1422h-131v39h310v-1461h130v-39h-440zM683 0v39h130v570q0 84 -7.5 147.5t-33.5 99t-81 35.5q-81 0 -139.5 -44t-95.5 -112.5t-55 -145t-18 -140.5l-25 -5q0 66 17.5 150.5t58 163.5t109.5 130t171 51q115 0 174 -39t80 -106.5t21 -154.5v-600h131v-39h-437
zM346 1618l-20 21l220 220h130l220 -220l-20 -21l-266 151z" />
    <glyph glyph-name="i" unicode="i" horiz-adv-x="606" 
d="M304 1274q-50 0 -85 35.5t-35 85.5q0 49 35 84.5t85 35.5q49 0 84.5 -35.5t35.5 -84.5q0 -50 -35 -85.5t-85 -35.5zM393 920v-881h131v-39h-441v39h130v842h-130v39h310z" />
    <glyph glyph-name="dotlessi" unicode="&#x131;" horiz-adv-x="606" 
d="M393 920v-881h131v-39h-441v39h130v842h-130v39h310z" />
    <glyph glyph-name="iacute" unicode="&#xed;" horiz-adv-x="606" 
d="M393 920v-881h131v-39h-441v39h130v842h-130v39h310zM246 1101l-24 27l202 218q19 21 41.5 23.5t41.5 -7.5t29 -27q9 -16 8.5 -36t-10 -36.5t-25.5 -25.5z" />
    <glyph glyph-name="ibreve" unicode="&#x12d;" horiz-adv-x="606" 
d="M393 920v-881h131v-39h-441v39h130v842h-130v39h310zM306 1100q-90 0 -137 39t-64 98.5t-17 120.5h21q0 -49 27 -82t72 -49.5t98 -16.5q54 0 99 16.5t72.5 49.5t27.5 82h22q0 -61 -17.5 -120.5t-65.5 -98.5t-138 -39z" />
    <glyph glyph-name="icircumflex" unicode="&#xee;" horiz-adv-x="606" 
d="M393 920v-881h131v-39h-441v39h130v842h-130v39h310zM43 1118l-20 21l220 220h130l220 -220l-20 -21l-266 151z" />
    <glyph glyph-name="idieresis" unicode="&#xef;" horiz-adv-x="606" 
d="M393 920v-881h131v-39h-441v39h130v842h-130v39h310zM466 1110q-40 0 -68 28t-28 68t28 68.5t68 28.5t68 -28.5t28 -68.5t-28 -68t-68 -28zM146 1110q-40 0 -68 28t-28 68t28 68.5t68 28.5t68 -28.5t28 -68.5t-28 -68t-68 -28z" />
    <glyph glyph-name="i.loclTRK" horiz-adv-x="606" 
d="M393 920v-881h131v-39h-441v39h130v842h-130v39h310zM308 1274q-50 0 -85 35.5t-35 85.5q0 49 35 84.5t85 35.5q49 0 84.5 -35.5t35.5 -84.5q0 -50 -35.5 -85.5t-84.5 -35.5z" />
    <glyph glyph-name="igrave" unicode="&#xec;" horiz-adv-x="606" 
d="M393 920v-881h131v-39h-441v39h130v842h-130v39h310zM368 1101l-263 136q-16 9 -25.5 25.5t-10 36.5t8.5 36q10 17 29 27t41.5 7.5t41.5 -23.5l202 -218z" />
    <glyph glyph-name="ij" unicode="&#x133;" horiz-adv-x="1097" 
d="M304 1274q-50 0 -85 35.5t-35 85.5q0 49 35 84.5t85 35.5q49 0 84.5 -35.5t35.5 -84.5q0 -50 -35 -85.5t-85 -35.5zM393 920v-881h131v-39h-441v39h130v842h-130v39h310zM570 -520q-81 0 -136 31t-82.5 81t-27.5 106q0 62 34 93t80 31q25 0 50.5 -10.5t43 -34t17.5 -63.5
q0 -38 -31 -73.5t-81 -35.5q-29 0 -54.5 11t-41 31.5t-15.5 50.5h38q0 -49 23.5 -89.5t67 -65.5t104.5 -25q67 0 99 45t41 120.5t7 168.5t-2 188v841h-171v39h350v-943q0 -98 -13 -187.5t-46.5 -159t-95 -110t-158.5 -40.5zM778 1279q-50 0 -85 36t-35 85q0 50 35 85t85 35
q49 0 84 -35t35 -85q0 -49 -35 -85t-84 -36z" />
    <glyph glyph-name="imacron" unicode="&#x12b;" horiz-adv-x="606" 
d="M393 920v-881h131v-39h-441v39h130v842h-130v39h310zM67 1120v39h480v-39h-480z" />
    <glyph glyph-name="iogonek" unicode="&#x12f;" horiz-adv-x="606" 
d="M393 920v-881h131v-39h-441v39h130v842h-130v39h310zM308 1274q-50 0 -85 35.5t-35 85.5q0 49 35 84.5t85 35.5q49 0 84.5 -35.5t35.5 -84.5q0 -50 -35.5 -85.5t-84.5 -35.5zM314 -419q-51 0 -101 18t-82.5 56t-32.5 98t25.5 106.5t67.5 81t91 58.5t96 39l12 -21
q-31 -17 -55 -49.5t-37.5 -77t-13.5 -97.5q0 -63 26.5 -104t77.5 -41q48 0 78 28.5t52 67.5l25 -18q-15 -28 -41.5 -62t-71.5 -58.5t-116 -24.5z" />
    <glyph glyph-name="itilde" unicode="&#x129;" horiz-adv-x="606" 
d="M393 920v-881h131v-39h-441v39h130v842h-130v39h310zM469 1100q-57 0 -101.5 24t-82.5 55t-75.5 55t-80.5 24q-50 0 -88 -30t-38 -108h-40q0 85 32 141.5t80.5 84.5t97.5 28q59 0 102.5 -24t78.5 -55t68 -55t71 -24q57 0 92 30t35 108h39q0 -95 -23 -150.5t-65.5 -79.5
t-101.5 -24z" />
    <glyph glyph-name="j" unicode="j" horiz-adv-x="610" 
d="M110 -520q-81 0 -136 31t-82.5 81t-27.5 106q0 62 34 93t80 31q25 0 50.5 -10.5t43 -34t17.5 -63.5q0 -38 -31 -73.5t-81 -35.5q-29 0 -54.5 11t-41 31.5t-15.5 50.5h38q0 -49 23.5 -89.5t67 -65.5t104.5 -25q67 0 99 45t41 120.5t7 168.5t-2 188v841h-171v39h350v-943
q0 -98 -13 -187.5t-46.5 -159t-95 -110t-158.5 -40.5zM318 1279q-50 0 -85 36t-35 85q0 50 35 85t85 35q49 0 84 -35t35 -85q0 -49 -35 -85t-84 -36z" />
    <glyph glyph-name="uni0237" unicode="&#x237;" horiz-adv-x="610" 
d="M110 -520q-81 0 -136 31t-82.5 81t-27.5 106q0 62 34 93t80 31q25 0 50.5 -10.5t43 -34t17.5 -63.5q0 -38 -31 -73.5t-81 -35.5q-29 0 -54.5 11t-41 31.5t-15.5 50.5h38q0 -49 23.5 -89.5t67 -65.5t104.5 -25q67 0 99 45t41 120.5t7 168.5t-2 188v841h-171v39h350v-943
q0 -98 -13 -187.5t-46.5 -159t-95 -110t-158.5 -40.5z" />
    <glyph glyph-name="jcircumflex" unicode="&#x135;" horiz-adv-x="610" 
d="M110 -520q-81 0 -136 31t-82.5 81t-27.5 106q0 62 34 93t80 31q25 0 50.5 -10.5t43 -34t17.5 -63.5q0 -38 -31 -73.5t-81 -35.5q-29 0 -54.5 11t-41 31.5t-15.5 50.5h38q0 -49 23.5 -89.5t67 -65.5t104.5 -25q67 0 99 45t41 120.5t7 168.5t-2 188v841h-171v39h350v-943
q0 -98 -13 -187.5t-46.5 -159t-95 -110t-158.5 -40.5zM41 1118l-20 21l220 220h130l220 -220l-20 -21l-266 151z" />
    <glyph glyph-name="k" unicode="k" horiz-adv-x="1208" 
d="M73 0v39h171v1422h-171v39h350v-1461h140v-39h-490zM691 0v39h137l-415 487l449 355h-201v39h426v-39h-171l-349 -280l480 -562h109v-39h-465z" />
    <glyph glyph-name="uni0137" unicode="&#x137;" horiz-adv-x="1208" 
d="M73 0v39h171v1422h-171v39h350v-1461h140v-39h-490zM691 0v39h137l-415 487l449 355h-201v39h426v-39h-171l-349 -280l480 -562h109v-39h-465zM514 -616v33q62 0 107 37t66 97.5t11 131.5h11q2 -14 -9.5 -31t-32.5 -29t-49 -12q-52 0 -76.5 27.5t-24.5 66.5q0 27 14 48.5
t38.5 34t54.5 12.5q47 0 79.5 -39.5t32.5 -115.5q0 -64 -25.5 -124t-75 -98.5t-121.5 -38.5z" />
    <glyph glyph-name="kgreenlandic" unicode="&#x138;" horiz-adv-x="1204" 
d="M864 0l-449 526l499 394h54l-398 -319l512 -601h-218zM66 0v39h500v-39h-500zM246 0v881h-180v39h360v-920h-180zM684 0v39h474v-39h-474zM644 881v39h446v-39h-446z" />
    <glyph glyph-name="l" unicode="l" horiz-adv-x="666" 
d="M423 1500v-1461h170v-39h-520v39h171v1422h-171v39h350z" />
    <glyph glyph-name="lacute" unicode="&#x13a;" horiz-adv-x="666" 
d="M423 1500v-1461h170v-39h-520v39h171v1422h-171v39h350zM278 1681l-24 27l202 218q19 21 41.5 23.5t41.5 -7.5t29 -27q9 -16 8.5 -36t-10 -36.5t-25.5 -25.5z" />
    <glyph glyph-name="lcaron" unicode="&#x13e;" horiz-adv-x="666" 
d="M423 1500v-1461h170v-39h-520v39h171v1422h-171v39h350zM559 981v40q58 0 104.5 27t78 73.5t44.5 106.5t3 126h13q3 -17 -11 -38t-40.5 -36.5t-61.5 -15.5q-64 0 -95 34.5t-31 83.5q0 50 38.5 84t95.5 34q59 0 99.5 -49t40.5 -144q0 -80 -32 -155t-94 -123t-152 -48z" />
    <glyph glyph-name="uni013C" unicode="&#x13c;" horiz-adv-x="666" 
d="M423 1500v-1461h170v-39h-520v39h171v1422h-171v39h350zM237 -616v33q62 0 107 37t66 97.5t11 131.5h11q2 -14 -9.5 -31t-32.5 -29t-49 -12q-52 0 -76.5 27.5t-24.5 66.5q0 27 14 48.5t38.5 34t54.5 12.5q47 0 79.5 -39.5t32.5 -115.5q0 -64 -25.5 -124t-75 -98.5
t-121.5 -38.5z" />
    <glyph glyph-name="ldot" unicode="&#x140;" horiz-adv-x="685" 
d="M423 1500v-1461h170v-39h-520v39h171v1422h-171v39h350zM686 680q-33 0 -60 16t-43.5 43.5t-16.5 60.5t16.5 60.5t43.5 44t60 16.5t60.5 -16.5t43.5 -44t16 -60.5t-16 -60.5t-43.5 -43.5t-60.5 -16z" />
    <glyph glyph-name="lslash" unicode="&#x142;" horiz-adv-x="666" 
d="M70 753v47l570 360v-47zM423 1500v-1461h170v-39h-520v39h171v1422h-171v39h350z" />
    <glyph glyph-name="m" unicode="m" horiz-adv-x="1721" 
d="M379 920v-881h129v-39h-435v39h131v842h-131v39h306zM949 639v-600h130v-39h-435v39h129v577q0 84 -6.5 146t-31 95.5t-76.5 33.5q-71 0 -124 -44.5t-87.5 -113t-51.5 -143t-17 -134.5l-22 -5q0 66 16.5 149.5t55.5 161t104.5 127.5t163.5 50q99 0 154 -39t76.5 -106.5
t21.5 -154.5zM1518 639v-600h131v-39h-436v39h130v577q0 84 -9 146t-35.5 95.5t-79.5 33.5q-73 0 -124.5 -44.5t-83.5 -113t-47 -143t-15 -134.5l-25 -5q0 66 14.5 149.5t51.5 161t102 127.5t165 50q99 0 156 -39t81 -106.5t24 -154.5z" />
    <glyph glyph-name="n" unicode="n" horiz-adv-x="1191" 
d="M379 920v-881h129v-39h-435v39h131v842h-131v39h306zM989 639v-600h131v-39h-437v39h130v570q0 84 -7.5 147.5t-33.5 99t-81 35.5q-81 0 -140 -44t-97 -112.5t-56.5 -145t-18.5 -140.5l-25 -5q0 66 17.5 150.5t58.5 163.5t111 130t176 51q115 0 173.5 -39t78.5 -106.5
t20 -154.5z" />
    <glyph glyph-name="nacute" unicode="&#x144;" horiz-adv-x="1191" 
d="M379 920v-881h129v-39h-435v39h131v842h-131v39h306zM989 639v-600h131v-39h-437v39h130v570q0 84 -7.5 147.5t-33.5 99t-81 35.5q-81 0 -140 -44t-97 -112.5t-56.5 -145t-18.5 -140.5l-25 -5q0 66 17.5 150.5t58.5 163.5t111 130t176 51q115 0 173.5 -39t78.5 -106.5
t20 -154.5zM550 1101l-24 27l202 218q19 21 41.5 23.5t41.5 -7.5t29 -27q9 -16 8.5 -36t-10 -36.5t-25.5 -25.5z" />
    <glyph glyph-name="napostrophe" unicode="&#x149;" horiz-adv-x="1404" 
d="M559 920v-881h129v-39h-435v39h131v842h-131v39h306zM1169 639v-600h131v-39h-437v39h130v570q0 84 -7.5 147.5t-33.5 99t-81 35.5q-81 0 -140 -44t-97 -112.5t-56.5 -145t-18.5 -140.5l-25 -5q0 66 17.5 150.5t58.5 163.5t111 130t176 51q115 0 173.5 -39t78.5 -106.5
t20 -154.5zM15 937v40q58 0 104.5 27t78 73.5t44.5 106.5t3 126h13q3 -17 -11 -38t-40.5 -36.5t-61.5 -15.5q-64 0 -95 34.5t-31 83.5q0 33 17.5 60t48 42.5t68.5 15.5q39 0 71 -22t50.5 -65t18.5 -106q0 -80 -32 -155t-94 -123t-152 -48z" />
    <glyph glyph-name="ncaron" unicode="&#x148;" horiz-adv-x="1191" 
d="M379 920v-881h129v-39h-435v39h131v842h-131v39h306zM989 639v-600h131v-39h-437v39h130v570q0 84 -7.5 147.5t-33.5 99t-81 35.5q-81 0 -140 -44t-97 -112.5t-56.5 -145t-18.5 -140.5l-25 -5q0 66 17.5 150.5t58.5 163.5t111 130t176 51q115 0 173.5 -39t78.5 -106.5
t20 -154.5zM547 1120l-220 221l21 19l263 -150l265 150l21 -19l-220 -221h-130z" />
    <glyph glyph-name="uni0146" unicode="&#x146;" horiz-adv-x="1191" 
d="M379 920v-881h129v-39h-435v39h131v842h-131v39h306zM989 639v-600h131v-39h-437v39h130v570q0 84 -7.5 147.5t-33.5 99t-81 35.5q-81 0 -140 -44t-97 -112.5t-56.5 -145t-18.5 -140.5l-25 -5q0 66 17.5 150.5t58.5 163.5t111 130t176 51q115 0 173.5 -39t78.5 -106.5
t20 -154.5zM484 -616v33q62 0 107 37t66 97.5t11 131.5h11q2 -14 -9.5 -31t-32.5 -29t-49 -12q-52 0 -76.5 27.5t-24.5 66.5q0 27 14 48.5t38.5 34t54.5 12.5q47 0 79.5 -39.5t32.5 -115.5q0 -64 -25.5 -124t-75 -98.5t-121.5 -38.5z" />
    <glyph glyph-name="eng" unicode="&#x14b;" horiz-adv-x="1223" 
d="M698 -520q-81 0 -135.5 31t-82.5 81t-28 106q0 62 34 93t80 31q25 0 50.5 -10.5t43 -34t17.5 -63.5q0 -38 -28.5 -73.5t-78.5 -35.5q-29 0 -55.5 11t-43.5 31.5t-17 50.5h38q0 -47 23.5 -88.5t68 -67t108.5 -25.5q68 0 99 45.5t39 121t5 168.5t-3 188v562l180 37l-1 -662
q0 -97 -12.5 -186.5t-46.5 -159.5t-95 -110.5t-159 -40.5zM82 0v39h449v-39h-449zM222 0v881h-140v39h311v-920h-171zM368 451q0 62 23.5 144.5t70.5 161t117 130.5t163 52q115 0 172.5 -38.5t77.5 -106.5t20 -155l-180 -37q0 84 -8.5 148t-34.5 100t-80 36
q-67 0 -124.5 -43.5t-100.5 -111.5t-67 -142.5t-24 -137.5h-25z" />
    <glyph glyph-name="ntilde" unicode="&#xf1;" horiz-adv-x="1191" 
d="M379 920v-881h129v-39h-435v39h131v842h-131v39h306zM989 639v-600h131v-39h-437v39h130v570q0 84 -7.5 147.5t-33.5 99t-81 35.5q-81 0 -140 -44t-97 -112.5t-56.5 -145t-18.5 -140.5l-25 -5q0 66 17.5 150.5t58.5 163.5t111 130t176 51q115 0 173.5 -39t78.5 -106.5
t20 -154.5zM773 1100q-57 0 -101.5 24t-82.5 55t-75.5 55t-80.5 24q-50 0 -88 -30t-38 -108h-40q0 85 32 141.5t80.5 84.5t97.5 28q59 0 102.5 -24t78.5 -55t68 -55t71 -24q57 0 92 30t35 108h39q0 -95 -23 -150.5t-65.5 -79.5t-101.5 -24z" />
    <glyph glyph-name="o" unicode="o" horiz-adv-x="1122" 
d="M562 -20q-141 0 -244 66t-159 175t-56 239t56 239t159 174.5t244 65.5t243.5 -65.5t158 -174.5t55.5 -239t-55.5 -239t-158 -175t-243.5 -66zM562 19q80 0 130.5 42t77 108.5t36 143.5t9.5 147q0 71 -9.5 147.5t-36 143t-77 108.5t-130.5 42q-81 0 -131 -42t-76.5 -108.5
t-36 -143t-9.5 -147.5q0 -70 9.5 -147t36 -143.5t76.5 -108.5t131 -42z" />
    <glyph glyph-name="oacute" unicode="&#xf3;" horiz-adv-x="1122" 
d="M562 -20q-141 0 -244 66t-159 175t-56 239t56 239t159 174.5t244 65.5t243.5 -65.5t158 -174.5t55.5 -239t-55.5 -239t-158 -175t-243.5 -66zM562 19q80 0 130.5 42t77 108.5t36 143.5t9.5 147q0 71 -9.5 147.5t-36 143t-77 108.5t-130.5 42q-81 0 -131 -42t-76.5 -108.5
t-36 -143t-9.5 -147.5q0 -70 9.5 -147t36 -143.5t76.5 -108.5t131 -42zM501 1101l-24 27l202 218q19 21 41.5 23.5t41.5 -7.5t29 -27q9 -16 8.5 -36t-10 -36.5t-25.5 -25.5z" />
    <glyph glyph-name="obreve" unicode="&#x14f;" horiz-adv-x="1122" 
d="M562 -20q-141 0 -244 66t-159 175t-56 239t56 239t159 174.5t244 65.5t243.5 -65.5t158 -174.5t55.5 -239t-55.5 -239t-158 -175t-243.5 -66zM562 19q80 0 130.5 42t77 108.5t36 143.5t9.5 147q0 71 -9.5 147.5t-36 143t-77 108.5t-130.5 42q-81 0 -131 -42t-76.5 -108.5
t-36 -143t-9.5 -147.5q0 -70 9.5 -147t36 -143.5t76.5 -108.5t131 -42zM561 1100q-90 0 -137 39t-64 98.5t-17 120.5h21q0 -49 27 -82t72 -49.5t98 -16.5q54 0 99 16.5t72.5 49.5t27.5 82h22q0 -61 -17.5 -120.5t-65.5 -98.5t-138 -39z" />
    <glyph glyph-name="ocircumflex" unicode="&#xf4;" horiz-adv-x="1122" 
d="M562 -20q-141 0 -244 66t-159 175t-56 239t56 239t159 174.5t244 65.5t243.5 -65.5t158 -174.5t55.5 -239t-55.5 -239t-158 -175t-243.5 -66zM562 19q80 0 130.5 42t77 108.5t36 143.5t9.5 147q0 71 -9.5 147.5t-36 143t-77 108.5t-130.5 42q-81 0 -131 -42t-76.5 -108.5
t-36 -143t-9.5 -147.5q0 -70 9.5 -147t36 -143.5t76.5 -108.5t131 -42zM297 1118l-20 21l220 220h130l220 -220l-20 -21l-266 151z" />
    <glyph glyph-name="odieresis" unicode="&#xf6;" horiz-adv-x="1122" 
d="M562 -20q-141 0 -244 66t-159 175t-56 239t56 239t159 174.5t244 65.5t243.5 -65.5t158 -174.5t55.5 -239t-55.5 -239t-158 -175t-243.5 -66zM562 19q80 0 130.5 42t77 108.5t36 143.5t9.5 147q0 71 -9.5 147.5t-36 143t-77 108.5t-130.5 42q-81 0 -131 -42t-76.5 -108.5
t-36 -143t-9.5 -147.5q0 -70 9.5 -147t36 -143.5t76.5 -108.5t131 -42zM720 1110q-40 0 -68 28t-28 68t28 68.5t68 28.5t68 -28.5t28 -68.5t-28 -68t-68 -28zM400 1110q-40 0 -68 28t-28 68t28 68.5t68 28.5t68 -28.5t28 -68.5t-28 -68t-68 -28z" />
    <glyph glyph-name="ograve" unicode="&#xf2;" horiz-adv-x="1122" 
d="M562 -20q-141 0 -244 66t-159 175t-56 239t56 239t159 174.5t244 65.5t243.5 -65.5t158 -174.5t55.5 -239t-55.5 -239t-158 -175t-243.5 -66zM562 19q80 0 130.5 42t77 108.5t36 143.5t9.5 147q0 71 -9.5 147.5t-36 143t-77 108.5t-130.5 42q-81 0 -131 -42t-76.5 -108.5
t-36 -143t-9.5 -147.5q0 -70 9.5 -147t36 -143.5t76.5 -108.5t131 -42zM622 1101l-263 136q-16 9 -25.5 25.5t-10 36.5t8.5 36q10 17 29 27t41.5 7.5t41.5 -23.5l202 -218z" />
    <glyph glyph-name="ohungarumlaut" unicode="&#x151;" horiz-adv-x="1122" 
d="M562 -20q-141 0 -244 66t-159 175t-56 239t56 239t159 174.5t244 65.5t243.5 -65.5t158 -174.5t55.5 -239t-55.5 -239t-158 -175t-243.5 -66zM562 19q80 0 130.5 42t77 108.5t36 143.5t9.5 147q0 71 -9.5 147.5t-36 143t-77 108.5t-130.5 42q-81 0 -131 -42t-76.5 -108.5
t-36 -143t-9.5 -147.5q0 -70 9.5 -147t36 -143.5t76.5 -108.5t131 -42zM301 1101l-24 27l202 218q19 21 41.5 23.5t41.5 -7.5t29 -27q9 -16 8.5 -36t-10 -36.5t-25.5 -25.5zM711 1101l-24 27l202 218q19 21 41.5 23.5t41.5 -7.5t29 -27q9 -16 8.5 -36t-10 -36.5t-25.5 -25.5
z" />
    <glyph glyph-name="omacron" unicode="&#x14d;" horiz-adv-x="1122" 
d="M562 -20q-141 0 -244 66t-159 175t-56 239t56 239t159 174.5t244 65.5t243.5 -65.5t158 -174.5t55.5 -239t-55.5 -239t-158 -175t-243.5 -66zM562 19q80 0 130.5 42t77 108.5t36 143.5t9.5 147q0 71 -9.5 147.5t-36 143t-77 108.5t-130.5 42q-81 0 -131 -42t-76.5 -108.5
t-36 -143t-9.5 -147.5q0 -70 9.5 -147t36 -143.5t76.5 -108.5t131 -42zM321 1120v39h480v-39h-480z" />
    <glyph glyph-name="oslash" unicode="&#xf8;" horiz-adv-x="1122" 
d="M112 -246l858 1404h39l-858 -1404h-39zM562 -20q-141 0 -244 66t-159 175t-56 239t56 239t159 174.5t244 65.5t243.5 -65.5t158 -174.5t55.5 -239t-55.5 -239t-158 -175t-243.5 -66zM562 19q80 0 130.5 42t77 108.5t36 143.5t9.5 147q0 71 -9.5 147.5t-36 143t-77 108.5
t-130.5 42q-81 0 -131 -42t-76.5 -108.5t-36 -143t-9.5 -147.5q0 -70 9.5 -147t36 -143.5t76.5 -108.5t131 -42z" />
    <glyph glyph-name="otilde" unicode="&#xf5;" horiz-adv-x="1122" 
d="M562 -20q-141 0 -244 66t-159 175t-56 239t56 239t159 174.5t244 65.5t243.5 -65.5t158 -174.5t55.5 -239t-55.5 -239t-158 -175t-243.5 -66zM562 19q80 0 130.5 42t77 108.5t36 143.5t9.5 147q0 71 -9.5 147.5t-36 143t-77 108.5t-130.5 42q-81 0 -131 -42t-76.5 -108.5
t-36 -143t-9.5 -147.5q0 -70 9.5 -147t36 -143.5t76.5 -108.5t131 -42zM723 1100q-57 0 -101.5 24t-82.5 55t-75.5 55t-80.5 24q-50 0 -88 -30t-38 -108h-40q0 85 32 141.5t80.5 84.5t97.5 28q59 0 102.5 -24t78.5 -55t68 -55t71 -24q57 0 92 30t35 108h39q0 -95 -23 -150.5
t-65.5 -79.5t-101.5 -24z" />
    <glyph glyph-name="oe" unicode="&#x153;" horiz-adv-x="1762" 
d="M562 -20q-141 0 -244 66t-159 175t-56 239t56 239t159 174.5t244 65.5t243.5 -65.5t158 -174.5t55.5 -239t-55.5 -239t-158 -175t-243.5 -66zM562 19q80 0 130.5 42t77 108.5t36 143.5t9.5 147q0 71 -9.5 147.5t-36 143t-77 108.5t-130.5 42q-81 0 -131 -42t-76.5 -108.5
t-36 -143t-9.5 -147.5q0 -70 9.5 -147t36 -143.5t76.5 -108.5t131 -42zM1272 -20q-128 0 -230.5 57.5t-163 165t-60.5 257.5t57 257.5t156.5 164.5t228.5 57q145 0 231.5 -57.5t125 -151.5t38.5 -203h-702v39h490q0 50 -5.5 108t-23.5 109.5t-54.5 84.5t-99.5 33
q-72 0 -118 -36.5t-72 -98.5t-36 -141t-10 -165t11.5 -164.5t40 -139.5t79 -97t128.5 -36q134 0 219 67.5t123 170.5h45q-39 -121 -137 -201t-261 -80z" />
    <glyph glyph-name="p" unicode="p" horiz-adv-x="1217" 
d="M73 -500v39h131v1342h-131v39h310v-292q33 143 116 226.5t205 83.5q105 0 199 -57t153 -164t59 -257t-59 -257.5t-153 -165t-199 -57.5q-122 0 -205 84.5t-116 226.5v-752h130v-39h-440zM668 34q77 0 131.5 51t82.5 146t28 229t-28 228.5t-82.5 145t-131.5 50.5
q-75 0 -140 -50t-105 -144.5t-40 -229.5t40 -230t105 -145.5t140 -50.5z" />
    <glyph glyph-name="thorn" unicode="&#xfe;" horiz-adv-x="1193" 
d="M57 -500v39h140v1922h-140v39h320v-872q32 143 115 226.5t204 83.5q105 0 199.5 -57t153.5 -164t59 -257t-59 -257.5t-153.5 -165t-199.5 -57.5q-121 0 -204 84.5t-115 226.5v-752h139v-39h-459zM661 34q78 0 132 51t82 146t28 229t-28 228.5t-82 145t-132 50.5
q-75 0 -140 -50t-104.5 -144.5t-39.5 -229.5t39.5 -230t104.5 -145.5t140 -50.5z" />
    <glyph glyph-name="q" unicode="q" horiz-adv-x="1217" 
d="M703 -500v39h131v751q-33 -142 -115 -225.5t-204 -83.5q-105 0 -199 57t-153.5 164t-59.5 257t59.5 257.5t153.5 165t199 57.5q122 0 204 -84.5t115 -226.5v292h311v-39h-130v-1342h130v-39h-442zM550 35q75 0 139.5 50t104.5 144.5t40 229.5t-40 230t-104.5 145.5
t-139.5 50.5q-78 0 -132 -51t-81.5 -146t-27.5 -229t27.5 -228.5t81.5 -145t132 -50.5z" />
    <glyph glyph-name="r" unicode="r" horiz-adv-x="884" 
d="M356 429q0 88 18.5 178t56 165t94 121t133.5 46q55 0 94 -21t59 -55t20 -73q0 -51 -31 -86.5t-83 -35.5q-53 0 -84.5 29.5t-31.5 74.5q0 56 36.5 84t79.5 28q31 0 56.5 -12.5t40.5 -33.5t15 -48h-39q0 31 -18.5 56t-49.5 39t-68 14q-60 0 -110.5 -40.5t-87.5 -109
t-57 -152t-20 -168.5h-23zM379 920v-881h142v-39h-448v39h131v842h-131v39h306z" />
    <glyph glyph-name="racute" unicode="&#x155;" horiz-adv-x="884" 
d="M356 429q0 88 18.5 178t56 165t94 121t133.5 46q55 0 94 -21t59 -55t20 -73q0 -51 -31 -86.5t-83 -35.5q-53 0 -84.5 29.5t-31.5 74.5q0 56 36.5 84t79.5 28q31 0 56.5 -12.5t40.5 -33.5t15 -48h-39q0 31 -18.5 56t-49.5 39t-68 14q-60 0 -110.5 -40.5t-87.5 -109
t-57 -152t-20 -168.5h-23zM379 920v-881h142v-39h-448v39h131v842h-131v39h306zM415 1101l-24 27l202 218q19 21 41.5 23.5t41.5 -7.5t29 -27q9 -16 8.5 -36t-10 -36.5t-25.5 -25.5z" />
    <glyph glyph-name="rcaron" unicode="&#x159;" horiz-adv-x="884" 
d="M356 429q0 88 18.5 178t56 165t94 121t133.5 46q55 0 94 -21t59 -55t20 -73q0 -51 -31 -86.5t-83 -35.5q-53 0 -84.5 29.5t-31.5 74.5q0 56 36.5 84t79.5 28q31 0 56.5 -12.5t40.5 -33.5t15 -48h-39q0 31 -18.5 56t-49.5 39t-68 14q-60 0 -110.5 -40.5t-87.5 -109
t-57 -152t-20 -168.5h-23zM379 920v-881h142v-39h-448v39h131v842h-131v39h306zM412 1120l-220 221l21 19l263 -150l265 150l21 -19l-220 -221h-130z" />
    <glyph glyph-name="uni0157" unicode="&#x157;" horiz-adv-x="884" 
d="M356 429q0 88 18.5 178t56 165t94 121t133.5 46q55 0 94 -21t59 -55t20 -73q0 -51 -31 -86.5t-83 -35.5q-53 0 -84.5 29.5t-31.5 74.5q0 56 36.5 84t79.5 28q31 0 56.5 -12.5t40.5 -33.5t15 -48h-39q0 31 -18.5 56t-49.5 39t-68 14q-60 0 -110.5 -40.5t-87.5 -109
t-57 -152t-20 -168.5h-23zM379 920v-881h142v-39h-448v39h131v842h-131v39h306zM192 -616v33q62 0 107 37t66 97.5t11 131.5h11q2 -14 -9.5 -31t-32.5 -29t-49 -12q-52 0 -76.5 27.5t-24.5 66.5q0 27 14 48.5t38.5 34t54.5 12.5q47 0 79.5 -39.5t32.5 -115.5
q0 -64 -25.5 -124t-75 -98.5t-121.5 -38.5z" />
    <glyph glyph-name="uni0213" unicode="&#x213;" horiz-adv-x="884" 
d="M356 429q0 88 18.5 178t56 165t94 121t133.5 46q55 0 94 -21t59 -55t20 -73q0 -51 -31 -86.5t-83 -35.5q-53 0 -84.5 29.5t-31.5 74.5q0 56 36.5 84t79.5 28q31 0 56.5 -12.5t40.5 -33.5t15 -48h-39q0 31 -18.5 56t-49.5 39t-68 14q-60 0 -110.5 -40.5t-87.5 -109
t-57 -152t-20 -168.5h-23zM379 920v-881h142v-39h-448v39h131v842h-131v39h306zM258 1100q0 61 17.5 120.5t65 98.5t137.5 39t137.5 -39t64.5 -98.5t17 -120.5h-22q0 49 -27 82t-71.5 49.5t-98.5 16.5t-99 -16.5t-72 -49.5t-27 -82h-22z" />
    <glyph glyph-name="s" unicode="s" horiz-adv-x="878" 
d="M93 -20v292h40q11 -69 54.5 -125.5t107.5 -90.5t138 -34q56 0 106 18t81 55t31 96q0 63 -38 100t-98.5 60.5t-128 46t-128 54.5t-99 85t-38.5 141q0 64 29 123.5t89 98t155 38.5q68 0 125 -22.5t100 -58.5l75 82h35v-279h-40q-5 59 -43.5 113t-102.5 89t-147 35
q-48 0 -87 -16.5t-63 -47.5t-24 -74q0 -55 40.5 -89.5t103.5 -59.5t134 -49.5t134.5 -59t103.5 -88t40 -136.5q0 -89 -43.5 -156t-117.5 -104t-168 -37q-69 0 -131 24t-110 65l-81 -89h-34z" />
    <glyph glyph-name="sacute" unicode="&#x15b;" horiz-adv-x="878" 
d="M93 -20v292h40q11 -69 54.5 -125.5t107.5 -90.5t138 -34q56 0 106 18t81 55t31 96q0 63 -38 100t-98.5 60.5t-128 46t-128 54.5t-99 85t-38.5 141q0 64 29 123.5t89 98t155 38.5q68 0 125 -22.5t100 -58.5l75 82h35v-279h-40q-5 59 -43.5 113t-102.5 89t-147 35
q-48 0 -87 -16.5t-63 -47.5t-24 -74q0 -55 40.5 -89.5t103.5 -59.5t134 -49.5t134.5 -59t103.5 -88t40 -136.5q0 -89 -43.5 -156t-117.5 -104t-168 -37q-69 0 -131 24t-110 65l-81 -89h-34zM370 1101l-24 27l202 218q19 21 41.5 23.5t41.5 -7.5t29 -27q9 -16 8.5 -36
t-10 -36.5t-25.5 -25.5z" />
    <glyph glyph-name="scaron" unicode="&#x161;" horiz-adv-x="878" 
d="M93 -20v292h40q11 -69 54.5 -125.5t107.5 -90.5t138 -34q56 0 106 18t81 55t31 96q0 63 -38 100t-98.5 60.5t-128 46t-128 54.5t-99 85t-38.5 141q0 64 29 123.5t89 98t155 38.5q68 0 125 -22.5t100 -58.5l75 82h35v-279h-40q-5 59 -43.5 113t-102.5 89t-147 35
q-48 0 -87 -16.5t-63 -47.5t-24 -74q0 -55 40.5 -89.5t103.5 -59.5t134 -49.5t134.5 -59t103.5 -88t40 -136.5q0 -89 -43.5 -156t-117.5 -104t-168 -37q-69 0 -131 24t-110 65l-81 -89h-34zM367 1120l-220 221l21 19l263 -150l265 150l21 -19l-220 -221h-130z" />
    <glyph glyph-name="scedilla" unicode="&#x15f;" horiz-adv-x="878" 
d="M93 -20v292h40q11 -69 54.5 -125.5t107.5 -90.5t138 -34q56 0 106 18t81 55t31 96q0 63 -38 100t-98.5 60.5t-128 46t-128 54.5t-99 85t-38.5 141q0 64 29 123.5t89 98t155 38.5q68 0 125 -22.5t100 -58.5l75 82h35v-279h-40q-5 59 -43.5 113t-102.5 89t-147 35
q-48 0 -87 -16.5t-63 -47.5t-24 -74q0 -55 40.5 -89.5t103.5 -59.5t134 -49.5t134.5 -59t103.5 -88t40 -136.5q0 -89 -43.5 -156t-117.5 -104t-168 -37q-69 0 -131 24t-110 65l-81 -89h-34zM272 -502v39q89 0 142.5 31.5t53.5 78.5t-29 72t-79.5 34t-115.5 9l175 235h49
l-116 -155q73 -3 131 -20t92.5 -51.5t34.5 -90.5q0 -50 -34 -91.5t-108.5 -66t-195.5 -24.5z" />
    <glyph glyph-name="scircumflex" unicode="&#x15d;" horiz-adv-x="878" 
d="M93 -20v292h40q11 -69 54.5 -125.5t107.5 -90.5t138 -34q56 0 106 18t81 55t31 96q0 63 -38 100t-98.5 60.5t-128 46t-128 54.5t-99 85t-38.5 141q0 64 29 123.5t89 98t155 38.5q68 0 125 -22.5t100 -58.5l75 82h35v-279h-40q-5 59 -43.5 113t-102.5 89t-147 35
q-48 0 -87 -16.5t-63 -47.5t-24 -74q0 -55 40.5 -89.5t103.5 -59.5t134 -49.5t134.5 -59t103.5 -88t40 -136.5q0 -89 -43.5 -156t-117.5 -104t-168 -37q-69 0 -131 24t-110 65l-81 -89h-34zM167 1118l-20 21l220 220h130l220 -220l-20 -21l-266 151z" />
    <glyph glyph-name="uni0219" unicode="&#x219;" horiz-adv-x="878" 
d="M93 -20v292h40q11 -69 54.5 -125.5t107.5 -90.5t138 -34q56 0 106 18t81 55t31 96q0 63 -38 100t-98.5 60.5t-128 46t-128 54.5t-99 85t-38.5 141q0 64 29 123.5t89 98t155 38.5q68 0 125 -22.5t100 -58.5l75 82h35v-279h-40q-5 59 -43.5 113t-102.5 89t-147 35
q-48 0 -87 -16.5t-63 -47.5t-24 -74q0 -55 40.5 -89.5t103.5 -59.5t134 -49.5t134.5 -59t103.5 -88t40 -136.5q0 -89 -43.5 -156t-117.5 -104t-168 -37q-69 0 -131 24t-110 65l-81 -89h-34zM324 -624v33q62 0 107 37t66 97.5t11 131.5h11q2 -14 -9.5 -31t-32.5 -29t-49 -12
q-52 0 -76.5 27.5t-24.5 66.5q0 27 14 48.5t38.5 34t54.5 12.5q47 0 79.5 -39.5t32.5 -115.5q0 -64 -25.5 -124t-75 -98.5t-121.5 -38.5z" />
    <glyph glyph-name="germandbls" unicode="&#xdf;" horiz-adv-x="1361" 
d="M210 0v982q0 130 37.5 230t108 168.5t169.5 104t221 35.5q107 0 195 -29.5t151 -80t97 -114.5t34 -134q0 -100 -50.5 -180.5t-168 -128t-318.5 -47.5v24q97 0 161.5 30.5t102.5 78.5t54 102t16 102q0 54 -14 113.5t-45 111t-84 84t-131 32.5q-100 0 -168.5 -41
t-109.5 -113.5t-59 -166.5t-18 -201v-962h-181zM29 0v39h541v-39h-541zM902 -20q-107 0 -181.5 76.5t-74.5 214.5q0 62 36 96.5t88 34.5q46 0 77 -29t31 -83q0 -32 -16 -57t-42 -39t-56 -14q-22 0 -48.5 10t-46.5 30.5t-21 50.5h38q0 -85 29 -140.5t76.5 -83t101.5 -27.5
q59 0 96 28t56.5 73.5t27 98t7.5 100.5q0 71 -14.5 152.5t-55.5 154t-119 119t-205 46.5v24q181 0 297.5 -40.5t181.5 -110t91 -158.5t26 -187q0 -75 -30.5 -137.5t-83.5 -107.5t-121.5 -70t-144.5 -25z" />
    <glyph glyph-name="longs" unicode="&#x17f;" horiz-adv-x="796" 
d="M628 1520q81 0 135.5 -30t82.5 -75.5t28 -92.5q0 -61 -34.5 -92.5t-80.5 -31.5q-25 0 -50.5 10.5t-43 34.5t-17.5 64q0 36 18 61t44.5 38t51.5 12q16 -2 31 -13.5t20 -29.5q-12 29 -37.5 53t-63 38.5t-84.5 14.5q-80 0 -127 -47.5t-67 -137t-20 -216.5v-1041h230v-39
h-580v39h170v984q0 131 44.5 244.5t132 183t217.5 69.5z" />
    <glyph glyph-name="t" unicode="t" horiz-adv-x="671" 
d="M381 -14q-82 0 -123.5 36.5t-56 91t-14.5 109.5v897q45 0 97 19t82 41v-1004q0 -75 18.5 -100t60.5 -25q47 0 90.5 42t70.5 95l33 -21q-40 -81 -101 -131t-157 -50zM53 881v39h527v-39h-527z" />
    <glyph glyph-name="tbar" unicode="&#x167;" horiz-adv-x="671" 
d="M52 591v38h535v-38h-535zM381 -14q-82 0 -123.5 36.5t-56 91t-14.5 109.5v897q45 0 97 19t82 41v-1004q0 -75 18.5 -100t60.5 -25q47 0 90.5 42t70.5 95l33 -21q-40 -81 -101 -131t-157 -50zM53 881v39h527v-39h-527z" />
    <glyph glyph-name="tcaron" unicode="&#x165;" horiz-adv-x="671" 
d="M381 -14q-82 0 -123.5 36.5t-56 91t-14.5 109.5v897q45 0 97 19t82 41v-1004q0 -75 18.5 -100t60.5 -25q47 0 90.5 42t70.5 95l33 -21q-40 -81 -101 -131t-157 -50zM53 881v39h527v-39h-527zM470 1081v40q58 0 104.5 27t78 73.5t44.5 106.5t3 126h13q3 -17 -11 -38
t-40.5 -36.5t-61.5 -15.5q-64 0 -95 34.5t-31 83.5q0 50 38.5 84t95.5 34q59 0 99.5 -49t40.5 -144q0 -80 -32 -155t-94 -123t-152 -48z" />
    <glyph glyph-name="uni0163" unicode="&#x163;" horiz-adv-x="671" 
d="M381 -14q-82 0 -123.5 36.5t-56 91t-14.5 109.5v897q45 0 97 19t82 41v-1004q0 -75 18.5 -100t60.5 -25q47 0 90.5 42t70.5 95l33 -21q-40 -81 -101 -131t-157 -50zM53 881v39h527v-39h-527zM217 -494v39q89 0 142.5 31.5t53.5 78.5t-29 72t-79.5 34t-115.5 9l175 235h49
l-116 -155q73 -3 131 -20t92.5 -51.5t34.5 -90.5q0 -50 -34 -91.5t-108.5 -66t-195.5 -24.5z" />
    <glyph glyph-name="uni021B" unicode="&#x21b;" horiz-adv-x="671" 
d="M381 -14q-82 0 -123.5 36.5t-56 91t-14.5 109.5v897q45 0 97 19t82 41v-1004q0 -75 18.5 -100t60.5 -25q47 0 90.5 42t70.5 95l33 -21q-40 -81 -101 -131t-157 -50zM53 881v39h527v-39h-527zM269 -616v33q62 0 107 37t66 97.5t11 131.5h11q2 -14 -9.5 -31t-32.5 -29
t-49 -12q-52 0 -76.5 27.5t-24.5 66.5q0 27 14 48.5t38.5 34t54.5 12.5q47 0 79.5 -39.5t32.5 -115.5q0 -64 -25.5 -124t-75 -98.5t-121.5 -38.5z" />
    <glyph glyph-name="u" unicode="u" horiz-adv-x="1196" 
d="M480 -20q-116 0 -175.5 39.5t-80 107.5t-20.5 155v599h-131v39h310v-609q0 -84 8 -147.5t34 -99t81 -35.5q81 0 139.5 44t95.5 112.5t54.5 145t17.5 140.5l23 5q0 -66 -15.5 -150.5t-54.5 -163.5t-108.5 -130.5t-177.5 -51.5zM813 0v881h-140v39h321v-881h130v-39h-311z
" />
    <glyph glyph-name="uacute" unicode="&#xfa;" horiz-adv-x="1196" 
d="M480 -20q-116 0 -175.5 39.5t-80 107.5t-20.5 155v599h-131v39h310v-609q0 -84 8 -147.5t34 -99t81 -35.5q81 0 139.5 44t95.5 112.5t54.5 145t17.5 140.5l23 5q0 -66 -15.5 -150.5t-54.5 -163.5t-108.5 -130.5t-177.5 -51.5zM813 0v881h-140v39h321v-881h130v-39h-311z
M486 1101l-24 27l202 218q19 21 41.5 23.5t41.5 -7.5t29 -27q9 -16 8.5 -36t-10 -36.5t-25.5 -25.5z" />
    <glyph glyph-name="ubreve" unicode="&#x16d;" horiz-adv-x="1196" 
d="M480 -20q-116 0 -175.5 39.5t-80 107.5t-20.5 155v599h-131v39h310v-609q0 -84 8 -147.5t34 -99t81 -35.5q81 0 139.5 44t95.5 112.5t54.5 145t17.5 140.5l23 5q0 -66 -15.5 -150.5t-54.5 -163.5t-108.5 -130.5t-177.5 -51.5zM813 0v881h-140v39h321v-881h130v-39h-311z
M546 1100q-90 0 -137 39t-64 98.5t-17 120.5h21q0 -49 27 -82t72 -49.5t98 -16.5q54 0 99 16.5t72.5 49.5t27.5 82h22q0 -61 -17.5 -120.5t-65.5 -98.5t-138 -39z" />
    <glyph glyph-name="ucircumflex" unicode="&#xfb;" horiz-adv-x="1196" 
d="M480 -20q-116 0 -175.5 39.5t-80 107.5t-20.5 155v599h-131v39h310v-609q0 -84 8 -147.5t34 -99t81 -35.5q81 0 139.5 44t95.5 112.5t54.5 145t17.5 140.5l23 5q0 -66 -15.5 -150.5t-54.5 -163.5t-108.5 -130.5t-177.5 -51.5zM813 0v881h-140v39h321v-881h130v-39h-311z
M282 1118l-20 21l220 220h130l220 -220l-20 -21l-266 151z" />
    <glyph glyph-name="udieresis" unicode="&#xfc;" horiz-adv-x="1196" 
d="M480 -20q-116 0 -175.5 39.5t-80 107.5t-20.5 155v599h-131v39h310v-609q0 -84 8 -147.5t34 -99t81 -35.5q81 0 139.5 44t95.5 112.5t54.5 145t17.5 140.5l23 5q0 -66 -15.5 -150.5t-54.5 -163.5t-108.5 -130.5t-177.5 -51.5zM813 0v881h-140v39h321v-881h130v-39h-311z
M705 1110q-40 0 -68 28t-28 68t28 68.5t68 28.5t68 -28.5t28 -68.5t-28 -68t-68 -28zM385 1110q-40 0 -68 28t-28 68t28 68.5t68 28.5t68 -28.5t28 -68.5t-28 -68t-68 -28z" />
    <glyph glyph-name="ugrave" unicode="&#xf9;" horiz-adv-x="1196" 
d="M480 -20q-116 0 -175.5 39.5t-80 107.5t-20.5 155v599h-131v39h310v-609q0 -84 8 -147.5t34 -99t81 -35.5q81 0 139.5 44t95.5 112.5t54.5 145t17.5 140.5l23 5q0 -66 -15.5 -150.5t-54.5 -163.5t-108.5 -130.5t-177.5 -51.5zM813 0v881h-140v39h321v-881h130v-39h-311z
M607 1101l-263 136q-16 9 -25.5 25.5t-10 36.5t8.5 36q10 17 29 27t41.5 7.5t41.5 -23.5l202 -218z" />
    <glyph glyph-name="uhungarumlaut" unicode="&#x171;" horiz-adv-x="1196" 
d="M480 -20q-116 0 -175.5 39.5t-80 107.5t-20.5 155v599h-131v39h310v-609q0 -84 8 -147.5t34 -99t81 -35.5q81 0 139.5 44t95.5 112.5t54.5 145t17.5 140.5l23 5q0 -66 -15.5 -150.5t-54.5 -163.5t-108.5 -130.5t-177.5 -51.5zM813 0v881h-140v39h321v-881h130v-39h-311z
M286 1101l-24 27l202 218q19 21 41.5 23.5t41.5 -7.5t29 -27q9 -16 8.5 -36t-10 -36.5t-25.5 -25.5zM696 1101l-24 27l202 218q19 21 41.5 23.5t41.5 -7.5t29 -27q9 -16 8.5 -36t-10 -36.5t-25.5 -25.5z" />
    <glyph glyph-name="umacron" unicode="&#x16b;" horiz-adv-x="1196" 
d="M480 -20q-116 0 -175.5 39.5t-80 107.5t-20.5 155v599h-131v39h310v-609q0 -84 8 -147.5t34 -99t81 -35.5q81 0 139.5 44t95.5 112.5t54.5 145t17.5 140.5l23 5q0 -66 -15.5 -150.5t-54.5 -163.5t-108.5 -130.5t-177.5 -51.5zM813 0v881h-140v39h321v-881h130v-39h-311z
M306 1120v39h480v-39h-480z" />
    <glyph glyph-name="uogonek" unicode="&#x173;" horiz-adv-x="1196" 
d="M480 -20q-116 0 -175.5 39.5t-80 107.5t-20.5 155v599h-131v39h310v-609q0 -84 8 -147.5t34 -99t81 -35.5q81 0 139.5 44t95.5 112.5t54.5 145t17.5 140.5l23 5q0 -66 -15.5 -150.5t-54.5 -163.5t-108.5 -130.5t-177.5 -51.5zM813 0v881h-140v39h321v-881h130v-39h-311z
M909 -419q-51 0 -101 18t-82.5 56t-32.5 98t25.5 106.5t67.5 81t91 58.5t96 39l12 -21q-31 -17 -55 -49.5t-37.5 -77t-13.5 -97.5q0 -63 26.5 -104t77.5 -41q48 0 78 28.5t52 67.5l25 -18q-15 -28 -41.5 -62t-71.5 -58.5t-116 -24.5z" />
    <glyph glyph-name="uring" unicode="&#x16f;" horiz-adv-x="1196" 
d="M480 -20q-116 0 -175.5 39.5t-80 107.5t-20.5 155v599h-131v39h310v-609q0 -84 8 -147.5t34 -99t81 -35.5q81 0 139.5 44t95.5 112.5t54.5 145t17.5 140.5l23 5q0 -66 -15.5 -150.5t-54.5 -163.5t-108.5 -130.5t-177.5 -51.5zM813 0v881h-140v39h321v-881h130v-39h-311z
M546 1100q-76 0 -127.5 51.5t-51.5 127.5q0 77 51.5 129t127.5 52q77 0 128.5 -52t51.5 -129q0 -76 -51.5 -127.5t-128.5 -51.5zM546 1140q37 0 60.5 19t34.5 50.5t11 69.5q0 39 -11 71t-34.5 51.5t-60.5 19.5t-60.5 -19.5t-34 -51.5t-10.5 -71q0 -38 10.5 -69.5t34 -50.5
t60.5 -19z" />
    <glyph glyph-name="utilde" unicode="&#x169;" horiz-adv-x="1196" 
d="M480 -20q-116 0 -175.5 39.5t-80 107.5t-20.5 155v599h-131v39h310v-609q0 -84 8 -147.5t34 -99t81 -35.5q81 0 139.5 44t95.5 112.5t54.5 145t17.5 140.5l23 5q0 -66 -15.5 -150.5t-54.5 -163.5t-108.5 -130.5t-177.5 -51.5zM813 0v881h-140v39h321v-881h130v-39h-311z
M708 1100q-57 0 -101.5 24t-82.5 55t-75.5 55t-80.5 24q-50 0 -88 -30t-38 -108h-40q0 85 32 141.5t80.5 84.5t97.5 28q59 0 102.5 -24t78.5 -55t68 -55t71 -24q57 0 92 30t35 108h39q0 -95 -23 -150.5t-65.5 -79.5t-101.5 -24z" />
    <glyph glyph-name="v" unicode="v" horiz-adv-x="1084" 
d="M1041 920v-39h-116l-367 -901h-43l-370 901h-112v39h479v-39h-169l260 -676l275 676h-179v39h342z" />
    <glyph glyph-name="w" unicode="w" horiz-adv-x="1523" 
d="M1480 920v-39h-141l-302 -901h-39l-238 703l-291 -703h-42l-281 901h-113v39h435v-39h-150l206 -661l297 719h44l218 -688l211 630h-177v39h363z" />
    <glyph glyph-name="wacute" unicode="&#x1e83;" horiz-adv-x="1523" 
d="M1480 920v-39h-141l-302 -901h-39l-238 703l-291 -703h-42l-281 901h-113v39h435v-39h-150l206 -661l297 719h44l218 -688l211 630h-177v39h363zM696 1101l-24 27l202 218q19 21 41.5 23.5t41.5 -7.5t29 -27q9 -16 8.5 -36t-10 -36.5t-25.5 -25.5z" />
    <glyph glyph-name="wcircumflex" unicode="&#x175;" horiz-adv-x="1523" 
d="M1480 920v-39h-141l-302 -901h-39l-238 703l-291 -703h-42l-281 901h-113v39h435v-39h-150l206 -661l297 719h44l218 -688l211 630h-177v39h363zM492 1118l-20 21l220 220h130l220 -220l-20 -21l-266 151z" />
    <glyph glyph-name="wdieresis" unicode="&#x1e85;" horiz-adv-x="1523" 
d="M1480 920v-39h-141l-302 -901h-39l-238 703l-291 -703h-42l-281 901h-113v39h435v-39h-150l206 -661l297 719h44l218 -688l211 630h-177v39h363zM915 1110q-40 0 -68 28t-28 68t28 68.5t68 28.5t68 -28.5t28 -68.5t-28 -68t-68 -28zM595 1110q-40 0 -68 28t-28 68
t28 68.5t68 28.5t68 -28.5t28 -68.5t-28 -68t-68 -28z" />
    <glyph glyph-name="uni1E87" unicode="&#x1e87;" horiz-adv-x="1523" 
d="M1480 920v-39h-141l-302 -901h-39l-238 703l-291 -703h-42l-281 901h-113v39h435v-39h-150l206 -661l297 719h44l218 -688l211 630h-177v39h363zM757 1274q-50 0 -85 35.5t-35 85.5q0 49 35 84.5t85 35.5q49 0 84.5 -35.5t35.5 -84.5q0 -50 -35.5 -85.5t-84.5 -35.5z" />
    <glyph glyph-name="uni1E89" unicode="&#x1e89;" horiz-adv-x="1523" 
d="M1480 920v-39h-141l-302 -901h-39l-238 703l-291 -703h-42l-281 901h-113v39h435v-39h-150l206 -661l297 719h44l218 -688l211 630h-177v39h363zM757 -410q-49 0 -84.5 36t-35.5 85q0 50 35.5 85t84.5 35q50 0 85 -35t35 -85q0 -49 -35 -85t-85 -36z" />
    <glyph glyph-name="wgrave" unicode="&#x1e81;" horiz-adv-x="1523" 
d="M1480 920v-39h-141l-302 -901h-39l-238 703l-291 -703h-42l-281 901h-113v39h435v-39h-150l206 -661l297 719h44l218 -688l211 630h-177v39h363zM817 1101l-263 136q-16 9 -25.5 25.5t-10 36.5t8.5 36q10 17 29 27t41.5 7.5t41.5 -23.5l202 -218z" />
    <glyph glyph-name="x" unicode="x" horiz-adv-x="1154" 
d="M669 0v39h111l-580 842h-127v39h473v-39h-131l579 -842h108v-39h-433zM53 0v39h131l689 842h-160v39h359v-39h-150l-689 -842h189v-39h-369z" />
    <glyph glyph-name="y" unicode="y" horiz-adv-x="1093" 
d="M325 881l336 -698l-97 -222l-439 920h-92v39h450v-39h-158zM1081 920v-39h-113l-539 -1277q-27 -61 -58.5 -96t-88.5 -35q-25 0 -51 11t-44 34.5t-18 61.5q0 33 14.5 58t39.5 39t57 14q25 0 46.5 -10.5t36.5 -29t20 -43.5l538 1273h-158v39h318z" />
    <glyph glyph-name="yacute" unicode="&#xfd;" horiz-adv-x="1093" 
d="M325 881l336 -698l-97 -222l-439 920h-92v39h450v-39h-158zM1081 920v-39h-113l-539 -1277q-27 -61 -58.5 -96t-88.5 -35q-25 0 -51 11t-44 34.5t-18 61.5q0 33 14.5 58t39.5 39t57 14q25 0 46.5 -10.5t36.5 -29t20 -43.5l538 1273h-158v39h318zM545 1101l-24 27l202 218
q19 21 41.5 23.5t41.5 -7.5t29 -27q9 -16 8.5 -36t-10 -36.5t-25.5 -25.5z" />
    <glyph glyph-name="ycircumflex" unicode="&#x177;" horiz-adv-x="1093" 
d="M325 881l336 -698l-97 -222l-439 920h-92v39h450v-39h-158zM1081 920v-39h-113l-539 -1277q-27 -61 -58.5 -96t-88.5 -35q-25 0 -51 11t-44 34.5t-18 61.5q0 33 14.5 58t39.5 39t57 14q25 0 46.5 -10.5t36.5 -29t20 -43.5l538 1273h-158v39h318zM342 1118l-20 21l220 220
h130l220 -220l-20 -21l-266 151z" />
    <glyph glyph-name="ydieresis" unicode="&#xff;" horiz-adv-x="1093" 
d="M325 881l336 -698l-97 -222l-439 920h-92v39h450v-39h-158zM1081 920v-39h-113l-539 -1277q-27 -61 -58.5 -96t-88.5 -35q-25 0 -51 11t-44 34.5t-18 61.5q0 33 14.5 58t39.5 39t57 14q25 0 46.5 -10.5t36.5 -29t20 -43.5l538 1273h-158v39h318zM765 1110q-40 0 -68 28
t-28 68t28 68.5t68 28.5t68 -28.5t28 -68.5t-28 -68t-68 -28zM445 1110q-40 0 -68 28t-28 68t28 68.5t68 28.5t68 -28.5t28 -68.5t-28 -68t-68 -28z" />
    <glyph glyph-name="ygrave" unicode="&#x1ef3;" horiz-adv-x="1093" 
d="M325 881l336 -698l-97 -222l-439 920h-92v39h450v-39h-158zM1081 920v-39h-113l-539 -1277q-27 -61 -58.5 -96t-88.5 -35q-25 0 -51 11t-44 34.5t-18 61.5q0 33 14.5 58t39.5 39t57 14q25 0 46.5 -10.5t36.5 -29t20 -43.5l538 1273h-158v39h318zM666 1101l-263 136
q-16 9 -25.5 25.5t-10 36.5t8.5 36q10 17 29 27t41.5 7.5t41.5 -23.5l202 -218z" />
    <glyph glyph-name="z" unicode="z" horiz-adv-x="934" 
d="M64 0v39l554 842h-186q-114 0 -173 -34t-79.5 -102t-20.5 -169h-39v344h708v-39l-556 -842h230q102 0 165.5 16.5t97 54.5t45.5 101.5t12 156.5h38v-368h-796z" />
    <glyph glyph-name="zacute" unicode="&#x17a;" horiz-adv-x="934" 
d="M64 0v39l554 842h-186q-114 0 -173 -34t-79.5 -102t-20.5 -169h-39v344h708v-39l-556 -842h230q102 0 165.5 16.5t97 54.5t45.5 101.5t12 156.5h38v-368h-796zM415 1101l-24 27l202 218q19 21 41.5 23.5t41.5 -7.5t29 -27q9 -16 8.5 -36t-10 -36.5t-25.5 -25.5z" />
    <glyph glyph-name="zcaron" unicode="&#x17e;" horiz-adv-x="934" 
d="M64 0v39l554 842h-186q-114 0 -173 -34t-79.5 -102t-20.5 -169h-39v344h708v-39l-556 -842h230q102 0 165.5 16.5t97 54.5t45.5 101.5t12 156.5h38v-368h-796zM412 1120l-220 221l21 19l263 -150l265 150l21 -19l-220 -221h-130z" />
    <glyph glyph-name="zdotaccent" unicode="&#x17c;" horiz-adv-x="934" 
d="M64 0v39l554 842h-186q-114 0 -173 -34t-79.5 -102t-20.5 -169h-39v344h708v-39l-556 -842h230q102 0 165.5 16.5t97 54.5t45.5 101.5t12 156.5h38v-368h-796zM477 1274q-50 0 -85 35.5t-35 85.5q0 49 35 84.5t85 35.5q49 0 84.5 -35.5t35.5 -84.5q0 -50 -35.5 -85.5
t-84.5 -35.5z" />
    <glyph glyph-name="longs_t" horiz-adv-x="1372" 
d="M1086 -14q-82 0 -123.5 36.5t-56 91.5t-14.5 109v857q0 127 -21.5 216.5t-74.5 137t-148 47.5t-148 -47.5t-74.5 -137t-21.5 -216.5v-1080h-180v1023q0 131 45.5 244.5t139.5 183t239 69.5t239 -69.5t139.5 -183t45.5 -244.5l-1 -845q0 -75 18.5 -101t62.5 -26
q30 0 60 19.5t55.5 50.5t43.5 67l33 -21q-40 -81 -101.5 -131t-156.5 -50zM64 0v39h580v-39h-580zM770 881v39h515v-39h-515z" />
    <glyph glyph-name="a.sc" horiz-adv-x="1179" 
d="M98 0l472 1039h55l460 -1039h-221l-352 826l-369 -826h-45zM0 0v39h340v-39h-340zM275 317v39h620v-39h-620zM679 0v39h500v-39h-500z" />
    <glyph glyph-name="aacute.sc" horiz-adv-x="1179" 
d="M98 0l472 1039h55l460 -1039h-221l-352 826l-369 -826h-45zM0 0v39h340v-39h-340zM275 317v39h620v-39h-620zM679 0v39h500v-39h-500zM553 1191l-24 27l202 218q19 21 41.5 23.5t41.5 -7.5t29 -27q9 -16 8.5 -36t-10 -36.5t-25.5 -25.5z" />
    <glyph glyph-name="abreve.sc" horiz-adv-x="1179" 
d="M98 0l472 1039h55l460 -1039h-221l-352 826l-369 -826h-45zM0 0v39h340v-39h-340zM275 317v39h620v-39h-620zM679 0v39h500v-39h-500zM613 1190q-90 0 -137 39t-64 98.5t-17 120.5h21q0 -49 27 -82t72 -49.5t98 -16.5q54 0 99 16.5t72.5 49.5t27.5 82h22
q0 -61 -17.5 -120.5t-65.5 -98.5t-138 -39z" />
    <glyph glyph-name="acircumflex.sc" horiz-adv-x="1179" 
d="M98 0l472 1039h55l460 -1039h-221l-352 826l-369 -826h-45zM0 0v39h340v-39h-340zM275 317v39h620v-39h-620zM679 0v39h500v-39h-500zM350 1208l-20 21l220 220h130l220 -220l-20 -21l-266 151z" />
    <glyph glyph-name="adieresis.sc" horiz-adv-x="1179" 
d="M98 0l472 1039h55l460 -1039h-221l-352 826l-369 -826h-45zM0 0v39h340v-39h-340zM275 317v39h620v-39h-620zM679 0v39h500v-39h-500zM773 1200q-40 0 -68 28t-28 68t28 68.5t68 28.5t68 -28.5t28 -68.5t-28 -68t-68 -28zM453 1200q-40 0 -68 28t-28 68t28 68.5t68 28.5
t68 -28.5t28 -68.5t-28 -68t-68 -28z" />
    <glyph glyph-name="agrave.sc" horiz-adv-x="1179" 
d="M98 0l472 1039h55l460 -1039h-221l-352 826l-369 -826h-45zM0 0v39h340v-39h-340zM275 317v39h620v-39h-620zM679 0v39h500v-39h-500zM674 1191l-263 136q-16 9 -25.5 25.5t-10 36.5t8.5 36q10 17 29 27t41.5 7.5t41.5 -23.5l202 -218z" />
    <glyph glyph-name="aogonek.sc" horiz-adv-x="1179" 
d="M98 0l472 1039h55l460 -1039h-221l-352 826l-369 -826h-45zM0 0v39h340v-39h-340zM275 317v39h620v-39h-620zM679 0v39h500v-39h-500zM937 -419q-51 0 -101 18t-82.5 56t-32.5 98t25.5 106.5t67.5 81t91 58.5t96 39l12 -21q-31 -17 -55 -49.5t-37.5 -77t-13.5 -97.5
q0 -63 26.5 -104t77.5 -41q48 0 78 28.5t52 67.5l25 -18q-15 -28 -41.5 -62t-71.5 -58.5t-116 -24.5z" />
    <glyph glyph-name="aring.sc" horiz-adv-x="1179" 
d="M98 0l472 1039h55l460 -1039h-221l-352 826l-369 -826h-45zM0 0v39h340v-39h-340zM275 317v39h620v-39h-620zM679 0v39h500v-39h-500zM614 1190q-76 0 -127.5 51.5t-51.5 127.5q0 77 51.5 129t127.5 52q77 0 128.5 -52t51.5 -129q0 -76 -51.5 -127.5t-128.5 -51.5z
M614 1230q37 0 60.5 19t34.5 50.5t11 69.5q0 39 -11 71t-34.5 51.5t-60.5 19.5t-60.5 -19.5t-34 -51.5t-10.5 -71q0 -38 10.5 -69.5t34 -50.5t60.5 -19z" />
    <glyph glyph-name="atilde.sc" horiz-adv-x="1179" 
d="M98 0l472 1039h55l460 -1039h-221l-352 826l-369 -826h-45zM0 0v39h340v-39h-340zM275 317v39h620v-39h-620zM679 0v39h500v-39h-500zM776 1190q-57 0 -101.5 24t-82.5 55t-75.5 55t-80.5 24q-50 0 -88 -30t-38 -108h-40q0 85 32 141.5t80.5 84.5t97.5 28q59 0 102.5 -24
t78.5 -55t68 -55t71 -24q57 0 92 30t35 108h39q0 -95 -23 -150.5t-65.5 -79.5t-101.5 -24z" />
    <glyph glyph-name="ae.sc" horiz-adv-x="1708" 
d="M102 0l721 1020h50l-721 -1020h-50zM0 0v39h350v-39h-350zM377 327v39h598v-39h-598zM715 0v39h550q87 0 153 25t103.5 92t37.5 194h39v-350h-883zM846 0v1020h190v-1020h-190zM1285 377q0 52 -28 85t-69 48.5t-83 15.5h-110v39h110q42 0 83 13.5t69 44.5t28 83h39v-329
h-39zM1549 710q0 107 -35 166t-93 82t-125 23h-361v39h654v-310h-40z" />
    <glyph glyph-name="b.sc" horiz-adv-x="1146" 
d="M85 0v39h541q66 0 113 34.5t71.5 93.5t24.5 133q0 111 -55 171t-154 60h-201v24h221q121 0 213.5 -26t144.5 -82.5t52 -146.5q0 -100 -43.5 -166.5t-134.5 -100t-232 -33.5h-561zM246 0v1020h190v-1020h-190zM425 544v26h150q92 0 156.5 51t64.5 158q0 114 -64.5 158
t-156.5 44h-490v39h490q204 0 312 -55t108 -175t-100.5 -183t-319.5 -63h-150z" />
    <glyph glyph-name="c.sc" horiz-adv-x="1138" 
d="M619 -20q-88 0 -179.5 27.5t-168.5 89.5t-124 163.5t-47 249.5t48 249.5t125.5 163.5t166 89.5t169.5 27.5q83 0 155 -36t124 -89l80 105h35v-330h-40q-7 54 -36.5 108t-74 98t-99.5 70.5t-114 26.5q-94 0 -163.5 -55.5t-108 -163t-38.5 -264.5q0 -156 41 -263.5
t113 -162t166 -54.5q57 0 111.5 26t100 70t75.5 97t38 107h39v-330h-35l-73 115q-57 -59 -133 -97t-153 -38z" />
    <glyph glyph-name="cacute.sc" horiz-adv-x="1138" 
d="M619 -20q-88 0 -179.5 27.5t-168.5 89.5t-124 163.5t-47 249.5t48 249.5t125.5 163.5t166 89.5t169.5 27.5q83 0 155 -36t124 -89l80 105h35v-330h-40q-7 54 -36.5 108t-74 98t-99.5 70.5t-114 26.5q-94 0 -163.5 -55.5t-108 -163t-38.5 -264.5q0 -156 41 -263.5
t113 -162t166 -54.5q57 0 111.5 26t100 70t75.5 97t38 107h39v-330h-35l-73 115q-57 -59 -133 -97t-153 -38zM568 1201l-24 27l202 218q19 21 41.5 23.5t41.5 -7.5t29 -27q9 -16 8.5 -36t-10 -36.5t-25.5 -25.5z" />
    <glyph glyph-name="ccaron.sc" horiz-adv-x="1138" 
d="M619 -20q-88 0 -179.5 27.5t-168.5 89.5t-124 163.5t-47 249.5t48 249.5t125.5 163.5t166 89.5t169.5 27.5q83 0 155 -36t124 -89l80 105h35v-330h-40q-7 54 -36.5 108t-74 98t-99.5 70.5t-114 26.5q-94 0 -163.5 -55.5t-108 -163t-38.5 -264.5q0 -156 41 -263.5
t113 -162t166 -54.5q57 0 111.5 26t100 70t75.5 97t38 107h39v-330h-35l-73 115q-57 -59 -133 -97t-153 -38zM565 1220l-220 221l21 19l263 -150l265 150l21 -19l-220 -221h-130z" />
    <glyph glyph-name="ccedilla.sc" horiz-adv-x="1138" 
d="M619 -20q-88 0 -179.5 27.5t-168.5 89.5t-124 163.5t-47 249.5t48 249.5t125.5 163.5t166 89.5t169.5 27.5q83 0 155 -36t124 -89l80 105h35v-330h-40q-7 54 -36.5 108t-74 98t-99.5 70.5t-114 26.5q-94 0 -163.5 -55.5t-108 -163t-38.5 -264.5q0 -156 41 -263.5
t113 -162t166 -54.5q57 0 111.5 26t100 70t75.5 97t38 107h39v-330h-35l-73 115q-57 -59 -133 -97t-153 -38zM476 -497v39q89 0 142.5 31.5t53.5 78.5t-29 72t-79.5 34t-115.5 9l175 235h49l-116 -155q73 -3 131 -20t92.5 -51.5t34.5 -90.5q0 -50 -34 -91.5t-108.5 -66
t-195.5 -24.5z" />
    <glyph glyph-name="d.sc" horiz-adv-x="1235" 
d="M85 0v39h510q104 0 170.5 57t98.5 162.5t32 251.5q0 142 -32 247.5t-98.5 164.5t-170.5 59h-510v39h510q158 0 277 -55.5t186 -168.5t67 -286q0 -178 -75 -290.5t-196 -166t-259 -53.5h-510zM246 0v1020h190v-1020h-190z" />
    <glyph glyph-name="eth.sc" horiz-adv-x="1235" 
d="M100 531v38h532v-38h-532zM85 0v39h510q104 0 170.5 57t98.5 162.5t32 251.5q0 142 -32 247.5t-98.5 164.5t-170.5 59h-510v39h510q158 0 277 -55.5t186 -168.5t67 -286q0 -178 -75 -290.5t-196 -166t-259 -53.5h-510zM246 0v1020h190v-1020h-190z" />
    <glyph glyph-name="dcaron.sc" horiz-adv-x="1235" 
d="M85 0v39h510q104 0 170.5 57t98.5 162.5t32 251.5q0 142 -32 247.5t-98.5 164.5t-170.5 59h-510v39h510q158 0 277 -55.5t186 -168.5t67 -286q0 -178 -75 -290.5t-196 -166t-259 -53.5h-510zM246 0v1020h190v-1020h-190zM499 1220l-220 221l21 19l263 -150l265 150
l21 -19l-220 -221h-130z" />
    <glyph glyph-name="dcroat.sc" horiz-adv-x="1235" 
d="M100 531v38h532v-38h-532zM85 0v39h510q104 0 170.5 57t98.5 162.5t32 251.5q0 142 -32 247.5t-98.5 164.5t-170.5 59h-510v39h510q158 0 277 -55.5t186 -168.5t67 -286q0 -178 -75 -290.5t-196 -166t-259 -53.5h-510zM246 0v1020h190v-1020h-190z" />
    <glyph glyph-name="e.sc" horiz-adv-x="1078" 
d="M654 377q0 52 -27.5 85t-68.5 48.5t-83 15.5h-110v39h110q42 0 83 13.5t68.5 44.5t27.5 83h40v-329h-40zM929 350h39v-350h-883v39h131v942h-131v39h874v-310h-40q0 107 -35.5 166t-93 82t-124.5 23h-260v-942h229q87 0 153 24.5t103.5 92t37.5 194.5z" />
    <glyph glyph-name="eacute.sc" horiz-adv-x="1078" 
d="M654 377q0 52 -27.5 85t-68.5 48.5t-83 15.5h-110v39h110q42 0 83 13.5t68.5 44.5t27.5 83h40v-329h-40zM929 350h39v-350h-883v39h131v942h-131v39h874v-310h-40q0 107 -35.5 166t-93 82t-124.5 23h-260v-942h229q87 0 153 24.5t103.5 92t37.5 194.5zM538 1201l-24 27
l202 218q19 21 41.5 23.5t41.5 -7.5t29 -27q9 -16 8.5 -36t-10 -36.5t-25.5 -25.5z" />
    <glyph glyph-name="ecaron.sc" horiz-adv-x="1078" 
d="M654 377q0 52 -27.5 85t-68.5 48.5t-83 15.5h-110v39h110q42 0 83 13.5t68.5 44.5t27.5 83h40v-329h-40zM929 350h39v-350h-883v39h131v942h-131v39h874v-310h-40q0 107 -35.5 166t-93 82t-124.5 23h-260v-942h229q87 0 153 24.5t103.5 92t37.5 194.5zM535 1220l-220 221
l21 19l263 -150l265 150l21 -19l-220 -221h-130z" />
    <glyph glyph-name="ecircumflex.sc" horiz-adv-x="1078" 
d="M654 377q0 52 -27.5 85t-68.5 48.5t-83 15.5h-110v39h110q42 0 83 13.5t68.5 44.5t27.5 83h40v-329h-40zM929 350h39v-350h-883v39h131v942h-131v39h874v-310h-40q0 107 -35.5 166t-93 82t-124.5 23h-260v-942h229q87 0 153 24.5t103.5 92t37.5 194.5zM335 1218l-20 21
l220 220h130l220 -220l-20 -21l-266 151z" />
    <glyph glyph-name="edieresis.sc" horiz-adv-x="1078" 
d="M654 377q0 52 -27.5 85t-68.5 48.5t-83 15.5h-110v39h110q42 0 83 13.5t68.5 44.5t27.5 83h40v-329h-40zM929 350h39v-350h-883v39h131v942h-131v39h874v-310h-40q0 107 -35.5 166t-93 82t-124.5 23h-260v-942h229q87 0 153 24.5t103.5 92t37.5 194.5zM758 1210
q-40 0 -68 28t-28 68t28 68.5t68 28.5t68 -28.5t28 -68.5t-28 -68t-68 -28zM438 1210q-40 0 -68 28t-28 68t28 68.5t68 28.5t68 -28.5t28 -68.5t-28 -68t-68 -28z" />
    <glyph glyph-name="egrave.sc" horiz-adv-x="1078" 
d="M654 377q0 52 -27.5 85t-68.5 48.5t-83 15.5h-110v39h110q42 0 83 13.5t68.5 44.5t27.5 83h40v-329h-40zM929 350h39v-350h-883v39h131v942h-131v39h874v-310h-40q0 107 -35.5 166t-93 82t-124.5 23h-260v-942h229q87 0 153 24.5t103.5 92t37.5 194.5zM659 1201l-263 136
q-16 9 -25.5 25.5t-10 36.5t8.5 36q10 17 29 27t41.5 7.5t41.5 -23.5l202 -218z" />
    <glyph glyph-name="eogonek.sc" horiz-adv-x="1078" 
d="M654 377q0 52 -27.5 85t-68.5 48.5t-83 15.5h-110v39h110q42 0 83 13.5t68.5 44.5t27.5 83h40v-329h-40zM929 350h39v-350h-883v39h131v942h-131v39h874v-310h-40q0 107 -35.5 166t-93 82t-124.5 23h-260v-942h229q87 0 153 24.5t103.5 92t37.5 194.5zM779 -419
q-51 0 -101 18t-82.5 56t-32.5 98t25.5 106.5t67.5 81t91 58.5t96 39l12 -21q-31 -17 -55 -49.5t-37.5 -77t-13.5 -97.5q0 -63 26.5 -104t77.5 -41q48 0 78 28.5t52 67.5l25 -18q-15 -28 -41.5 -62t-71.5 -58.5t-116 -24.5z" />
    <glyph glyph-name="f.sc" horiz-adv-x="998" 
d="M674 346q0 63 -47.5 102t-140.5 39h-111v38h111q93 0 140.5 33.5t47.5 96.5h40v-309h-40zM938 1020v-310h-39q0 92 -34.5 152t-96 89t-143.5 29h-219v-941h149v-39h-470v39h131v941h-131v40h853z" />
    <glyph glyph-name="g.sc" horiz-adv-x="1215" 
d="M630 -20q-88 0 -179.5 27.5t-169 89.5t-124.5 163.5t-47 249.5t48 249.5t125.5 163.5t166 89.5t169.5 27.5t151 -33.5t123.5 -87t85 -114t34.5 -115.5h-40q-7 54 -36 108t-74 97.5t-100 70t-114 26.5q-94 0 -163.5 -55.5t-108 -162.5t-38.5 -264q0 -156 40.5 -265
t109 -166t151.5 -57q52 0 87 16.5t57.5 42t35.5 52.5t20 47v245h209v-165q-30 -63 -83.5 -127.5t-135.5 -108.5t-200 -44zM649 408v44h501v-44h-501zM1013 690q-20 46 -42.5 80.5t-48.5 68t-58 76.5l114 105h35v-330z" />
    <glyph glyph-name="gbreve.sc" horiz-adv-x="1215" 
d="M630 -20q-88 0 -179.5 27.5t-169 89.5t-124.5 163.5t-47 249.5t48 249.5t125.5 163.5t166 89.5t169.5 27.5t151 -33.5t123.5 -87t85 -114t34.5 -115.5h-40q-7 54 -36 108t-74 97.5t-100 70t-114 26.5q-94 0 -163.5 -55.5t-108 -162.5t-38.5 -264q0 -156 40.5 -265
t109 -166t151.5 -57q52 0 87 16.5t57.5 42t35.5 52.5t20 47v245h209v-165q-30 -63 -83.5 -127.5t-135.5 -108.5t-200 -44zM649 408v44h501v-44h-501zM1013 690q-20 46 -42.5 80.5t-48.5 68t-58 76.5l114 105h35v-330zM619 1200q-90 0 -137 39t-64 98.5t-17 120.5h21
q0 -49 27 -82t72 -49.5t98 -16.5q54 0 99 16.5t72.5 49.5t27.5 82h22q0 -61 -17.5 -120.5t-65.5 -98.5t-138 -39z" />
    <glyph glyph-name="h.sc" horiz-adv-x="1330" 
d="M925 0v1020h191v-1020h-191zM85 0v39h470v-39h-470zM216 0v1020h190v-1020h-190zM775 0v39h470v-39h-470zM365 510v40h600v-40h-600zM85 981v39h470v-39h-470zM775 981v39h470v-39h-470z" />
    <glyph glyph-name="i.sc" horiz-adv-x="720" 
d="M256 0v1020h189v-1020h-189zM85 0v39h550v-39h-550zM85 981v39h550v-39h-550z" />
    <glyph glyph-name="iacute.sc" horiz-adv-x="720" 
d="M256 0v1020h189v-1020h-189zM85 0v39h550v-39h-550zM85 981v39h550v-39h-550zM294 1201l-24 27l202 218q19 21 41.5 23.5t41.5 -7.5t29 -27q9 -16 8.5 -36t-10 -36.5t-25.5 -25.5z" />
    <glyph glyph-name="icircumflex.sc" horiz-adv-x="720" 
d="M256 0v1020h189v-1020h-189zM85 0v39h550v-39h-550zM85 981v39h550v-39h-550zM91 1218l-20 21l220 220h130l220 -220l-20 -21l-266 151z" />
    <glyph glyph-name="idieresis.sc" horiz-adv-x="720" 
d="M256 0v1020h189v-1020h-189zM85 0v39h550v-39h-550zM85 981v39h550v-39h-550zM514 1210q-40 0 -68 28t-28 68t28 68.5t68 28.5t68 -28.5t28 -68.5t-28 -68t-68 -28zM194 1210q-40 0 -68 28t-28 68t28 68.5t68 28.5t68 -28.5t28 -68.5t-28 -68t-68 -28z" />
    <glyph glyph-name="igrave.sc" horiz-adv-x="720" 
d="M256 0v1020h189v-1020h-189zM85 0v39h550v-39h-550zM85 981v39h550v-39h-550zM416 1201l-263 136q-16 9 -25.5 25.5t-10 36.5t8.5 36q10 17 29 27t41.5 7.5t41.5 -23.5l202 -218z" />
    <glyph glyph-name="ij.sc" horiz-adv-x="1577" 
d="M256 0v1020h189v-1020h-189zM85 0v39h550v-39h-550zM85 981v39h550v-39h-550zM992 -20q-82 0 -143 30.5t-95 85t-34 124.5q0 71 44 115.5t104 44.5q53 0 95.5 -29.5t42.5 -98.5q0 -52 -42.5 -88.5t-93.5 -36.5q-25 0 -50.5 8.5t-48 23t-36 30.5t-13.5 31h38
q0 -45 16.5 -82t46.5 -63.5t73 -41t96 -14.5q81 0 119 62t49.5 171t11.5 248v520h190v-709q-19 -49 -48 -106t-72.5 -108.5t-105 -84t-144.5 -32.5zM932 981v39h580v-39h-580z" />
    <glyph glyph-name="j.sc" horiz-adv-x="857" 
d="M272 -20q-82 0 -143 30.5t-95 85t-34 124.5q0 71 44 115.5t104 44.5q53 0 95.5 -29.5t42.5 -98.5q0 -52 -42.5 -88.5t-93.5 -36.5q-25 0 -50.5 8.5t-48 23t-36 30.5t-13.5 31h38q0 -45 16.5 -82t46.5 -63.5t73 -41t96 -14.5q81 0 119 62t49.5 171t11.5 248v520h190v-709
q-19 -49 -48 -106t-72.5 -108.5t-105 -84t-144.5 -32.5zM212 981v39h580v-39h-580z" />
    <glyph glyph-name="k.sc" horiz-adv-x="1205" 
d="M229 244l728 772h56l-728 -772h-56zM85 0v39h470v-39h-470zM216 0v1020h190v-1020h-190zM685 0v39h500v-39h-500zM859 0l-319 562l131 144l428 -706h-240zM85 981v39h470v-39h-470zM765 981v39h381v-39h-381z" />
    <glyph glyph-name="l.sc" horiz-adv-x="994" 
d="M85 0v39h131v942h-131v39h451v-39h-130v-942h160q118 0 190.5 21.5t111 61.5t52.5 97.5t14 130.5h40v-350h-889z" />
    <glyph glyph-name="lacute.sc" horiz-adv-x="994" 
d="M85 0v39h131v942h-131v39h451v-39h-130v-942h160q118 0 190.5 21.5t111 61.5t52.5 97.5t14 130.5h40v-350h-889zM252 1201l-24 27l202 218q19 21 41.5 23.5t41.5 -7.5t29 -27q9 -16 8.5 -36t-10 -36.5t-25.5 -25.5z" />
    <glyph glyph-name="lcaron.sc" horiz-adv-x="994" 
d="M85 0v39h131v942h-131v39h451v-39h-130v-942h160q118 0 190.5 21.5t111 61.5t52.5 97.5t14 130.5h40v-350h-889zM656 524v40q58 0 104.5 27t78 73.5t44.5 106.5t3 126h13q3 -17 -11 -38t-40.5 -36.5t-61.5 -15.5q-64 0 -95 34.5t-31 83.5q0 50 38.5 84t95.5 34
q59 0 99.5 -49t40.5 -144q0 -80 -32 -155t-94 -123t-152 -48z" />
    <glyph glyph-name="lslash.sc" horiz-adv-x="994" 
d="M85 405v46l521 289v-45zM85 0v39h131v942h-131v39h451v-39h-130v-942h160q118 0 190.5 21.5t111 61.5t52.5 97.5t14 130.5h40v-350h-889z" />
    <glyph glyph-name="m.sc" horiz-adv-x="1508" 
d="M662 -20l-457 1040h193l377 -842l337 842h42l-415 -1040h-77zM95 0v39h221v-39h-221zM185 0v981h-100v39h141v-1020h-41zM1033 0v39h390v-39h-390zM1143 0v1020h280v-39h-90v-981h-190z" />
    <glyph glyph-name="n.sc" horiz-adv-x="1267" 
d="M967 -20l-709 1040h230l506 -706v706h41v-1040h-68zM85 0v39h368v-39h-368zM246 0v981h-161v39h202v-1020h-41zM823 981v39h374v-39h-374z" />
    <glyph glyph-name="nacute.sc" horiz-adv-x="1267" 
d="M967 -20l-709 1040h230l506 -706v706h41v-1040h-68zM85 0v39h368v-39h-368zM246 0v981h-161v39h202v-1020h-41zM823 981v39h374v-39h-374zM634 1201l-24 27l202 218q19 21 41.5 23.5t41.5 -7.5t29 -27q9 -16 8.5 -36t-10 -36.5t-25.5 -25.5z" />
    <glyph glyph-name="ncaron.sc" horiz-adv-x="1267" 
d="M967 -20l-709 1040h230l506 -706v706h41v-1040h-68zM85 0v39h368v-39h-368zM246 0v981h-161v39h202v-1020h-41zM823 981v39h374v-39h-374zM630 1220l-220 221l21 19l263 -150l265 150l21 -19l-220 -221h-130z" />
    <glyph glyph-name="eng.sc" horiz-adv-x="1325" 
d="M847 -520q-81 0 -136 31t-82.5 81t-27.5 106q0 62 34 93t80 31q25 0 50.5 -10.5t43 -34t17.5 -63.5q0 -38 -28.5 -73.5t-78.5 -35.5q-29 0 -55.5 11t-43.5 31.5t-17 50.5h38q0 -47 23.5 -88.5t68 -67t108.5 -25.5q68 0 99 45.5t38.5 121t5 168.5t-2.5 188v662l180 37
l-1 -762q0 -97 -13 -186.5t-46.5 -159.5t-95 -110.5t-158.5 -40.5zM82 0v39h449v-39h-449zM222 0v981h-140v39h311v-1020h-171zM368 551q0 71 28 155t84.5 160t140.5 124.5t195 48.5q132 0 207 -38.5t106.5 -106.5t31.5 -155l-180 -37q0 84 -20 148t-63.5 100t-114.5 36
q-85 0 -156.5 -40t-124 -105.5t-81 -141.5t-28.5 -148h-25z" />
    <glyph glyph-name="ntilde.sc" horiz-adv-x="1267" 
d="M967 -20l-709 1040h230l506 -706v706h41v-1040h-68zM85 0v39h368v-39h-368zM246 0v981h-161v39h202v-1020h-41zM823 981v39h374v-39h-374zM856 1200q-57 0 -101.5 24t-82.5 55t-75.5 55t-80.5 24q-50 0 -88 -30t-38 -108h-40q0 85 32 141.5t80.5 84.5t97.5 28
q59 0 102.5 -24t78.5 -55t68 -55t71 -24q57 0 92 30t35 108h39q0 -95 -23 -150.5t-65.5 -79.5t-101.5 -24z" />
    <glyph glyph-name="o.sc" horiz-adv-x="1239" 
d="M619 -20q-153 0 -275 64.5t-193 183.5t-71 282t75 282t198 183.5t266 64.5q144 0 267 -64.5t198 -183.5t75 -282t-71 -282t-193.5 -183.5t-275.5 -64.5zM619 16q82 0 141 37t96.5 104t55.5 157t18 196t-20.5 196t-60.5 157t-98 104t-132 37t-132 -37t-97.5 -104t-60 -157
t-20.5 -196t18 -196t55.5 -157t96 -104t140.5 -37z" />
    <glyph glyph-name="oacute.sc" horiz-adv-x="1239" 
d="M619 -20q-153 0 -275 64.5t-193 183.5t-71 282t75 282t198 183.5t266 64.5q144 0 267 -64.5t198 -183.5t75 -282t-71 -282t-193.5 -183.5t-275.5 -64.5zM619 16q82 0 141 37t96.5 104t55.5 157t18 196t-20.5 196t-60.5 157t-98 104t-132 37t-132 -37t-97.5 -104t-60 -157
t-20.5 -196t18 -196t55.5 -157t96 -104t140.5 -37zM558 1201l-24 27l202 218q19 21 41.5 23.5t41.5 -7.5t29 -27q9 -16 8.5 -36t-10 -36.5t-25.5 -25.5z" />
    <glyph glyph-name="ocircumflex.sc" horiz-adv-x="1239" 
d="M619 -20q-153 0 -275 64.5t-193 183.5t-71 282t75 282t198 183.5t266 64.5q144 0 267 -64.5t198 -183.5t75 -282t-71 -282t-193.5 -183.5t-275.5 -64.5zM619 16q82 0 141 37t96.5 104t55.5 157t18 196t-20.5 196t-60.5 157t-98 104t-132 37t-132 -37t-97.5 -104t-60 -157
t-20.5 -196t18 -196t55.5 -157t96 -104t140.5 -37zM355 1218l-20 21l220 220h130l220 -220l-20 -21l-266 151z" />
    <glyph glyph-name="odieresis.sc" horiz-adv-x="1239" 
d="M619 -20q-153 0 -275 64.5t-193 183.5t-71 282t75 282t198 183.5t266 64.5q144 0 267 -64.5t198 -183.5t75 -282t-71 -282t-193.5 -183.5t-275.5 -64.5zM619 16q82 0 141 37t96.5 104t55.5 157t18 196t-20.5 196t-60.5 157t-98 104t-132 37t-132 -37t-97.5 -104t-60 -157
t-20.5 -196t18 -196t55.5 -157t96 -104t140.5 -37zM778 1210q-40 0 -68 28t-28 68t28 68.5t68 28.5t68 -28.5t28 -68.5t-28 -68t-68 -28zM458 1210q-40 0 -68 28t-28 68t28 68.5t68 28.5t68 -28.5t28 -68.5t-28 -68t-68 -28z" />
    <glyph glyph-name="ograve.sc" horiz-adv-x="1239" 
d="M619 -20q-153 0 -275 64.5t-193 183.5t-71 282t75 282t198 183.5t266 64.5q144 0 267 -64.5t198 -183.5t75 -282t-71 -282t-193.5 -183.5t-275.5 -64.5zM619 16q82 0 141 37t96.5 104t55.5 157t18 196t-20.5 196t-60.5 157t-98 104t-132 37t-132 -37t-97.5 -104t-60 -157
t-20.5 -196t18 -196t55.5 -157t96 -104t140.5 -37zM680 1201l-263 136q-16 9 -25.5 25.5t-10 36.5t8.5 36q10 17 29 27t41.5 7.5t41.5 -23.5l202 -218z" />
    <glyph glyph-name="ohungarumlaut.sc" horiz-adv-x="1239" 
d="M619 -20q-153 0 -275 64.5t-193 183.5t-71 282t75 282t198 183.5t266 64.5q144 0 267 -64.5t198 -183.5t75 -282t-71 -282t-193.5 -183.5t-275.5 -64.5zM619 16q82 0 141 37t96.5 104t55.5 157t18 196t-20.5 196t-60.5 157t-98 104t-132 37t-132 -37t-97.5 -104t-60 -157
t-20.5 -196t18 -196t55.5 -157t96 -104t140.5 -37zM358 1201l-24 27l202 218q19 21 41.5 23.5t41.5 -7.5t29 -27q9 -16 8.5 -36t-10 -36.5t-25.5 -25.5zM768 1201l-24 27l202 218q19 21 41.5 23.5t41.5 -7.5t29 -27q9 -16 8.5 -36t-10 -36.5t-25.5 -25.5z" />
    <glyph glyph-name="oslash.sc" horiz-adv-x="1239" 
d="M100 -60l987 1141h46l-988 -1141h-45zM619 -20q-153 0 -275 64.5t-193 183.5t-71 282t75 282t198 183.5t266 64.5q144 0 267 -64.5t198 -183.5t75 -282t-71 -282t-193.5 -183.5t-275.5 -64.5zM619 16q82 0 141 37t96.5 104t55.5 157t18 196t-20.5 196t-60.5 157t-98 104
t-132 37t-132 -37t-97.5 -104t-60 -157t-20.5 -196t18 -196t55.5 -157t96 -104t140.5 -37z" />
    <glyph glyph-name="otilde.sc" horiz-adv-x="1239" 
d="M619 -20q-153 0 -275 64.5t-193 183.5t-71 282t75 282t198 183.5t266 64.5q144 0 267 -64.5t198 -183.5t75 -282t-71 -282t-193.5 -183.5t-275.5 -64.5zM619 16q82 0 141 37t96.5 104t55.5 157t18 196t-20.5 196t-60.5 157t-98 104t-132 37t-132 -37t-97.5 -104t-60 -157
t-20.5 -196t18 -196t55.5 -157t96 -104t140.5 -37zM781 1200q-57 0 -101.5 24t-82.5 55t-75.5 55t-80.5 24q-50 0 -88 -30t-38 -108h-40q0 85 32 141.5t80.5 84.5t97.5 28q59 0 102.5 -24t78.5 -55t68 -55t71 -24q57 0 92 30t35 108h39q0 -95 -23 -150.5t-65.5 -79.5
t-101.5 -24z" />
    <glyph glyph-name="oe.sc" horiz-adv-x="1613" 
d="M620 1020q-143 0 -266.5 -59.5t-198.5 -173.5t-75 -277t71.5 -277t193.5 -173.5t275 -59.5v39q-114 0 -182 63t-98.5 170t-30.5 238q0 132 34.5 238.5t103.5 169.5t173 63v39zM1189 377q0 52 -27.5 85t-68.5 48.5t-83 15.5h-110v39h110q42 0 83 13.5t68.5 44.5t27.5 83
h40v-329h-40zM1464 350h39v-350h-883v39h131v942h-131v39h874v-310h-40q0 107 -35.5 166t-93 82t-124.5 23h-260v-942h229q87 0 153 24.5t103.5 92t37.5 194.5z" />
    <glyph glyph-name="p.sc" horiz-adv-x="1085" 
d="M365 389v39h210q81 0 132 37t75 100t24 139t-24 139t-75 100.5t-132 37.5h-490v39h490q151 0 250.5 -35.5t149.5 -105.5t50 -175t-50 -175t-149.5 -105t-250.5 -35h-210zM85 0v39h451v-39h-451zM216 0v1020h190v-1020h-190z" />
    <glyph glyph-name="thorn.sc" horiz-adv-x="1085" 
d="M365 194v39h210q81 0 132 38t75 101t24 137t-24 137t-75 101.5t-132 38.5h-180v39h180q226 0 338 -79t112 -237q0 -157 -112 -236t-338 -79h-210zM85 0v39h550v-39h-550zM256 0v1020h189v-1020h-189zM85 981v39h550v-39h-550z" />
    <glyph glyph-name="q.sc" horiz-adv-x="1279" 
d="M639 -20q-153 0 -275 64.5t-193 183.5t-71 282t75 282t198 183.5t266 64.5q144 0 267 -64.5t198 -183.5t75 -282t-71 -282t-193.5 -183.5t-275.5 -64.5zM966 -500q-160 0 -252.5 29.5t-137 90.5t-57.5 155.5t-13 224.5q44 -6 84.5 -8t77.5 0t69 8q0 -136 9.5 -225.5
t34.5 -141t70 -73t115 -21.5v-39zM639 16q82 0 141 40t96.5 108.5t55.5 157.5t18 188t-20.5 188t-60.5 157.5t-98 108.5t-132 40t-132 -40t-97.5 -108.5t-60 -157.5t-20.5 -188t18 -188t55.5 -157.5t96 -108.5t140.5 -40z" />
    <glyph glyph-name="r.sc" horiz-adv-x="1085" 
d="M345 501v23h240q71 0 112.5 29.5t60 79t18.5 108.5t-18.5 114t-60 90.5t-112.5 35.5h-500v39h500q126 0 213 -36.5t132 -99.5t45 -143q0 -120 -93 -180t-297 -60h-240zM85 0v39h431v-39h-431zM206 0v1020h189v-1020h-189zM965 -20q-90 0 -134 27.5t-58.5 72.5t-14 99
t1 107.5t-15 98.5t-61 72.5t-138.5 27.5h-200v21h240q119 0 190.5 -26.5t107.5 -69.5t48.5 -94.5t13 -102.5t0 -94t10.5 -69.5t46 -26.5q19 0 36 6.5t35 17.5l13 -37q-24 -13 -48.5 -21.5t-71.5 -8.5z" />
    <glyph glyph-name="racute.sc" horiz-adv-x="1085" 
d="M345 501v23h240q71 0 112.5 29.5t60 79t18.5 108.5t-18.5 114t-60 90.5t-112.5 35.5h-500v39h500q126 0 213 -36.5t132 -99.5t45 -143q0 -120 -93 -180t-297 -60h-240zM85 0v39h431v-39h-431zM206 0v1020h189v-1020h-189zM965 -20q-90 0 -134 27.5t-58.5 72.5t-14 99
t1 107.5t-15 98.5t-61 72.5t-138.5 27.5h-200v21h240q119 0 190.5 -26.5t107.5 -69.5t48.5 -94.5t13 -102.5t0 -94t10.5 -69.5t46 -26.5q19 0 36 6.5t35 17.5l13 -37q-24 -13 -48.5 -21.5t-71.5 -8.5zM484 1201l-24 27l202 218q19 21 41.5 23.5t41.5 -7.5t29 -27
q9 -16 8.5 -36t-10 -36.5t-25.5 -25.5z" />
    <glyph glyph-name="rcaron.sc" horiz-adv-x="1085" 
d="M345 501v23h240q71 0 112.5 29.5t60 79t18.5 108.5t-18.5 114t-60 90.5t-112.5 35.5h-500v39h500q126 0 213 -36.5t132 -99.5t45 -143q0 -120 -93 -180t-297 -60h-240zM85 0v39h431v-39h-431zM206 0v1020h189v-1020h-189zM965 -20q-90 0 -134 27.5t-58.5 72.5t-14 99
t1 107.5t-15 98.5t-61 72.5t-138.5 27.5h-200v21h240q119 0 190.5 -26.5t107.5 -69.5t48.5 -94.5t13 -102.5t0 -94t10.5 -69.5t46 -26.5q19 0 36 6.5t35 17.5l13 -37q-24 -13 -48.5 -21.5t-71.5 -8.5zM481 1220l-220 221l21 19l263 -150l265 150l21 -19l-220 -221h-130z" />
    <glyph glyph-name="s.sc" horiz-adv-x="1012" 
d="M563 -29q-93 0 -165.5 34.5t-126 88t-88.5 114.5t-53 113h39q16 -45 47 -97.5t76.5 -100t106 -78t134.5 -30.5q81 0 133 26t77 70.5t25 98.5q0 58 -31.5 97t-84 67.5t-115 53t-125 52t-115 65t-84 92t-31.5 133.5q0 86 40 146t111 92t164 32t169 -43t127.5 -113.5
t71.5 -154.5h-39q-20 71 -64 131.5t-107 97t-139 36.5q-98 0 -143 -47.5t-45 -106.5q0 -58 42 -96t108.5 -67t141.5 -59.5t141.5 -71.5t108.5 -102t42 -154q0 -105 -45 -176t-124 -107t-180 -36zM130 -20v341q26 -50 45.5 -81t39.5 -59t47 -66l-98 -135h-34zM865 729
q-19 45 -38 72.5t-41 53.5t-50 65l95 120h34v-311z" />
    <glyph glyph-name="sacute.sc" horiz-adv-x="1012" 
d="M563 -29q-93 0 -165.5 34.5t-126 88t-88.5 114.5t-53 113h39q16 -45 47 -97.5t76.5 -100t106 -78t134.5 -30.5q81 0 133 26t77 70.5t25 98.5q0 58 -31.5 97t-84 67.5t-115 53t-125 52t-115 65t-84 92t-31.5 133.5q0 86 40 146t111 92t164 32t169 -43t127.5 -113.5
t71.5 -154.5h-39q-20 71 -64 131.5t-107 97t-139 36.5q-98 0 -143 -47.5t-45 -106.5q0 -58 42 -96t108.5 -67t141.5 -59.5t141.5 -71.5t108.5 -102t42 -154q0 -105 -45 -176t-124 -107t-180 -36zM130 -20v341q26 -50 45.5 -81t39.5 -59t47 -66l-98 -135h-34zM865 729
q-19 45 -38 72.5t-41 53.5t-50 65l95 120h34v-311zM498 1201l-24 27l202 218q19 21 41.5 23.5t41.5 -7.5t29 -27q9 -16 8.5 -36t-10 -36.5t-25.5 -25.5z" />
    <glyph glyph-name="scaron.sc" horiz-adv-x="1012" 
d="M563 -29q-93 0 -165.5 34.5t-126 88t-88.5 114.5t-53 113h39q16 -45 47 -97.5t76.5 -100t106 -78t134.5 -30.5q81 0 133 26t77 70.5t25 98.5q0 58 -31.5 97t-84 67.5t-115 53t-125 52t-115 65t-84 92t-31.5 133.5q0 86 40 146t111 92t164 32t169 -43t127.5 -113.5
t71.5 -154.5h-39q-20 71 -64 131.5t-107 97t-139 36.5q-98 0 -143 -47.5t-45 -106.5q0 -58 42 -96t108.5 -67t141.5 -59.5t141.5 -71.5t108.5 -102t42 -154q0 -105 -45 -176t-124 -107t-180 -36zM130 -20v341q26 -50 45.5 -81t39.5 -59t47 -66l-98 -135h-34zM865 729
q-19 45 -38 72.5t-41 53.5t-50 65l95 120h34v-311zM495 1220l-220 221l21 19l263 -150l265 150l21 -19l-220 -221h-130z" />
    <glyph glyph-name="scedilla.sc" horiz-adv-x="1012" 
d="M563 -29q-93 0 -165.5 34.5t-126 88t-88.5 114.5t-53 113h39q16 -45 47 -97.5t76.5 -100t106 -78t134.5 -30.5q81 0 133 26t77 70.5t25 98.5q0 58 -31.5 97t-84 67.5t-115 53t-125 52t-115 65t-84 92t-31.5 133.5q0 86 40 146t111 92t164 32t169 -43t127.5 -113.5
t71.5 -154.5h-39q-20 71 -64 131.5t-107 97t-139 36.5q-98 0 -143 -47.5t-45 -106.5q0 -58 42 -96t108.5 -67t141.5 -59.5t141.5 -71.5t108.5 -102t42 -154q0 -105 -45 -176t-124 -107t-180 -36zM130 -20v341q26 -50 45.5 -81t39.5 -59t47 -66l-98 -135h-34zM865 729
q-19 45 -38 72.5t-41 53.5t-50 65l95 120h34v-311zM369 -504v39q89 0 142.5 31.5t53.5 78.5t-29 72t-79.5 34t-115.5 9l175 235h49l-116 -155q73 -3 131 -20t92.5 -51.5t34.5 -90.5q0 -50 -34 -91.5t-108.5 -66t-195.5 -24.5z" />
    <glyph glyph-name="germandbls.sc" horiz-adv-x="1387" 
d="M216 0v572q0 111 45.5 198t122.5 147t172.5 91.5t195.5 31.5q74 0 145 -21t131.5 -51t102.5 -59.5t57 -46.5l-216 -272q-20 6 -54 11t-72.5 9.5t-73.5 7.5l254 307q-34 18 -76 35.5t-92 29t-106 11.5q-78 0 -140 -37t-106 -100.5t-67 -144t-23 -168.5v-551h-200zM85 0v39
h461v-39h-461zM947 -20q-107 0 -168.5 38.5t-87.5 94.5t-26 108q0 62 34.5 96.5t86.5 34.5q46 0 77 -29t31 -83q0 -48 -34.5 -79t-78.5 -31q-30 0 -56 12.5t-42 33t-16 45.5h38q0 -43 21.5 -88.5t66.5 -76.5t115 -31q59 0 106.5 42t75 105t27.5 127q0 94 -51 156t-130.5 93
t-163.5 31v39q94 0 177.5 -9.5t152.5 -31.5t119.5 -59.5t78 -94t27.5 -134.5q0 -75 -29 -132.5t-81.5 -97t-121 -59.5t-148.5 -20z" />
    <glyph glyph-name="t.sc" horiz-adv-x="1197" 
d="M70 640v380h1057v-380h-39q0 112 -22.5 188t-76 114.5t-145.5 38.5h-490q-92 0 -145.5 -38.5t-76 -114.5t-22.5 -188h-40zM333 0v39h530v-39h-530zM503 0v1010h191v-1010h-191z" />
    <glyph glyph-name="tbar.sc" horiz-adv-x="1197" 
d="M360 531v38h480v-38h-480zM70 640v380h1057v-380h-39q0 112 -22.5 188t-76 114.5t-145.5 38.5h-490q-92 0 -145.5 -38.5t-76 -114.5t-22.5 -188h-40zM333 0v39h530v-39h-530zM503 0v1010h191v-1010h-191z" />
    <glyph glyph-name="tcaron.sc" horiz-adv-x="1197" 
d="M70 640v380h1057v-380h-39q0 112 -22.5 188t-76 114.5t-145.5 38.5h-490q-92 0 -145.5 -38.5t-76 -114.5t-22.5 -188h-40zM333 0v39h530v-39h-530zM503 0v1010h191v-1010h-191zM537 1220l-220 221l21 19l263 -150l265 150l21 -19l-220 -221h-130z" />
    <glyph glyph-name="uni0163.sc" horiz-adv-x="1197" 
d="M70 640v380h1057v-380h-39q0 112 -22.5 188t-76 114.5t-145.5 38.5h-490q-92 0 -145.5 -38.5t-76 -114.5t-22.5 -188h-40zM333 0v39h530v-39h-530zM503 0v1010h191v-1010h-191zM438 -494v39q89 0 142.5 31.5t53.5 78.5t-29 72t-79.5 34t-115.5 9l175 235h49l-116 -155
q73 -3 131 -20t92.5 -51.5t34.5 -90.5q0 -50 -34 -91.5t-108.5 -66t-195.5 -24.5z" />
    <glyph glyph-name="u.sc" horiz-adv-x="1163" 
d="M610 -29q-138 0 -234 45t-146 138t-50 236v630h190v-610q0 -76 13.5 -146.5t45 -125.5t85.5 -87t136 -32q89 0 155 39.5t102.5 122t36.5 209.5v630h39v-630q0 -135 -42 -228.5t-125 -142t-206 -48.5zM50 981v39h471v-39h-471zM816 981v39h297v-39h-297z" />
    <glyph glyph-name="uacute.sc" horiz-adv-x="1163" 
d="M610 -29q-138 0 -234 45t-146 138t-50 236v630h190v-610q0 -76 13.5 -146.5t45 -125.5t85.5 -87t136 -32q89 0 155 39.5t102.5 122t36.5 209.5v630h39v-630q0 -135 -42 -228.5t-125 -142t-206 -48.5zM50 981v39h471v-39h-471zM816 981v39h297v-39h-297zM581 1201l-24 27
l202 218q19 21 41.5 23.5t41.5 -7.5t29 -27q9 -16 8.5 -36t-10 -36.5t-25.5 -25.5z" />
    <glyph glyph-name="ucircumflex.sc" horiz-adv-x="1163" 
d="M610 -29q-138 0 -234 45t-146 138t-50 236v630h190v-610q0 -76 13.5 -146.5t45 -125.5t85.5 -87t136 -32q89 0 155 39.5t102.5 122t36.5 209.5v630h39v-630q0 -135 -42 -228.5t-125 -142t-206 -48.5zM50 981v39h471v-39h-471zM816 981v39h297v-39h-297zM378 1218l-20 21
l220 220h130l220 -220l-20 -21l-266 151z" />
    <glyph glyph-name="udieresis.sc" horiz-adv-x="1163" 
d="M610 -29q-138 0 -234 45t-146 138t-50 236v630h190v-610q0 -76 13.5 -146.5t45 -125.5t85.5 -87t136 -32q89 0 155 39.5t102.5 122t36.5 209.5v630h39v-630q0 -135 -42 -228.5t-125 -142t-206 -48.5zM50 981v39h471v-39h-471zM816 981v39h297v-39h-297zM801 1210
q-40 0 -68 28t-28 68t28 68.5t68 28.5t68 -28.5t28 -68.5t-28 -68t-68 -28zM481 1210q-40 0 -68 28t-28 68t28 68.5t68 28.5t68 -28.5t28 -68.5t-28 -68t-68 -28z" />
    <glyph glyph-name="ugrave.sc" horiz-adv-x="1163" 
d="M610 -29q-138 0 -234 45t-146 138t-50 236v630h190v-610q0 -76 13.5 -146.5t45 -125.5t85.5 -87t136 -32q89 0 155 39.5t102.5 122t36.5 209.5v630h39v-630q0 -135 -42 -228.5t-125 -142t-206 -48.5zM50 981v39h471v-39h-471zM816 981v39h297v-39h-297zM703 1201
l-263 136q-16 9 -25.5 25.5t-10 36.5t8.5 36q10 17 29 27t41.5 7.5t41.5 -23.5l202 -218z" />
    <glyph glyph-name="uhungarumlaut.sc" horiz-adv-x="1163" 
d="M610 -29q-138 0 -234 45t-146 138t-50 236v630h190v-610q0 -76 13.5 -146.5t45 -125.5t85.5 -87t136 -32q89 0 155 39.5t102.5 122t36.5 209.5v630h39v-630q0 -135 -42 -228.5t-125 -142t-206 -48.5zM50 981v39h471v-39h-471zM816 981v39h297v-39h-297zM381 1201l-24 27
l202 218q19 21 41.5 23.5t41.5 -7.5t29 -27q9 -16 8.5 -36t-10 -36.5t-25.5 -25.5zM791 1201l-24 27l202 218q19 21 41.5 23.5t41.5 -7.5t29 -27q9 -16 8.5 -36t-10 -36.5t-25.5 -25.5z" />
    <glyph glyph-name="uring.sc" horiz-adv-x="1163" 
d="M610 -29q-138 0 -234 45t-146 138t-50 236v630h190v-610q0 -76 13.5 -146.5t45 -125.5t85.5 -87t136 -32q89 0 155 39.5t102.5 122t36.5 209.5v630h39v-630q0 -135 -42 -228.5t-125 -142t-206 -48.5zM50 981v39h471v-39h-471zM816 981v39h297v-39h-297zM642 1200
q-76 0 -127.5 51.5t-51.5 127.5q0 77 51.5 129t127.5 52q77 0 128.5 -52t51.5 -129q0 -76 -51.5 -127.5t-128.5 -51.5zM642 1240q37 0 60.5 19t34.5 50.5t11 69.5q0 39 -11 71t-34.5 51.5t-60.5 19.5t-60.5 -19.5t-34 -51.5t-10.5 -71q0 -38 10.5 -69.5t34 -50.5t60.5 -19z
" />
    <glyph glyph-name="v.sc" horiz-adv-x="1198" 
d="M559 -29l-468 1049h220l351 -808l355 808h45l-467 -1049h-36zM0 981v39h500v-39h-500zM841 981v39h357v-39h-357z" />
    <glyph glyph-name="w.sc" horiz-adv-x="1561" 
d="M1075 -20l-383 1040h201l284 -734l246 734l41 -5l-346 -1035h-43zM506 -20l-377 1040h199l280 -734l185 550l34 -28l-278 -828h-43zM0 981v39h1133v-39h-1133zM1293 981v39h268v-39h-268z" />
    <glyph glyph-name="x.sc" horiz-adv-x="1244" 
d="M895 0l-755 1020h232l763 -1020h-240zM30 0v39h350v-39h-350zM135 0l482 594h47l-482 -594h-47zM730 0v39h484v-39h-484zM71 981v39h459v-39h-459zM589 514l399 502h45l-395 -502h-49zM817 981v39h316v-39h-316z" />
    <glyph glyph-name="y.sc" horiz-adv-x="1150" 
d="M490 0v431l-420 589h220l367 -511l360 507h45l-382 -540v-476h-190zM360 0v39h470v-39h-470zM0 981v39h461v-39h-461zM859 981v39h271v-39h-271z" />
    <glyph glyph-name="yacute.sc" horiz-adv-x="1150" 
d="M490 0v431l-420 589h220l367 -511l360 507h45l-382 -540v-476h-190zM360 0v39h470v-39h-470zM0 981v39h461v-39h-461zM859 981v39h271v-39h-271zM531 1201l-24 27l202 218q19 21 41.5 23.5t41.5 -7.5t29 -27q9 -16 8.5 -36t-10 -36.5t-25.5 -25.5z" />
    <glyph glyph-name="ydieresis.sc" horiz-adv-x="1150" 
d="M490 0v431l-420 589h220l367 -511l360 507h45l-382 -540v-476h-190zM360 0v39h470v-39h-470zM0 981v39h461v-39h-461zM859 981v39h271v-39h-271zM751 1210q-40 0 -68 28t-28 68t28 68.5t68 28.5t68 -28.5t28 -68.5t-28 -68t-68 -28zM431 1210q-40 0 -68 28t-28 68
t28 68.5t68 28.5t68 -28.5t28 -68.5t-28 -68t-68 -28z" />
    <glyph glyph-name="z.sc" horiz-adv-x="1066" 
d="M100 0v39l630 942h-272q-101 0 -164 -33t-92 -89.5t-29 -128.5h-39v290h826v-39l-630 -942h313q102 0 164 34.5t90.5 99.5t28.5 157h40v-330h-866z" />
    <glyph glyph-name="zacute.sc" horiz-adv-x="1066" 
d="M100 0v39l630 942h-272q-101 0 -164 -33t-92 -89.5t-29 -128.5h-39v290h826v-39l-630 -942h313q102 0 164 34.5t90.5 99.5t28.5 157h40v-330h-866zM461 1201l-24 27l202 218q19 21 41.5 23.5t41.5 -7.5t29 -27q9 -16 8.5 -36t-10 -36.5t-25.5 -25.5z" />
    <glyph glyph-name="zcaron.sc" horiz-adv-x="1066" 
d="M100 0v39l630 942h-272q-101 0 -164 -33t-92 -89.5t-29 -128.5h-39v290h826v-39l-630 -942h313q102 0 164 34.5t90.5 99.5t28.5 157h40v-330h-866zM458 1220l-220 221l21 19l263 -150l265 150l21 -19l-220 -221h-130z" />
    <glyph glyph-name="zdotaccent.sc" horiz-adv-x="1066" 
d="M100 0v39l630 942h-272q-101 0 -164 -33t-92 -89.5t-29 -128.5h-39v290h826v-39l-630 -942h313q102 0 164 34.5t90.5 99.5t28.5 157h40v-330h-866zM523 1374q-50 0 -85 35.5t-35 85.5q0 49 35 84.5t85 35.5q49 0 84.5 -35.5t35.5 -84.5q0 -50 -35.5 -85.5t-84.5 -35.5z
" />
    <glyph glyph-name="ordfeminine" unicode="&#xaa;" horiz-adv-x="619" 
d="M498 952q-42 0 -73 23t-31 82v272q0 44 -7.5 83.5t-30.5 64.5t-71 25q-36 0 -74.5 -10.5t-65 -32.5t-26.5 -56h-29q0 31 20.5 48.5t44.5 17.5q25 0 46.5 -16.5t21.5 -46.5q0 -36 -22 -52.5t-46 -16.5q-28 0 -47 17t-19 49q0 37 31.5 64.5t81 43t104.5 15.5
q82 0 123.5 -29t55.5 -74t14 -94v-295q0 -20 6.5 -33.5t29.5 -13.5q15 0 34 13t29 33l12 -22q-16 -25 -44.5 -42t-67.5 -17zM218 952q-78 0 -124.5 40t-46.5 108q0 80 69 126t197 46h136v-20h-136q-53 0 -85.5 -22t-47 -55.5t-14.5 -65.5q0 -45 21 -83t68 -38
q50 0 94.5 48.5t44.5 147.5h13q0 -103 -48.5 -167.5t-140.5 -64.5z" />
    <glyph glyph-name="ordmasculine" unicode="&#xba;" horiz-adv-x="1122" 
d="M566 950q-85 0 -146.5 39.5t-95 105t-33.5 143.5t33.5 143.5t95 105t146.5 39.5t146.5 -39.5t95 -105t33.5 -143.5t-33.5 -143.5t-95 -105t-146.5 -39.5zM566 974q65 0 97.5 42.5t43.5 104t11 117.5t-11 117.5t-43.5 104t-97.5 42.5t-97.5 -42.5t-43.5 -104t-11 -117.5
t11 -117.5t43.5 -104t97.5 -42.5z" />
    <glyph glyph-name="uni0394" unicode="&#x394;" horiz-adv-x="1267" 
d="M75 0l542 1529h60l530 -1529h-221l-420 1272l-445 -1272h-46zM102 0v39h1049v-39h-1049z" />
    <glyph glyph-name="uni03A9" unicode="&#x3a9;" horiz-adv-x="1552" 
d="M626 300q-85 19 -171 69t-158 127.5t-116 179.5t-44 224q0 188 79 327.5t223 216t337 76.5q194 0 337.5 -76.5t223 -216t79.5 -327.5q0 -122 -44 -222.5t-116 -176.5t-158 -124.5t-171 -67.5v36q84 35 142 116t88 194.5t30 244.5q0 117 -18.5 222.5t-64 187t-125.5 128
t-203 46.5t-203 -46.5t-125 -128t-63.5 -187t-18.5 -222.5q0 -131 30 -246.5t88 -199t142 -118.5v-36zM187 0v300h39q0 -70 31.5 -103.5t108.5 -33.5h222v158l38 -1v-320h-439zM927 0v330h38v-167h222q77 0 108.5 33.5t31.5 103.5h39v-300h-439z" />
    <glyph glyph-name="uni03BC" unicode="&#x3bc;" horiz-adv-x="1196" 
d="M994 920v-881h130v-39h-311v308q-17 -80 -55 -155t-105 -124t-173 -49q-108 0 -162 38.5t-75 101.5v-362q0 -71 28 -121.5t74.5 -79.5t100.5 -37q-19 14 -30 45.5t-11 62.5q0 50 36.5 88t86.5 38q49 0 86 -38.5t37 -95.5q0 -58 -40 -99t-127 -41q-71 0 -135 32t-104.5 94
t-40.5 152v1123h-131v39h310v-609q0 -84 8 -147.5t34 -99t81 -35.5q81 0 139.5 44t95.5 112.5t54.5 145t17.5 140.5v410h-140v39h321z" />
    <glyph glyph-name="pi" unicode="&#x3c0;" horiz-adv-x="1161" 
d="M82 590v330h970v-180h-931v-150h-39zM208 -20q-61 0 -89.5 29.5t-28.5 66.5q0 34 16 56.5t41.5 42t54.5 46t54.5 67.5t41.5 106.5t16 164.5v251h112v-324q0 -237 -58 -371.5t-160 -134.5zM876 -20q-70 0 -127.5 39t-57.5 127v634h181v-590q0 -30 18.5 -51t54.5 -21
q35 0 63 23t58 81l26 -16q-34 -105 -89 -165.5t-127 -60.5z" />
    <glyph glyph-name="zero" unicode="0" horiz-adv-x="1239" 
d="M620 -20q-122 0 -221.5 59.5t-170.5 165.5t-109.5 245.5t-38.5 299.5t41 299.5t114 245.5t171.5 165.5t213.5 59.5t213.5 -59.5t171.5 -165.5t114 -245.5t41 -299.5t-38.5 -299.5t-109.5 -245.5t-170.5 -165.5t-221.5 -59.5zM620 16q101 0 162 62.5t93.5 168t43.5 236.5
t11 267t-14 267t-48 236.5t-94.5 168t-153.5 62.5t-153.5 -62.5t-94.5 -168t-47.5 -236.5t-13.5 -267t11 -267t43 -236.5t93.5 -168t161.5 -62.5z" />
    <glyph glyph-name="one" unicode="1" horiz-adv-x="869" 
d="M359 11v1450h-225v39h416v-1489h-191zM100 0v39h670v-39h-670z" />
    <glyph glyph-name="two" unicode="2" horiz-adv-x="1099" 
d="M80 0v130l456 427q124 116 188 259t64 284q0 107 -39 189.5t-106.5 129.5t-153.5 47q-107 0 -188 -48t-123 -137.5t-32 -211.5h-37q0 25 18 46.5t47 35t62 13.5q30 0 57 -13.5t44.5 -38.5t17.5 -60q0 -40 -16.5 -68.5t-45 -44t-63.5 -15.5t-62 18t-43 50.5t-18 76.5
q-10 132 39.5 233.5t152 159.5t251.5 58q141 0 239 -53.5t148.5 -140t50.5 -186.5q0 -75 -18.5 -136.5t-50 -112t-70.5 -93.5t-80 -82l-575 -536h796v150h39v-330h-949z" />
    <glyph glyph-name="three" unicode="3" horiz-adv-x="1041" 
d="M462 -20q-142 0 -233 42t-135 108t-44 138q0 62 34 95t86 33q46 0 76.5 -28.5t30.5 -82.5q0 -32 -16 -55.5t-41.5 -36.5t-55.5 -13q-29 0 -54.5 11.5t-41.5 31.5t-16 45h38q0 -66 39.5 -122t114 -90t178.5 -34q119 0 193.5 52.5t109.5 138.5t35 187q0 61 -14.5 129
t-55.5 127.5t-119 97.5t-205 38v24q181 0 297.5 -33.5t181.5 -91.5t91 -133t26 -158q0 -97 -38 -175t-106 -132.5t-159 -83.5t-197 -29zM366 806v24q119 0 187 33t99.5 86t39.5 114.5t8 118.5q0 65 -16.5 119t-48.5 93.5t-78 61t-105 21.5q-58 0 -112 -17t-97 -48
t-68.5 -73.5t-25.5 -93.5h-38q0 30 18 51t44.5 31.5t51.5 10.5q30 0 55.5 -12t41.5 -35.5t16 -58.5q0 -40 -18 -64.5t-44 -35.5t-51 -11q-30 0 -56.5 14t-43 41.5t-16.5 68.5q0 54 29 103.5t81 87.5t119.5 60t143.5 22q84 0 159.5 -21.5t134 -63.5t92.5 -105t34 -146
q0 -75 -19.5 -142.5t-75 -120.5t-162 -83t-279.5 -30z" />
    <glyph glyph-name="four" unicode="4" horiz-adv-x="1189" 
d="M570 0v39h190v1341l-622 -930h1032v-39h-1106l726 1089h160v-1461h150v-39h-530z" />
    <glyph glyph-name="five" unicode="5" horiz-adv-x="1000" 
d="M432 -20q-102 0 -186 39.5t-134.5 103t-50.5 135.5q0 62 33.5 93t79.5 31q38 0 76 -26t38 -86q0 -35 -16 -59.5t-42 -37.5t-56 -13q-19 0 -39 7t-36 19.5t-26 31t-10 40.5h39q0 -43 24 -85.5t67.5 -77t101.5 -55t127 -20.5q97 0 157.5 39.5t93 104.5t45 142.5t12.5 153.5
q0 124 -34 219.5t-98 149.5t-153 54q-73 0 -126.5 -20.5t-87.5 -50.5t-50 -58h-36q16 37 62.5 80t121 74t175.5 31q131 0 229 -57.5t152 -164.5t54 -257q0 -97 -36.5 -184t-104 -153.5t-160.5 -104.5t-206 -38zM134 754v746h697v109h39v-289h-697v-566h-39z" />
    <glyph glyph-name="six" unicode="6" horiz-adv-x="1119" 
d="M588 -20q-151 0 -260.5 72.5t-168.5 215t-59 352.5q0 182 63 344.5t175 287.5t258.5 196.5t313.5 71.5v-36q-130 0 -240.5 -65.5t-192 -177.5t-126.5 -253t-45 -292l-6 -135q0 -101 15.5 -197.5t50 -174t90.5 -124t138 -46.5t134 42.5t80.5 112.5t39.5 155t11 171
q0 134 -33 229.5t-96 146.5t-152 51q-93 0 -155 -46t-92.5 -128t-30.5 -192h-34q0 117 34.5 212t112.5 151t209 56q76 0 153 -27.5t142 -85t104.5 -148.5t39.5 -219q0 -150 -55.5 -267.5t-161 -185t-256.5 -67.5z" />
    <glyph glyph-name="seven" unicode="7" horiz-adv-x="1009" 
d="M468 -20q-58 0 -95 37.5t-37 134.5q0 59 20 127t54 142.5t75 153.5t83 161q39 75 89 176t101 206.5t92 192.5h-731v-151h-39v340h910l-25 -52t-66.5 -137.5t-91 -187.5t-99.5 -204t-92 -185q-46 -94 -74 -153t-40 -101t-12 -86q0 -55 16 -91.5t37 -64.5t37 -56t16 -66
q0 -55 -31 -95.5t-97 -40.5z" />
    <glyph glyph-name="eight" unicode="8" horiz-adv-x="1099" 
d="M550 -20q-241 0 -355.5 110t-114.5 290q0 163 94 267.5t292 122.5q-170 19 -258 110.5t-88 239.5q0 110 48.5 201t144.5 145t237 54t237 -54t144.5 -145t48.5 -201q0 -148 -88 -239.5t-258 -110.5q198 -18 292 -122.5t94 -267.5q0 -180 -114 -290t-356 -110zM550 19
q99 0 158.5 51t85.5 133.5t26 176.5t-26 178.5t-85.5 138t-158.5 53.5t-158.5 -53.5t-86 -138t-26.5 -178.5t26.5 -176.5t86 -133.5t158.5 -51zM550 791q89 0 139 47t70 122.5t20 159.5q0 63 -11 126.5t-36.5 116.5t-70 85.5t-111.5 32.5t-111.5 -32.5t-70.5 -85.5
t-37 -116.5t-11 -126.5q0 -84 20.5 -159.5t70.5 -122.5t139 -47z" />
    <glyph glyph-name="nine" unicode="9" horiz-adv-x="1119" 
d="M210 -20v36q131 0 241 65.5t191.5 177.5t126.5 253t45 292l6 135q0 101 -15.5 197.5t-50 174t-90.5 124t-138 46.5t-134 -42.5t-80.5 -112.5t-39.5 -155t-11 -171q0 -134 33 -229.5t96 -146.5t152 -51q93 0 155 46t92.5 128t30.5 192h34q0 -117 -34.5 -212t-112.5 -151
t-209 -56q-76 0 -153 27.5t-142 85t-104.5 149t-39.5 218.5q0 150 55.5 267.5t161 185t256.5 67.5t260.5 -72.5t168.5 -215t59 -352.5q0 -182 -63 -344.5t-175 -287.5t-258.5 -196.5t-313.5 -71.5z" />
    <glyph glyph-name="zero.osf" horiz-adv-x="1122" 
d="M562 -20q-141 0 -244 66t-159 175t-56 239t56 239t159 174.5t244 65.5t243.5 -65.5t158 -174.5t55.5 -239t-55.5 -239t-158 -175t-243.5 -66zM562 19q80 0 130.5 42t77 108.5t36 143.5t9.5 147q0 71 -9.5 147.5t-36 143t-77 108.5t-130.5 42q-81 0 -131 -42t-76.5 -108.5
t-36 -143t-9.5 -147.5q0 -70 9.5 -147t36 -143.5t76.5 -108.5t131 -42z" />
    <glyph glyph-name="one.osf" horiz-adv-x="869" 
d="M359 10v871h-225v39h416v-910h-191zM100 0v39h670v-39h-670z" />
    <glyph glyph-name="two.osf" horiz-adv-x="929" 
d="M80 0v130l302 207q92 64 138.5 117t62 102.5t15.5 103.5q0 115 -62 173t-146 58q-44 0 -88.5 -18t-81 -49t-58 -72.5t-21.5 -87.5h-32q0 20 18.5 38.5t48 30t62.5 11.5q44 0 80.5 -29.5t36.5 -82.5q0 -60 -36 -89t-89 -29q-52 0 -87.5 36t-35.5 114q0 67 44.5 130.5
t122 104.5t176.5 41q167 0 257.5 -68.5t90.5 -180.5q0 -44 -22 -83t-58.5 -74t-80.5 -66t-88 -59t-82 -52l-270 -177h623v150h39v-330h-779z" />
    <glyph glyph-name="three.osf" horiz-adv-x="1041" 
d="M462 -520q-142 0 -233 39.5t-135 102t-44 131.5q0 58 34 89.5t86 31.5q46 0 76.5 -27t30.5 -78q0 -30 -16 -52.5t-41.5 -34.5t-55.5 -12q-29 0 -54.5 11t-41.5 29.5t-16 42.5h38q0 -62 39.5 -115t114 -85.5t178.5 -32.5q119 0 193.5 49.5t109.5 131t35 177.5
q0 58 -14.5 122.5t-55.5 121t-119 92t-205 35.5v24q181 0 297.5 -32t181.5 -87t91 -126t26 -150q0 -92 -38 -165.5t-106 -125.5t-159 -79.5t-197 -27.5zM366 263v23q119 0 187 31.5t99.5 81.5t39.5 108t8 113q0 61 -16.5 112t-48.5 88.5t-78 58t-105 20.5q-58 0 -112 -16
t-97 -45.5t-68.5 -70t-25.5 -88.5h-38q0 29 18 48.5t44.5 29.5t51.5 10q30 0 55.5 -11t41.5 -33.5t16 -55.5q0 -38 -18 -61t-44 -33.5t-51 -10.5q-30 0 -56.5 13t-43 39t-16.5 65q0 52 29 98.5t81 82.5t119.5 57t143.5 21q84 0 159.5 -20.5t134 -60.5t92.5 -99.5t34 -137.5
q0 -72 -19.5 -136t-75 -114t-162 -78.5t-279.5 -28.5z" />
    <glyph glyph-name="four.osf" horiz-adv-x="1099" 
d="M760 0v39h320v-39h-320zM760 39v-39h-701l641 920h160v-1420h-190v1300l-537 -761h627z" />
    <glyph glyph-name="five.osf" horiz-adv-x="1000" 
d="M432 -525q-102 0 -186 37.5t-134.5 97.5t-50.5 129q0 59 33.5 88.5t79.5 29.5q38 0 76 -24.5t38 -81.5q0 -34 -16 -57t-42 -35.5t-56 -12.5q-19 0 -39 6.5t-36 19t-26 29.5t-10 38h39q0 -41 24 -81t67.5 -73t101.5 -52.5t127 -19.5q97 0 157.5 37.5t93 99.5t45 135.5
t12.5 145.5q0 119 -34 209.5t-98 142t-153 51.5q-73 0 -126.5 -20t-87.5 -48.5t-50 -54.5h-36q16 35 62.5 76t121 70.5t175.5 29.5q131 0 229 -54.5t152 -156.5t54 -245q0 -92 -36.5 -174.5t-104 -146t-160.5 -99.5t-206 -36zM134 211v709h697v104h39v-275h-697v-538h-39z
" />
    <glyph glyph-name="seven.osf" horiz-adv-x="1009" 
d="M468 -520q-58 0 -95 36t-37 127q0 56 20 120.5t54 135t75 145.5t83 152q39 71 89 167t101 195.5t92 182.5h-731v-143h-39v322h910l-25 -49t-66.5 -130t-91 -178t-99.5 -193.5t-92 -175.5q-46 -88 -74 -144t-40 -96t-12 -82q0 -52 16 -86.5t37 -61t37 -53t16 -62.5
q0 -53 -31 -91t-97 -38z" />
    <glyph glyph-name="eight.osf" horiz-adv-x="1099" 
d="M550 -20q-241 0 -355.5 110t-114.5 290q0 163 94 267.5t292 122.5q-170 19 -258 110.5t-88 239.5q0 110 48.5 201t144.5 145t237 54t237 -54t144.5 -145t48.5 -201q0 -148 -88 -239.5t-258 -110.5q198 -18 292 -122.5t94 -267.5q0 -180 -114 -290t-356 -110zM550 19
q99 0 158.5 51t85.5 133.5t26 176.5t-26 178.5t-85.5 138t-158.5 53.5t-158.5 -53.5t-86 -138t-26.5 -178.5t26.5 -176.5t86 -133.5t158.5 -51zM550 791q89 0 139 47t70 122.5t20 159.5q0 63 -11 126.5t-36.5 116.5t-70 85.5t-111.5 32.5t-111.5 -32.5t-70.5 -85.5
t-37 -116.5t-11 -126.5q0 -84 20.5 -159.5t70.5 -122.5t139 -47z" />
    <glyph glyph-name="nine.osf" horiz-adv-x="1119" 
d="M210 -520v34q131 0 241 62.5t191.5 168.5t126.5 239.5t45 276.5l6 129q0 95 -15.5 186.5t-50 165t-90.5 117.5t-138 44t-134 -40t-80.5 -106.5t-39.5 -147.5t-11 -162q0 -127 33 -217.5t96 -138.5t152 -48q93 0 155 43t92.5 121t30.5 183h34q0 -111 -34.5 -201.5
t-112.5 -143.5t-209 -53q-76 0 -153 26t-142 80.5t-104.5 141t-39.5 207.5q0 142 55.5 253.5t161 175.5t256.5 64t260.5 -68.5t168.5 -204t59 -334.5q0 -172 -63 -326.5t-175 -273t-258.5 -186t-313.5 -67.5z" />
    <glyph glyph-name="zero.tf" 
d="M581 -20q-111 0 -201.5 59.5t-155 165.5t-99 245.5t-34.5 299.5t37 299.5t103.5 245.5t156 165.5t193.5 59.5t193.5 -59.5t156 -165.5t103.5 -245.5t37 -299.5t-34.5 -299.5t-99.5 -245.5t-155 -165.5t-201 -59.5zM581 16q91 0 147 62.5t85 168t39 236.5t10 267
t-12.5 267t-43.5 236.5t-86 168t-139 62.5q-85 0 -139.5 -62.5t-85.5 -168t-43.5 -236.5t-12.5 -267t10 -267t39 -236.5t85 -168t147 -62.5z" />
    <glyph glyph-name="one.tf" 
d="M505 11v1450h-225v39h416v-1489h-191zM246 0v39h670v-39h-670z" />
    <glyph glyph-name="two.tf" 
d="M110 0v130l456 427q124 116 188 259t64 284q0 107 -39 189.5t-106.5 129.5t-153.5 47q-107 0 -188 -48t-123 -137.5t-32 -211.5h-37q0 25 18 46.5t47 35t62 13.5q30 0 57 -13.5t44.5 -38.5t17.5 -60q0 -40 -16.5 -68.5t-45 -44t-63.5 -15.5t-62 18t-43 50.5t-18 76.5
q-10 132 39.5 233.5t152 159.5t251.5 58q141 0 239 -53.5t148.5 -140t50.5 -186.5q0 -75 -18.5 -136.5t-50 -112t-70.5 -93.5t-80 -82l-575 -536h796v150h39v-330h-949z" />
    <glyph glyph-name="three.tf" 
d="M522 -20q-142 0 -233 42t-135 108t-44 138q0 62 34 95t86 33q46 0 76.5 -28.5t30.5 -82.5q0 -32 -16 -55.5t-41.5 -36.5t-55.5 -13q-29 0 -54.5 11.5t-41.5 31.5t-16 45h38q0 -66 39.5 -122t114 -90t178.5 -34q119 0 193.5 52.5t109.5 138.5t35 187q0 61 -14.5 129
t-55.5 127.5t-119 97.5t-205 38v24q181 0 297.5 -33.5t181.5 -91.5t91 -133t26 -158q0 -97 -38 -175t-106 -132.5t-159 -83.5t-197 -29zM426 806v24q119 0 187 33t99.5 86t39.5 114.5t8 118.5q0 65 -16.5 119t-48.5 93.5t-78 61t-105 21.5q-58 0 -112 -17t-97 -48
t-68.5 -73.5t-25.5 -93.5h-38q0 30 18 51t44.5 31.5t51.5 10.5q30 0 55.5 -12t41.5 -35.5t16 -58.5q0 -40 -18 -64.5t-44 -35.5t-51 -11q-30 0 -56.5 14t-43 41.5t-16.5 68.5q0 54 29 103.5t81 87.5t119.5 60t143.5 22q84 0 159.5 -21.5t134 -63.5t92.5 -105t34 -146
q0 -75 -19.5 -142.5t-75 -120.5t-162 -83t-279.5 -30z" />
    <glyph glyph-name="four.tf" 
d="M556 0v39h190v1341l-622 -930h1032v-39h-1106l726 1089h160v-1461h150v-39h-530z" />
    <glyph glyph-name="five.tf" 
d="M512 -20q-102 0 -186 39.5t-134.5 103t-50.5 135.5q0 62 33.5 93t79.5 31q38 0 76 -26t38 -86q0 -35 -16 -59.5t-42 -37.5t-56 -13q-19 0 -39 7t-36 19.5t-26 31t-10 40.5h39q0 -43 24 -85.5t67.5 -77t101.5 -55t127 -20.5q97 0 157.5 39.5t93 104.5t45 142.5t12.5 153.5
q0 124 -34 219.5t-98 149.5t-153 54q-73 0 -126.5 -20.5t-87.5 -50.5t-50 -58h-36q16 37 62.5 80t121 74t175.5 31q131 0 229 -57.5t152 -164.5t54 -257q0 -97 -36.5 -184t-104 -153.5t-160.5 -104.5t-206 -38zM214 754v746h697v109h39v-289h-697v-566h-39z" />
    <glyph glyph-name="six.tf" 
d="M608 -20q-151 0 -260.5 72.5t-168.5 215t-59 352.5q0 182 63 344.5t175 287.5t258.5 196.5t313.5 71.5v-36q-130 0 -240.5 -65.5t-192 -177.5t-126.5 -253t-45 -292l-6 -135q0 -101 15.5 -197.5t50 -174t90.5 -124t138 -46.5t134 42.5t80.5 112.5t39.5 155t11 171
q0 134 -33 229.5t-96 146.5t-152 51q-93 0 -155 -46t-92.5 -128t-30.5 -192h-34q0 117 34.5 212t112.5 151t209 56q76 0 153 -27.5t142 -85t104.5 -148.5t39.5 -219q0 -150 -55.5 -267.5t-161 -185t-256.5 -67.5z" />
    <glyph glyph-name="seven.tf" 
d="M544 -20q-58 0 -95 37.5t-37 134.5q0 59 20 127t54 142.5t75 153.5t83 161q39 75 89 176t101 206.5t92 192.5h-731v-151h-39v340h910l-25 -52t-66.5 -137.5t-91 -187.5t-99.5 -204t-92 -185q-46 -94 -74 -153t-40 -101t-12 -86q0 -55 16 -91.5t37 -64.5t37 -56t16 -66
q0 -55 -31 -95.5t-97 -40.5z" />
    <glyph glyph-name="eight.tf" 
d="M580 -20q-241 0 -355.5 110t-114.5 290q0 163 94 267.5t292 122.5q-170 19 -258 110.5t-88 239.5q0 110 48.5 201t144.5 145t237 54t237 -54t144.5 -145t48.5 -201q0 -148 -88 -239.5t-258 -110.5q198 -18 292 -122.5t94 -267.5q0 -180 -114 -290t-356 -110zM580 19
q99 0 158.5 51t85.5 133.5t26 176.5t-26 178.5t-85.5 138t-158.5 53.5t-158.5 -53.5t-86 -138t-26.5 -178.5t26.5 -176.5t86 -133.5t158.5 -51zM580 791q89 0 139 47t70 122.5t20 159.5q0 63 -11 126.5t-36.5 116.5t-70 85.5t-111.5 32.5t-111.5 -32.5t-70.5 -85.5
t-37 -116.5t-11 -126.5q0 -84 20.5 -159.5t70.5 -122.5t139 -47z" />
    <glyph glyph-name="nine.tf" 
d="M230 -20v36q131 0 241 65.5t191.5 177.5t126.5 253t45 292l6 135q0 101 -15.5 197.5t-50 174t-90.5 124t-138 46.5t-134 -42.5t-80.5 -112.5t-39.5 -155t-11 -171q0 -134 33 -229.5t96 -146.5t152 -51q93 0 155 46t92.5 128t30.5 192h34q0 -117 -34.5 -212t-112.5 -151
t-209 -56q-76 0 -153 27.5t-142 85t-104.5 149t-39.5 218.5q0 150 55.5 267.5t161 185t256.5 67.5t260.5 -72.5t168.5 -215t59 -352.5q0 -182 -63 -344.5t-175 -287.5t-258.5 -196.5t-313.5 -71.5z" />
    <glyph glyph-name="zero.tosf" 
d="M581 -20q-141 0 -244 66t-159 175t-56 239t56 239t159 174.5t244 65.5t243.5 -65.5t158 -174.5t55.5 -239t-55.5 -239t-158 -175t-243.5 -66zM581 19q80 0 130.5 42t77 108.5t36 143.5t9.5 147q0 71 -9.5 147.5t-36 143t-77 108.5t-130.5 42q-81 0 -131 -42t-76.5 -108.5
t-36 -143t-9.5 -147.5q0 -70 9.5 -147t36 -143.5t76.5 -108.5t131 -42z" />
    <glyph glyph-name="one.tosf" 
d="M504 10v871h-225v39h416v-910h-191zM245 0v39h670v-39h-670z" />
    <glyph glyph-name="two.tosf" 
d="M195 0v130l302 207q92 64 138.5 117t62 102.5t15.5 103.5q0 115 -62 173t-146 58q-44 0 -88.5 -18t-81 -49t-58 -72.5t-21.5 -87.5h-32q0 20 18.5 38.5t48 30t62.5 11.5q44 0 80.5 -29.5t36.5 -82.5q0 -60 -36 -89t-89 -29q-52 0 -87.5 36t-35.5 114q0 67 44.5 130.5
t122 104.5t176.5 41q167 0 257.5 -68.5t90.5 -180.5q0 -44 -22 -83t-58.5 -74t-80.5 -66t-88 -59t-82 -52l-270 -177h623v150h39v-330h-779z" />
    <glyph glyph-name="three.tosf" 
d="M522 -520q-142 0 -233 39.5t-135 102t-44 131.5q0 58 34 89.5t86 31.5q46 0 76.5 -27t30.5 -78q0 -30 -16 -52.5t-41.5 -34.5t-55.5 -12q-29 0 -54.5 11t-41.5 29.5t-16 42.5h38q0 -62 39.5 -115t114 -85.5t178.5 -32.5q119 0 193.5 49.5t109.5 131t35 177.5
q0 58 -14.5 122.5t-55.5 121t-119 92t-205 35.5v24q181 0 297.5 -32t181.5 -87t91 -126t26 -150q0 -92 -38 -165.5t-106 -125.5t-159 -79.5t-197 -27.5zM426 263v23q119 0 187 31.5t99.5 81.5t39.5 108t8 113q0 61 -16.5 112t-48.5 88.5t-78 58t-105 20.5q-58 0 -112 -16
t-97 -45.5t-68.5 -70t-25.5 -88.5h-38q0 29 18 48.5t44.5 29.5t51.5 10q30 0 55.5 -11t41.5 -33.5t16 -55.5q0 -38 -18 -61t-44 -33.5t-51 -10.5q-30 0 -56.5 13t-43 39t-16.5 65q0 52 29 98.5t81 82.5t119.5 57t143.5 21q84 0 159.5 -20.5t134 -60.5t92.5 -99.5t34 -137.5
q0 -72 -19.5 -136t-75 -114t-162 -78.5t-279.5 -28.5z" />
    <glyph glyph-name="four.tosf" 
d="M790 0v39h320v-39h-320zM790 39v-39h-701l641 920h160v-1420h-190v1300l-537 -761h627z" />
    <glyph glyph-name="five.tosf" 
d="M512 -525q-102 0 -186 37.5t-134.5 97.5t-50.5 129q0 59 33.5 88.5t79.5 29.5q38 0 76 -24.5t38 -81.5q0 -34 -16 -57t-42 -35.5t-56 -12.5q-19 0 -39 6.5t-36 19t-26 29.5t-10 38h39q0 -41 24 -81t67.5 -73t101.5 -52.5t127 -19.5q97 0 157.5 37.5t93 99.5t45 135.5
t12.5 145.5q0 119 -34 209.5t-98 142t-153 51.5q-73 0 -126.5 -20t-87.5 -48.5t-50 -54.5h-36q16 35 62.5 76t121 70.5t175.5 29.5q131 0 229 -54.5t152 -156.5t54 -245q0 -92 -36.5 -174.5t-104 -146t-160.5 -99.5t-206 -36zM214 211v709h697v104h39v-275h-697v-538h-39z
" />
    <glyph glyph-name="seven.tosf" 
d="M544 -520q-58 0 -95 36t-37 127q0 56 20 120.5t54 135t75 145.5t83 152q39 71 89 167t101 195.5t92 182.5h-731v-143h-39v322h910l-25 -49t-66.5 -130t-91 -178t-99.5 -193.5t-92 -175.5q-46 -88 -74 -144t-40 -96t-12 -82q0 -52 16 -86.5t37 -61t37 -53t16 -62.5
q0 -53 -31 -91t-97 -38z" />
    <glyph glyph-name="eight.tosf" 
d="M580 -20q-241 0 -355.5 110t-114.5 290q0 163 94 267.5t292 122.5q-170 19 -258 110.5t-88 239.5q0 110 48.5 201t144.5 145t237 54t237 -54t144.5 -145t48.5 -201q0 -148 -88 -239.5t-258 -110.5q198 -18 292 -122.5t94 -267.5q0 -180 -114 -290t-356 -110zM580 19
q99 0 158.5 51t85.5 133.5t26 176.5t-26 178.5t-85.5 138t-158.5 53.5t-158.5 -53.5t-86 -138t-26.5 -178.5t26.5 -176.5t86 -133.5t158.5 -51zM580 791q89 0 139 47t70 122.5t20 159.5q0 63 -11 126.5t-36.5 116.5t-70 85.5t-111.5 32.5t-111.5 -32.5t-70.5 -85.5
t-37 -116.5t-11 -126.5q0 -84 20.5 -159.5t70.5 -122.5t139 -47z" />
    <glyph glyph-name="nine.tosf" 
d="M230 -520v34q131 0 241 62.5t191.5 168.5t126.5 239.5t45 276.5l6 129q0 95 -15.5 186.5t-50 165t-90.5 117.5t-138 44t-134 -40t-80.5 -106.5t-39.5 -147.5t-11 -162q0 -127 33 -217.5t96 -138.5t152 -48q93 0 155 43t92.5 121t30.5 183h34q0 -111 -34.5 -201.5
t-112.5 -143.5t-209 -53q-76 0 -153 26t-142 80.5t-104.5 141t-39.5 207.5q0 142 55.5 253.5t161 175.5t256.5 64t260.5 -68.5t168.5 -204t59 -334.5q0 -172 -63 -326.5t-175 -273t-258.5 -186t-313.5 -67.5z" />
    <glyph glyph-name="uni00B9" unicode="&#xb9;" horiz-adv-x="1059" 
d="M430 919v869h-136v24h250v-893h-114zM274 912v24h402v-24h-402z" />
    <glyph glyph-name="uni00B2" unicode="&#xb2;" horiz-adv-x="939" 
d="M200 914v78l274 256q74 70 112.5 155.5t38.5 170.5q0 96 -51 158t-129 62q-64 0 -112.5 -29t-73.5 -82.5t-20 -126.5h-22q0 22 23.5 39t53.5 17q26 0 48.5 -17.5t22.5 -49.5q0 -36 -21.5 -56.5t-53.5 -20.5q-31 0 -51.5 24t-22.5 64q-9 118 61 194t205 76q127 0 195 -69
t68 -159q0 -45 -11 -82t-30 -67.5t-42.5 -56t-48.5 -48.5l-345 -322h478v90h23v-198h-569z" />
    <glyph glyph-name="uni00B3" unicode="&#xb3;" horiz-adv-x="899" 
d="M407 902q-85 0 -139.5 25t-81 64.5t-26.5 83.5q0 37 20.5 57t51.5 20q27 0 45.5 -17.5t18.5 -49.5q0 -29 -20.5 -46t-47.5 -17q-26 0 -46.5 15t-20.5 38h23q0 -40 24 -73.5t68.5 -54t106.5 -20.5q107 0 155 68t48 159q0 49 -17 103.5t-67.5 93t-151.5 38.5v15
q144 0 221.5 -35t106.5 -92t29 -123q0 -78 -39.5 -134.5t-107.5 -87t-153 -30.5zM350 1398v14q95 0 137 34t52.5 82.5t10.5 94.5q0 52 -17.5 92t-50.5 62.5t-81 22.5q-34 0 -66.5 -10t-58.5 -29t-41 -44.5t-15 -55.5h-23q0 27 22.5 41.5t45.5 14.5q27 0 47.5 -16t20.5 -48
q0 -36 -22.5 -51t-45.5 -15q-27 0 -48.5 18.5t-21.5 55.5q0 44 30.5 81t81.5 60t112 23q67 0 124.5 -23t92.5 -68t35 -111q0 -60 -22.5 -111.5t-91.5 -82.5t-207 -31z" />
    <glyph glyph-name="uni2074" unicode="&#x2074;" horiz-adv-x="781" 
d="M362 919v24h114v804l-373 -558h619v-24h-663l435 654h96v-876h90v-24h-318z" />
    <glyph glyph-name="fraction" unicode="&#x2044;" horiz-adv-x="1072" 
d="M80 -300l858 1861h39l-858 -1861h-39z" />
    <glyph glyph-name="onehalf" unicode="&#xbd;" horiz-adv-x="1339" 
d="M71 -200l950 1500h39l-949 -1500h-40zM44 712v24h402v-24h-402zM730 -202v78l274 256q74 70 112.5 155.5t38.5 170.5q0 96 -51 158t-129 62q-64 0 -112.5 -29t-73.5 -82.5t-20 -126.5h-22q0 22 23.5 39t53.5 17q26 0 48.5 -17.5t22.5 -49.5q0 -36 -21.5 -56.5
t-53.5 -20.5q-31 0 -51.5 24t-22.5 64q-9 118 61 194t205 76q127 0 195 -69t68 -159q0 -45 -11 -82t-30 -67.5t-42.5 -56t-48.5 -48.5l-345 -322h478v90h23v-198h-569zM200 719v869h-136v24h250v-893h-114z" />
    <glyph glyph-name="onequarter" unicode="&#xbc;" horiz-adv-x="1281" 
d="M71 -200l950 1500h39l-949 -1500h-40zM44 712v24h402v-24h-402zM882 -206v24h114v804l-373 -558h619v-24h-663l435 654h96v-876h90v-24h-318zM200 719v869h-136v24h250v-893h-114z" />
    <glyph glyph-name="threequarters" unicode="&#xbe;" horiz-adv-x="1401" 
d="M192 -200l949 1500h39l-949 -1500h-39zM287 696q-85 0 -139.5 25t-81 64.5t-26.5 83.5q0 37 20.5 57t51.5 20q27 0 45.5 -17.5t18.5 -49.5q0 -29 -20.5 -46t-47.5 -17q-26 0 -46.5 15t-20.5 38h23q0 -40 24 -73.5t68.5 -54t106.5 -20.5q107 0 155 68t48 159
q0 49 -17 103.5t-67.5 93t-151.5 38.5v15q144 0 221.5 -35t106.5 -92t29 -123q0 -78 -39.5 -134.5t-107.5 -87t-153 -30.5zM1002 -206v24h114v804l-373 -558h619v-24h-663l435 654h96v-876h90v-24h-318zM230 1192v14q95 0 137 34t52.5 82.5t10.5 94.5q0 52 -17.5 92
t-50.5 62.5t-81 22.5q-34 0 -66.5 -10t-58.5 -29t-41 -44.5t-15 -55.5h-23q0 27 22.5 41.5t45.5 14.5q27 0 47.5 -16t20.5 -48q0 -36 -22.5 -51t-45.5 -15q-27 0 -48.5 18.5t-21.5 55.5q0 44 30.5 81t81.5 60t112 23q67 0 124.5 -23t92.5 -68t35 -111q0 -60 -22.5 -111.5
t-91.5 -82.5t-207 -31z" />
    <glyph glyph-name="period" unicode="." horiz-adv-x="399" 
d="M200 -20q-33 0 -60 16t-43.5 43.5t-16.5 60.5t16.5 60.5t43.5 44t60 16.5t60.5 -16.5t43.5 -44t16 -60.5t-16 -60.5t-43.5 -43.5t-60.5 -16z" />
    <glyph glyph-name="comma" unicode="," horiz-adv-x="429" 
d="M76 -303v40q58 0 104.5 27t78 73.5t44.5 106.5t3 126h13q3 -17 -11 -38t-40.5 -36.5t-61.5 -15.5q-64 0 -95 34.5t-31 83.5q0 33 17.5 60t48 42.5t68.5 15.5q39 0 71 -22t50.5 -65t18.5 -106q0 -80 -32 -155t-94 -123t-152 -48z" />
    <glyph glyph-name="colon" unicode=":" horiz-adv-x="395" 
d="M200 820q-33 0 -60 16t-43.5 43.5t-16.5 60.5t16.5 60.5t43.5 44t60 16.5t60.5 -16.5t43.5 -44t16 -60.5t-16 -60.5t-43.5 -43.5t-60.5 -16zM200 -20q-33 0 -60 16t-43.5 43.5t-16.5 60.5t16.5 60.5t43.5 44t60 16.5t60.5 -16.5t43.5 -44t16 -60.5t-16 -60.5t-43.5 -43.5
t-60.5 -16z" />
    <glyph glyph-name="semicolon" unicode=";" horiz-adv-x="429" 
d="M200 820q-33 0 -60 16t-43.5 43.5t-16.5 60.5t16.5 60.5t43.5 44t60 16.5t60.5 -16.5t43.5 -44t16 -60.5t-16 -60.5t-43.5 -43.5t-60.5 -16zM76 -303v40q58 0 104.5 27t78 73.5t44.5 106.5t3 126h13q3 -17 -11 -38t-40.5 -36.5t-61.5 -15.5q-64 0 -95 34.5t-31 83.5
q0 33 17.5 60t48 42.5t68.5 15.5q39 0 71 -22t50.5 -65t18.5 -106q0 -80 -32 -155t-94 -123t-152 -48z" />
    <glyph glyph-name="ellipsis" unicode="&#x2026;" horiz-adv-x="1199" 
d="M1000 -20q-33 0 -60 16t-43.5 43.5t-16.5 60.5t16.5 60.5t43.5 44t60 16.5t60.5 -16.5t43.5 -44t16 -60.5t-16 -60.5t-43.5 -43.5t-60.5 -16zM600 -20q-33 0 -60 16t-43.5 43.5t-16.5 60.5t16.5 60.5t43.5 44t60 16.5t60.5 -16.5t43.5 -44t16 -60.5t-16 -60.5
t-43.5 -43.5t-60.5 -16zM200 -20q-33 0 -60 16t-43.5 43.5t-16.5 60.5t16.5 60.5t43.5 44t60 16.5t60.5 -16.5t43.5 -44t16 -60.5t-16 -60.5t-43.5 -43.5t-60.5 -16z" />
    <glyph glyph-name="exclam" unicode="!" horiz-adv-x="635" 
d="M296 416q0 113 -12 218.5t-29 213t-33 223t-24 247.5v19.5v17.5q0 69 23.5 115t94.5 46q70 0 95 -46t25 -115q0 -9 -1 -17.5t-1 -19.5q-8 -132 -24.5 -247.5t-33.5 -223t-29 -213t-12 -218.5h-39zM318 -20q-33 0 -60.5 16t-43.5 43.5t-16 60.5t16 60.5t43.5 44t60.5 16.5
t60 -16.5t43.5 -44t16.5 -60.5t-16.5 -60.5t-43.5 -43.5t-60 -16z" />
    <glyph glyph-name="exclamdown" unicode="&#xa1;" horiz-adv-x="637" 
d="M323 -476q-70 0 -95 46t-25 115q0 9 1 18t1 19q8 132 24.5 247.5t33.5 223t29 213.5t12 218h39q0 -112 12 -218t29 -213.5t33 -223t24 -247.5v-19v-18q0 -69 -23.5 -115t-94.5 -46zM321 819q-33 0 -60 16.5t-43.5 44t-16.5 60.5t16.5 60.5t43.5 43.5t60 16t60.5 -16
t43.5 -43.5t16 -60.5t-16 -60.5t-43.5 -44t-60.5 -16.5z" />
    <glyph glyph-name="question" unicode="?" horiz-adv-x="1099" 
d="M474 418v285q110 29 181.5 92t107 147.5t35.5 177.5q0 71 -10.5 135.5t-40 115t-85.5 80t-147 29.5q-73 0 -137 -25.5t-113 -69t-77 -96.5t-28 -107h-38q0 30 16 52t42 33.5t54 11.5q30 0 56 -12.5t42 -37t16 -59.5q0 -40 -18 -64.5t-44.5 -35.5t-51.5 -11q-46 0 -80 31
t-34 92q0 62 32.5 122t89.5 108.5t131.5 78t158.5 29.5q141 0 246.5 -50t163.5 -140t58 -210q0 -115 -63 -211t-172.5 -156.5t-250.5 -69.5v-265h-40zM498 -20q-33 0 -60 16t-43.5 43.5t-16.5 60.5t16.5 60.5t43.5 44t60 16.5t60.5 -16.5t43.5 -44t16 -60.5t-16 -60.5
t-43.5 -43.5t-60.5 -16z" />
    <glyph glyph-name="questiondown" unicode="&#xbf;" horiz-adv-x="1099" 
d="M558 -480q-141 0 -246 50t-163.5 140t-58.5 210q0 115 63 211t172.5 156.5t250.5 69.5v265h40v-285q-110 -29 -181.5 -92t-107 -147.5t-35.5 -177.5q0 -70 10.5 -135t40 -115.5t85.5 -80t147 -29.5q73 0 137 25.5t113 69t77 96.5t28 107h38q0 -30 -16 -51.5t-41.5 -33.5
t-54.5 -12t-55.5 12.5t-42.5 37t-16 59.5q0 40 18 64.5t44.5 35.5t51.5 11q46 0 80 -30.5t34 -92.5q0 -61 -32.5 -121.5t-89.5 -109t-131.5 -78t-158.5 -29.5zM592 819q-33 0 -60.5 16.5t-43.5 44t-16 60.5t16 60.5t43.5 43.5t60.5 16t60.5 -16t43.5 -43.5t16 -60.5
t-16 -60.5t-43.5 -44t-60.5 -16.5z" />
    <glyph glyph-name="periodcentered" unicode="&#xb7;" horiz-adv-x="395" 
d="M200 680q-33 0 -60 16t-43.5 43.5t-16.5 60.5t16.5 60.5t43.5 44t60 16.5t60.5 -16.5t43.5 -44t16 -60.5t-16 -60.5t-43.5 -43.5t-60.5 -16z" />
    <glyph glyph-name="bullet" unicode="&#x2022;" horiz-adv-x="399" 
d="M200 610q-33 0 -60 16t-43.5 43.5t-16.5 60.5t16.5 60.5t43.5 44t60 16.5t60.5 -16.5t43.5 -44t16 -60.5t-16 -60.5t-43.5 -43.5t-60.5 -16z" />
    <glyph glyph-name="asterisk" unicode="*" horiz-adv-x="1264" 
d="M632 434q-44 0 -72 32t-28 90q0 9 0.5 18t1.5 19q7 53 19.5 88.5t25.5 68.5t22 77.5t11 114.5q-60 -36 -94 -66.5t-56.5 -58t-47 -56t-66.5 -61.5q-8 -7 -15.5 -11t-15.5 -9q-51 -29 -91.5 -20.5t-63.5 46.5q-22 38 -9 78t64 69q8 5 15.5 9t17.5 8q49 20 86 27.5
t72.5 12.5t78.5 19t105 48q-62 34 -105 48t-78.5 19t-72.5 12.5t-86 27.5q-10 4 -17.5 8.5t-15.5 8.5q-51 29 -64 69t9 78q23 38 63.5 46.5t91.5 -20.5q8 -4 15.5 -8.5t15.5 -11.5q42 -33 66.5 -61.5t47 -56t56.5 -58t94 -66.5q-2 70 -11 114.5t-22 77.5t-25.5 68.5
t-19.5 88.5q-1 11 -1.5 19.5t-0.5 17.5q0 59 28 90.5t72 31.5t72 -31.5t28 -90.5v-17.5t-2 -19.5q-7 -53 -19.5 -88.5t-25.5 -68.5t-22 -77.5t-11 -114.5q60 36 94 66.5t56.5 58t47 56t66.5 61.5q8 7 16 11.5t15 8.5q51 29 92 20.5t63 -46.5q23 -38 9.5 -78t-64.5 -69
q-7 -4 -15 -8.5t-18 -8.5q-49 -20 -86 -27.5t-72.5 -12.5t-78.5 -19t-105 -48q62 -34 105 -48t78.5 -19t72.5 -12.5t86 -27.5q10 -4 18 -8t15 -9q51 -29 64.5 -69t-9.5 -78q-22 -38 -63 -46.5t-92 20.5q-7 5 -15 9t-16 11q-42 33 -66.5 61.5t-47 56t-56.5 58t-94 66.5
q2 -70 11 -114.5t22 -77.5t25.5 -68.5t19.5 -88.5q2 -10 2 -19v-18q0 -58 -28 -90t-72 -32z" />
    <glyph glyph-name="uni203D" unicode="&#x203d;" horiz-adv-x="1199" 
d="M644 670v35q69 8 126.5 47t99.5 98.5t65 129.5t23 140q0 94 -43 174t-122 129t-188 49q-80 0 -149.5 -29t-124 -76.5t-90 -105t-48.5 -114.5q8 17 26.5 25t34.5 8q30 0 56 -13t42 -37.5t16 -59.5q0 -40 -18 -64.5t-44.5 -36t-51.5 -11.5q-46 0 -79.5 31.5t-33.5 92.5
q0 69 34 145t100 143t161 108.5t216 41.5q113 0 203.5 -29t154.5 -83.5t97.5 -132t33.5 -175.5q0 -72 -27 -136.5t-75 -118.5t-111 -93t-135.5 -60.5t-148.5 -21.5zM598 -20q-33 0 -60.5 16t-43.5 43.5t-16 60.5t16 60.5t43.5 44t60.5 16.5t60.5 -16.5t43.5 -44t16 -60.5
t-16 -60.5t-43.5 -43.5t-60.5 -16zM575 416q0 71 -15.5 163t-34 193t-29.5 196q-1 11 -1.5 20t-0.5 18q0 29 10 64t36 60.5t73 25.5t73.5 -25.5t37 -60.5t10.5 -64v-18t-2 -20q-8 -72 -27 -147t-40 -148t-36 -138.5t-15 -118.5h-39z" />
    <glyph glyph-name="numbersign" unicode="#" horiz-adv-x="1276" 
d="M703 -12l200 1520l39 2l-200 -1520zM61 485v39h1096v-39h-1096zM315 -10l200 1520h39l-200 -1520h-39zM120 1006v40h1097v-40h-1097z" />
    <glyph glyph-name="uni203E" unicode="&#x203e;" horiz-adv-x="719" 
d="M-10 1560v38h740v-38h-740z" />
    <glyph glyph-name="slash" unicode="/" horiz-adv-x="1056" 
d="M80 -300l858 1861h39l-858 -1861h-39z" />
    <glyph glyph-name="backslash" unicode="\" horiz-adv-x="1056" 
d="M932 -300l-852 1861h44l853 -1861h-45z" />
    <glyph glyph-name="parenleft" unicode="(" horiz-adv-x="723" 
d="M686 -340q-122 53 -224 148t-176.5 225t-115 286t-40.5 331q0 233 71 422t196.5 323.5t288.5 204.5l18 -29q-93 -60 -164.5 -157t-120.5 -219.5t-74 -261.5t-25 -283t25 -289t74 -275.5t120.5 -233t164.5 -162.5z" />
    <glyph glyph-name="parenright" unicode=")" horiz-adv-x="723" 
d="M39 -340l-18 29q93 60 164.5 157t120 219.5t74 261.5t25.5 283t-25.5 289t-74 275.5t-120 233t-164.5 162.5l18 30q122 -53 223.5 -148t176 -225t115.5 -286t41 -331q0 -233 -71.5 -422t-196.5 -323.5t-288 -204.5z" />
    <glyph glyph-name="braceleft" unicode="{" horiz-adv-x="543" 
d="M484 1561v-41q-62 0 -104 -30t-63 -81.5t-21 -114.5q0 -76 17 -136t33.5 -128.5t16.5 -168.5q0 -78 -29.5 -121.5t-82 -66.5t-120.5 -42q68 -19 120.5 -42.5t82 -66.5t29.5 -122q0 -100 -16.5 -168t-33.5 -128t-17 -136q0 -63 21 -115t63 -83t104 -31v-39
q-145 0 -226.5 33t-115 95.5t-33.5 151.5q0 103 18.5 175t42.5 125.5t42 98t18 92.5q0 61 -37.5 93t-83.5 47v39q46 15 83.5 48t37.5 94q0 47 -18 91.5t-42 98t-42.5 125.5t-18.5 175q0 89 33.5 151t115 95t226.5 33z" />
    <glyph glyph-name="braceright" unicode="}" horiz-adv-x="543" 
d="M435 623q-74 20 -131.5 43t-90 67t-32.5 127q0 100 16.5 168t33.5 128t17 136q0 63 -21 115t-63 83t-104 31v39q145 0 226.5 -33t115 -95.5t33.5 -151.5q0 -103 -18.5 -175t-42.5 -125.5t-42 -98t-18 -92.5q0 -61 37.5 -93t83.5 -47v-26zM60 -301v41q62 0 104 30t63 81.5
t21 114.5q0 76 -17 136t-33.5 128.5t-16.5 168.5q0 83 32.5 126.5t90 66.5t131.5 43v-25q-46 -15 -83.5 -47.5t-37.5 -94.5q0 -47 18 -91.5t42 -98t42.5 -125.5t18.5 -175q0 -89 -33.5 -151t-115 -95t-226.5 -33z" />
    <glyph glyph-name="bracketleft" unicode="[" horiz-adv-x="649" 
d="M109 -300v1861h181v-1861h-181zM109 -300v39h481v-39h-481zM109 1520v41h481v-41h-481z" />
    <glyph glyph-name="bracketright" unicode="]" horiz-adv-x="649" 
d="M360 -301v1861h181v-1861h-181zM60 -301v41h481v-41h-481zM60 1521v39h481v-39h-481z" />
    <glyph glyph-name="hyphen" unicode="-" horiz-adv-x="719" 
d="M120 531v38h480v-38h-480z" />
    <glyph glyph-name="uni00AD" unicode="&#xad;" horiz-adv-x="719" 
d="M120 531v38h480v-38h-480z" />
    <glyph glyph-name="endash" unicode="&#x2013;" horiz-adv-x="1081" 
d="M119 531v38h842v-38h-842z" />
    <glyph glyph-name="emdash" unicode="&#x2014;" horiz-adv-x="1569" 
d="M119 531v38h1330v-38h-1330z" />
    <glyph glyph-name="figuredash" unicode="&#x2012;" horiz-adv-x="934" 
d="M120 531v38h695v-38h-695z" />
    <glyph glyph-name="uni2015" unicode="&#x2015;" horiz-adv-x="1715" 
d="M120 531v38h1476v-38h-1476z" />
    <glyph glyph-name="uni2010" unicode="&#x2010;" horiz-adv-x="719" 
d="M120 531v38h480v-38h-480z" />
    <glyph glyph-name="uni2011" unicode="&#x2011;" horiz-adv-x="719" 
d="M120 531v38h480v-38h-480z" />
    <glyph glyph-name="underscore" unicode="_" horiz-adv-x="1119" 
d="M-11 -319v38h1140v-38h-1140z" />
    <glyph glyph-name="quotesinglbase" unicode="&#x201a;" horiz-adv-x="677" 
d="M76 -303v40q58 0 104.5 27t78 73.5t44.5 106.5t3 126h13q3 -17 -11 -38t-40.5 -36.5t-61.5 -15.5q-64 0 -95 34.5t-31 83.5q0 33 17.5 60t48 42.5t68.5 15.5q39 0 71 -22t50.5 -65t18.5 -106q0 -80 -32 -155t-94 -123t-152 -48z" />
    <glyph glyph-name="quotedblbase" unicode="&#x201e;" horiz-adv-x="819" 
d="M466 -303v40q58 0 104.5 27t78 73.5t44.5 106.5t3 126h13q3 -17 -11 -38t-40.5 -36.5t-61.5 -15.5q-64 0 -95 34.5t-31 83.5q0 33 17.5 60t48 42.5t68.5 15.5q39 0 71 -22t50.5 -65t18.5 -106q0 -80 -32 -155t-94 -123t-152 -48zM76 -303v40q58 0 104.5 27t78 73.5
t44.5 106.5t3 126h13q3 -17 -11 -38t-40.5 -36.5t-61.5 -15.5q-64 0 -95 34.5t-31 83.5q0 33 17.5 60t48 42.5t68.5 15.5q39 0 71 -22t50.5 -65t18.5 -106q0 -80 -32 -155t-94 -123t-152 -48z" />
    <glyph glyph-name="quotedblleft" unicode="&#x201c;" horiz-adv-x="819" 
d="M606 1032q-39 0 -71 22t-50.5 65t-18.5 106q0 80 32 155t94 123t152 48v-40q-58 0 -104.5 -27t-78 -73.5t-44.5 -106.5t-3 -126h-13q-3 17 11 38t40.5 36.5t61.5 15.5q65 0 95.5 -34t30.5 -84q0 -33 -17.5 -60t-48 -42.5t-68.5 -15.5zM216 1032q-39 0 -70.5 22t-50.5 65
t-19 106q0 80 32 155t94 123t152 48v-40q-58 0 -104.5 -27t-78 -73.5t-44.5 -106.5t-3 -126h-13q-3 17 11 38t40.5 36.5t61.5 15.5q65 0 95.5 -34t30.5 -84q0 -33 -17.5 -60t-48 -42.5t-68.5 -15.5z" />
    <glyph glyph-name="quotedblright" unicode="&#x201d;" horiz-adv-x="819" 
d="M466 1021v40q58 0 104.5 27t78 73.5t44.5 106.5t3 126h13q3 -17 -11 -38t-40.5 -36.5t-61.5 -15.5q-64 0 -95 34.5t-31 83.5q0 33 17.5 60t48 42.5t68.5 15.5q39 0 71 -22t50.5 -65t18.5 -106q0 -80 -32 -155t-94 -123t-152 -48zM76 1021v40q58 0 104.5 27t78 73.5
t44.5 106.5t3 126h13q3 -17 -11 -38t-40.5 -36.5t-61.5 -15.5q-64 0 -95 34.5t-31 83.5q0 33 17.5 60t48 42.5t68.5 15.5q39 0 71 -22t50.5 -65t18.5 -106q0 -80 -32 -155t-94 -123t-152 -48z" />
    <glyph glyph-name="quoteleft" unicode="&#x2018;" horiz-adv-x="429" 
d="M216 1032q-39 0 -70.5 22t-50.5 65t-19 106q0 80 32 155t94 123t152 48v-40q-58 0 -104.5 -27t-78 -73.5t-44.5 -106.5t-3 -126h-13q-3 17 11 38t40.5 36.5t61.5 15.5q65 0 95.5 -34t30.5 -84q0 -33 -17.5 -60t-48 -42.5t-68.5 -15.5z" />
    <glyph glyph-name="quoteright" unicode="&#x2019;" horiz-adv-x="429" 
d="M76 1021v40q58 0 104.5 27t78 73.5t44.5 106.5t3 126h13q3 -17 -11 -38t-40.5 -36.5t-61.5 -15.5q-64 0 -95 34.5t-31 83.5q0 33 17.5 60t48 42.5t68.5 15.5q39 0 71 -22t50.5 -65t18.5 -106q0 -80 -32 -155t-94 -123t-152 -48z" />
    <glyph glyph-name="guillemotleft" unicode="&#xab;" horiz-adv-x="1389" 
d="M1270 290l-661 460v50l661 460l20 -19l-429 -466l429 -466zM710 290l-660 460v50l660 460l19 -19l-427 -466l427 -466z" />
    <glyph glyph-name="guillemotright" unicode="&#xbb;" horiz-adv-x="1389" 
d="M681 290l-20 19l428 466l-428 466l20 19l660 -460v-50zM121 290l-20 19l428 466l-428 466l20 19l660 -460v-50z" />
    <glyph glyph-name="guilsinglleft" unicode="&#x2039;" horiz-adv-x="828" 
d="M710 290l-660 460v50l660 460l19 -19l-427 -466l427 -466z" />
    <glyph glyph-name="guilsinglright" unicode="&#x203a;" horiz-adv-x="828" 
d="M118 290l-19 19l427 466l-427 466l19 19l660 -460v-50z" />
    <glyph glyph-name="quotedbl" unicode="&#x22;" horiz-adv-x="739" 
d="M521 977q0 82 -9 132.5t-22.5 86t-26.5 72.5t-21 93q-1 11 -1.5 19.5t-0.5 17.5q0 59 28 90.5t72 31.5t72 -31.5t28 -90.5v-17.5t-2 -19.5q-8 -56 -21 -93t-26.5 -72.5t-22.5 -86t-9 -132.5h-38zM181 977q0 82 -9 132.5t-22.5 86t-26.5 72.5t-21 93q-1 11 -1.5 19.5
t-0.5 17.5q0 59 28 90.5t72 31.5t72 -31.5t28 -90.5v-17.5t-2 -19.5q-8 -56 -21 -93t-26.5 -72.5t-22.5 -86t-9 -132.5h-38z" />
    <glyph glyph-name="quotesingle" unicode="'" horiz-adv-x="399" 
d="M181 977q0 82 -9 132.5t-22.5 86t-26.5 72.5t-21 93q-1 11 -1.5 19.5t-0.5 17.5q0 59 28 90.5t72 31.5t72 -31.5t28 -90.5v-17.5t-2 -19.5q-8 -56 -21 -93t-26.5 -72.5t-22.5 -86t-9 -132.5h-38z" />
    <glyph glyph-name="uni2001" unicode="&#x2001;" horiz-adv-x="2000" 
 />
    <glyph glyph-name="uni2003" unicode="&#x2003;" horiz-adv-x="2000" 
 />
    <glyph glyph-name="uni2000" unicode="&#x2000;" horiz-adv-x="1000" 
 />
    <glyph glyph-name="uni2002" unicode="&#x2002;" horiz-adv-x="1000" 
 />
    <glyph glyph-name="uni2007" unicode="&#x2007;" 
 />
    <glyph glyph-name="uni2005" unicode="&#x2005;" horiz-adv-x="500" 
 />
    <glyph glyph-name="uni200A" unicode="&#x200a;" horiz-adv-x="200" 
 />
    <glyph glyph-name="uni2008" unicode="&#x2008;" horiz-adv-x="399" 
 />
    <glyph glyph-name="uni2006" unicode="&#x2006;" horiz-adv-x="333" 
 />
    <glyph glyph-name="space" unicode=" " horiz-adv-x="500" 
 />
    <glyph glyph-name="uni00A0" unicode="&#xa0;" horiz-adv-x="500" 
 />
    <glyph glyph-name="uni2009" unicode="&#x2009;" horiz-adv-x="333" 
 />
    <glyph glyph-name="uni2004" unicode="&#x2004;" horiz-adv-x="666" 
 />
    <glyph glyph-name="uni200B" unicode="&#x200b;" horiz-adv-x="0" 
 />
    <glyph glyph-name="CR" unicode="&#xd;" horiz-adv-x="500" 
 />
    <glyph glyph-name="cent" unicode="&#xa2;" horiz-adv-x="1019" 
d="M559 -20q-131 0 -234 57.5t-162.5 165t-59.5 257.5q0 130 53.5 239t157 175t254.5 66q102 0 176 -35t114 -90.5t40 -117.5q0 -54 -31 -84t-77 -30q-25 0 -51.5 11t-44.5 36t-18 65q0 52 34 80t80 28q43 0 74.5 -27t31.5 -79h-38q0 46 -23.5 83.5t-63 64t-87.5 40.5
t-96 14q-86 0 -140 -41.5t-83.5 -107.5t-40.5 -142.5t-11 -147.5q0 -86 12 -164t41 -138.5t79.5 -95.5t127.5 -35q82 0 140 30t97.5 83t66.5 121h42q-39 -121 -123.5 -201t-236.5 -80zM541 -170v1279h40v-1279h-40z" />
    <glyph glyph-name="currency" unicode="&#xa4;" horiz-adv-x="1140" 
d="M99 270l-28 28l157 158q-116 128 -116 314t116 314l-158 157l29 29l157 -158q59 55 138.5 86t176.5 31t176.5 -31t137.5 -85l157 156l28 -28l-157 -157q115 -127 115 -314q0 -185 -114 -315l156 -156l-29 -29l-156 157q-58 -54 -137.5 -85.5t-176.5 -31.5t-177 31
t-138 86zM571 354q128 0 219.5 58t140.5 152.5t49 205.5t-49 205.5t-140.5 152t-219.5 57.5t-220 -57.5t-141.5 -152t-49.5 -205.5t49.5 -205.5t141.5 -152.5t220 -58z" />
    <glyph glyph-name="dollar" unicode="$" horiz-adv-x="1109" 
d="M570 -29q-166 0 -279.5 52.5t-171.5 127t-58 139.5q0 69 36.5 116.5t102.5 47.5q31 0 60 -14.5t48.5 -44t19.5 -73.5q0 -40 -19.5 -69.5t-50.5 -45.5t-65 -16q-32 0 -62 10t-49 32t-19 57h38q0 -59 53 -125.5t156 -113t255 -46.5q166 0 246 83.5t80 231.5q0 88 -42 147.5
t-110.5 102t-150.5 78t-164.5 74.5t-151 91.5t-110.5 129t-42 187.5q0 90 36.5 162t100 123t145 78t172.5 27q108 0 203 -46t154 -119.5t59 -154.5q0 -61 -37 -107.5t-103 -46.5q-30 0 -59.5 14.5t-48.5 44t-19 73.5q0 60 40.5 95.5t91.5 35.5q33 0 63.5 -16t50 -40.5
t19.5 -52.5h-38q0 73 -52.5 137.5t-137.5 105t-183 40.5q-111 0 -181 -33t-103 -93.5t-33 -141.5q0 -79 41.5 -133t110 -92.5t151 -73t164.5 -73.5t150.5 -93.5t110 -134t41.5 -195.5q0 -139 -56 -240t-159 -155t-244 -54zM436 -160v1820h39v-1820h-39zM618 -160v1820h39
v-1820h-39z" />
    <glyph glyph-name="Euro" unicode="&#x20ac;" horiz-adv-x="1419" 
d="M866 -20q-113 0 -222.5 55t-198.5 157.5t-142 244t-53 313.5q0 158 47.5 297t135.5 245.5t211 167t274 60.5q92 0 164.5 -29.5t123.5 -75.5t78 -95t27 -88q0 -41 -16.5 -69t-42.5 -42t-57 -14q-25 0 -51 12t-44 37t-18 65q0 35 16 59.5t42 37t55 12.5q26 0 52.5 -10
t44 -31.5t17.5 -56.5h-38q0 37 -24.5 80t-68.5 80.5t-105 61.5t-135 24q-127 0 -214.5 -64t-141 -170t-78 -234.5t-24.5 -259.5q0 -146 28 -276.5t81 -231.5t129 -159t173 -58q95 0 170.5 45.5t127 120.5t76.5 164h42q-26 -96 -83.5 -182t-147 -139.5t-210.5 -53.5zM59 761
v38h880v-38h-880zM59 460v38h880v-38h-880z" />
    <glyph glyph-name="florin" unicode="&#x192;" horiz-adv-x="691" 
d="M-124 -520q-81 0 -130.5 32t-72.5 78t-23 88q0 41 16 68.5t42 41.5t56 14q25 0 51 -10.5t43.5 -34.5t17.5 -64q0 -35 -17 -60t-41.5 -38t-49.5 -13q-22 0 -49 9.5t-47 30.5t-20 56h38q0 -30 12 -58.5t35.5 -51t58 -36t80.5 -13.5q71 0 122.5 49.5t83.5 139.5t45 212
l113 1103q13 127 69 240.5t151 185t225 71.5q81 0 131 -32t73 -78t23 -88q0 -61 -33.5 -92.5t-79.5 -31.5q-25 0 -51.5 10.5t-45 34.5t-18.5 64q0 35 17 60t42 38t49 13q21 0 49 -9.5t48.5 -30.5t20.5 -56h-38q0 29 -12 57.5t-35 51t-58 36.5t-82 14q-70 0 -121.5 -49.5
t-83.5 -139t-46 -212.5l-122 -1103q-14 -125 -67.5 -239t-146 -186t-222.5 -72zM63 881v39h641v-39h-641z" />
    <glyph glyph-name="sterling" unicode="&#xa3;" horiz-adv-x="1250" 
d="M145 -40q-12 83 10.5 152.5t61.5 128t81 107.5t71 92t29 81q0 86 -24.5 155.5t-56.5 134t-56.5 134t-24.5 155.5q0 140 66 233t185.5 140t280.5 47q122 0 208.5 -28t141.5 -75t81 -105.5t26 -120.5q0 -41 -17.5 -68.5t-44.5 -41t-58 -13.5q-25 0 -51 11.5t-44 36
t-18 64.5q0 35 16 59.5t42 37.5t55 13t56 -12t44.5 -34.5t17.5 -52.5h-36q0 58 -24 110.5t-73 94t-124 65.5t-177 24q-104 0 -169 -35.5t-100.5 -91.5t-48.5 -119t-13 -119q0 -74 17 -137.5t39 -120t39 -111t17 -110.5q0 -90 -29.5 -154t-76 -113t-97.5 -91.5t-95 -87.5
t-69.5 -101t-19.5 -134h-38zM863 -61q-102 0 -174 18.5t-125.5 42.5t-98 42.5t-91.5 18.5q-41 0 -81 -12.5t-69.5 -35t-39.5 -53.5h-21q15 56 37.5 99t55.5 73t79 45.5t108 15.5q75 0 131 -10t103.5 -23.5t94.5 -23.5t104 -10q47 0 97.5 6.5t94 26t70.5 57t27 98.5h39
q0 -145 -48 -226.5t-126 -115t-167 -33.5zM29 770v41h901v-41h-901z" />
    <glyph glyph-name="yen" unicode="&#xa5;" horiz-adv-x="1467" 
d="M652 0v721l-480 779h220l427 -700l420 696h46l-443 -730v-766h-190zM472 0v39h571v-39h-571zM333 322v38h880v-38h-880zM333 623v38h880v-38h-880zM43 1461v39h580v-39h-580zM1005 1461v39h408v-39h-408z" />
    <glyph glyph-name="uni2219" unicode="&#x2219;" horiz-adv-x="399" 
d="M200 610q-33 0 -60 16t-43.5 43.5t-16.5 60.5t16.5 60.5t43.5 44t60 16.5t60.5 -16.5t43.5 -44t16 -60.5t-16 -60.5t-43.5 -43.5t-60.5 -16z" />
    <glyph glyph-name="uni2215" unicode="&#x2215;" horiz-adv-x="1072" 
d="M80 -300l858 1861h39l-858 -1861h-39z" />
    <glyph glyph-name="plus" unicode="+" horiz-adv-x="1059" 
d="M311 561v421h437v-421h-437zM319 553v437h421v-437h-421z" />
    <glyph glyph-name="minus" unicode="&#x2212;" horiz-adv-x="934" 
d="M120 751v38h695v-38h-695z" />
    <glyph glyph-name="multiply" unicode="&#xd7;" horiz-adv-x="963" 
d="M425 467l-298 298l309 309l298 -298zM435 467l-308 309l298 298l308 -309z" />
    <glyph glyph-name="divide" unicode="&#xf7;" horiz-adv-x="1119" 
d="M561 990q-49 0 -85.5 35.5t-36.5 84.5q0 50 36.5 85t85.5 35q50 0 84.5 -35t34.5 -85q0 -49 -34.5 -84.5t-84.5 -35.5zM100 751v38h920v-38h-920zM561 280q-49 0 -85.5 35.5t-36.5 84.5q0 50 36.5 85t85.5 35q50 0 84.5 -35t34.5 -85q0 -49 -34.5 -84.5t-84.5 -35.5z" />
    <glyph glyph-name="equal" unicode="=" horiz-adv-x="1119" 
d="M120 902v38h880v-38h-880zM120 601v38h880v-38h-880z" />
    <glyph glyph-name="notequal" unicode="&#x2260;" horiz-adv-x="1119" 
d="M255 295l-32 22l643 917l31 -22zM120 601v38h880v-38h-880zM120 902v38h880v-38h-880z" />
    <glyph glyph-name="greater" unicode="&#x3e;" horiz-adv-x="1119" 
d="M120 1170v42l880 -410v-54l-880 -411v43l845 395z" />
    <glyph glyph-name="less" unicode="&#x3c;" horiz-adv-x="1119" 
d="M120 759v43l880 411v-43zM1000 338l-880 410v43l880 -411v-42z" />
    <glyph glyph-name="greaterequal" unicode="&#x2265;" horiz-adv-x="1119" 
d="M120 1170v42l880 -410v-54l-880 -411v43l845 395zM1000 61h-880v38h880v-38z" />
    <glyph glyph-name="lessequal" unicode="&#x2264;" horiz-adv-x="1119" 
d="M120 759v43l880 411v-43zM120 61v38h880v-38h-880zM1000 338l-880 410v43l880 -411v-42z" />
    <glyph glyph-name="plusminus" unicode="&#xb1;" horiz-adv-x="1059" 
d="M311 561v421h437v-421h-437zM121 2v38h819v-38h-819zM319 553v437h421v-437h-421z" />
    <glyph glyph-name="approxequal" unicode="&#x2248;" horiz-adv-x="1200" 
d="M798 878q-81 0 -134 40.5t-93 90.5q-24 30 -50.5 54t-60.5 38t-82 14q-72 0 -122 -31.5t-71 -84.5t-5 -117h-44q-20 70 8.5 133.5t90.5 104t143 40.5q63 0 106 -20t73.5 -50t55.5 -60q37 -49 78.5 -78t101.5 -29q64 0 109.5 30.5t64 83t1.5 119.5h44q18 -75 -8 -138
t-81.5 -101.5t-124.5 -38.5zM798 378q-81 0 -134 40.5t-93 90.5q-24 30 -50.5 54t-60.5 38t-82 14q-72 0 -122 -31.5t-71 -84.5t-5 -117h-44q-20 70 8.5 133.5t90.5 104t143 40.5q63 0 106 -20t73.5 -50t55.5 -60q37 -49 78.5 -78t101.5 -29q64 0 109.5 30.5t64 83
t1.5 119.5h44q18 -75 -8 -138t-81.5 -101.5t-124.5 -38.5z" />
    <glyph glyph-name="logicalnot" unicode="&#xac;" horiz-adv-x="971" 
d="M813 406v347h-693v39h732v-386h-39z" />
    <glyph glyph-name="asciitilde" unicode="~" horiz-adv-x="1375" 
d="M878 686q-76 0 -123.5 19t-80 47t-62 56t-68.5 47t-101 19q-53 0 -99.5 -17t-75.5 -58t-29 -113h-39q0 115 41.5 189t109.5 109.5t147 35.5q66 0 110 -19t76.5 -47t63 -56t69 -47t96.5 -19q63 0 113.5 17t80.5 58t30 113h39q0 -115 -41.5 -189t-109.5 -109.5t-147 -35.5z
" />
    </font>
</defs>
</svg>
